<svg xmlns="http://www.w3.org/2000/svg" viewBox="0 0 138.24 138.53"><defs><style>.cls-1{fill:#99d1ff;}.cls-2{fill:#ccc;}.cls-3{fill:#b3b3b3;}</style></defs><title>Asset 6</title><g id="Layer_2" data-name="Layer 2"><g id="Layer_1-2" data-name="Layer 1"><circle class="cls-1" cx="69.12" cy="69.12" r="69.12"/><path class="cls-2" d="M77.62,133.32c0-9.1-1.45-17.32-.79-22.2S89.09,99.52,94,94.25s12.66-8.31,17.14-14.11,6.46-14.63,8.44-17,6.46-5,7.51-12-1.06-7.52-2-7.65c-1.37-.19-2.39,1.47-2.5,4-.26,5.67-3,10.28-5.24,9.62s-.29-11.47-.16-14.63.45-9.08-2.77-9-3.16,9.11-3.43,14.9S109.43,62.8,109.51,67c.13,6.9-4.87,12.05-7.23,11.13s-.14-13.45,0-19.51-.76-21.08-.79-26.76c0-5.07-.77-8-3.69-8-3.38,0-4,2.51-3.82,9,.12,5.81,1.85,33-.79,33.35s-1.87-7.75-4.49-8.44c-2-.54-4.18,1.94-3.16,5.8,1,3.7,7.38,12.52,7.65,17.27S80.65,97,76.83,94.64C73.16,92.36,71.29,72.1,75.25,65S85.83,55,85.66,44.41c-.11-7.27-.13-12.66-3-12.66s-3.58,2.9-3.43,7.51c.26,8.17-2.37,15.69-5.67,15.16C69.62,53.8,71.16,42,72.08,32.55s-.53-17.27-3.43-17.27-3.3,3.16-3,11.6-3.44,16-1.6,27,2.44,20.63-.66,21.75c-2.9,1.06-4.88-10.28-5.14-18.06s-1.05-18.85-1.05-24.26-.66-10.55-4-10.68-2.9,7.38-2.9,14S50.5,59,52.61,70.11C55.14,83.39,65.49,92,65.49,96.22S61,99,53.63,93.45A30.1,30.1,0,0,1,42.68,74.65c-.79-6,1.84-25.23-4-25.49s0,19.12-2.24,22.54-6.2-12-10.55-9.89,3,12.39,8.7,17.8,6.07,11.07,14.63,19.12,16.61,10.55,16.48,20.83S65,138.24,65,138.24C73.72,138.24,77.62,140.12,77.62,133.32Z"/><path class="cls-3" d="M67.3,73a.89.89,0,1,0-.89-.89A.89.89,0,0,0,67.3,73ZM65.71,83.3a1.65,1.65,0,1,0,1.65-1.65A1.65,1.65,0,0,0,65.71,83.3Zm3.6-23.13a1.2,1.2,0,1,0-1.2,1.2A1.2,1.2,0,0,0,69.31,60.18ZM77,59.12a1.06,1.06,0,1,0,1.06-1.06A1.06,1.06,0,0,0,77,59.12ZM74.18,93.44a1,1,0,1,0-1,1A1,1,0,0,0,74.18,93.44ZM72.43,70.26a1.1,1.1,0,1,0,.93,1.69c0-.31.08-.61.12-.91A1.1,1.1,0,0,0,72.43,70.26Zm-1.6,20.52a1.09,1.09,0,1,0-1.09-1.09A1.09,1.09,0,0,0,70.83,90.77ZM69,37.28a.81.81,0,1,0-.81.81A.81.81,0,0,0,69,37.28Zm3.13,62.37A1.16,1.16,0,1,0,71,98.49,1.16,1.16,0,0,0,72.13,99.66Zm-5.72-35.9a1.3,1.3,0,1,0,1.3-1.3A1.3,1.3,0,0,0,66.41,63.76ZM76,100.23a1.05,1.05,0,1,0-1.06-1.06A1.05,1.05,0,0,0,76,100.23Zm-.16,21.82a.89.89,0,1,0-.89-.89A.89.89,0,0,0,75.81,122.05Zm-8.9-78a1.54,1.54,0,1,0,1.54-1.54A1.54,1.54,0,0,0,66.9,44.05Zm8.9,13.18a.89.89,0,1,0-.89-.89A.89.89,0,0,0,75.8,57.23Zm0,56.52a.89.89,0,0,0,.86-.7c0-.11,0-.21,0-.32a.89.89,0,0,0-.88-.79.9.9,0,0,0,0,1.8Zm2.48-62.15a1.24,1.24,0,0,0-.73-1.13,11.34,11.34,0,0,1-1.13,2.21,1.23,1.23,0,0,0,.61.17A1.24,1.24,0,0,0,78.29,51.61ZM65.71,117.75a1.67,1.67,0,1,0-.67-3.2,13.87,13.87,0,0,1,.66,3.2Zm4-6.71a1.64,1.64,0,1,0-1.64,1.64A1.64,1.64,0,0,0,69.74,111Zm4.09-5.94a1.08,1.08,0,1,0,1.08,1.08A1.08,1.08,0,0,0,73.83,105.11Zm-7.3,20a.94.94,0,1,0-.87-1.31l0,.66A.93.93,0,0,0,66.53,125.12Zm4-47.8a1.23,1.23,0,1,0-1.23,1.23A1.23,1.23,0,0,0,70.53,77.32Zm1.38-16.49a1.14,1.14,0,1,0,1.14-1.14A1.14,1.14,0,0,0,71.91,60.83ZM72.4,67A1.24,1.24,0,0,0,74,68.2a16.64,16.64,0,0,1,.63-2A1.25,1.25,0,0,0,72.4,67Zm.35,45.25a1.43,1.43,0,1,0-1.43-1.43A1.43,1.43,0,0,0,72.75,112.26Zm.54-9.27a1.38,1.38,0,1,0-1.38,1.38A1.38,1.38,0,0,0,73.29,103ZM71.21,52.74a1.27,1.27,0,1,0,1.2,1.07,3.34,3.34,0,0,1-.58-.89A1.21,1.21,0,0,0,71.21,52.74ZM65.67,24.62a.8.8,0,1,0,0-1.59l-.1,0c0,.49,0,1,0,1.55Zm3-3.63a1.31,1.31,0,1,0-1.31-1.31A1.31,1.31,0,0,0,68.68,21Zm1.85,102.25a.79.79,0,1,0-.79-.79A.79.79,0,0,0,70.53,123.23ZM69.74,33.6a1.32,1.32,0,0,0,2.13,1.06c.07-.65.13-1.3.19-1.93a1.33,1.33,0,0,0-2.32.88Zm1-9.48a1,1,0,1,0-1-1A1,1,0,0,0,70.69,24.12ZM66.41,93.37a1.69,1.69,0,1,0-1.69-1.69A1.69,1.69,0,0,0,66.41,93.37ZM66.1,57.43a1.38,1.38,0,1,0-1.38-1.38A1.38,1.38,0,0,0,66.1,57.43Zm2.91-28a2.14,2.14,0,0,0-3.36-1.76,33.88,33.88,0,0,1-.16,3.39A2.13,2.13,0,0,0,69,29.47Zm0,37.6a1.53,1.53,0,1,0,1.53,1.53A1.53,1.53,0,0,0,69,67.07ZM64,77.82a.84.84,0,1,0,.84-.84A.84.84,0,0,0,64,77.82Zm1.56,10a.87.87,0,1,0-.87-.87A.87.87,0,0,0,65.59,87.84Zm.87,18.73a1.64,1.64,0,1,0,1.64-1.64A1.64,1.64,0,0,0,66.46,106.57ZM70,117a1,1,0,1,0-1-1A1,1,0,0,0,70,117ZM66.41,98.12a1.69,1.69,0,1,0-1.11-3,3.72,3.72,0,0,1,.19,1.07,3.4,3.4,0,0,1-.26,1.41A1.69,1.69,0,0,0,66.41,98.12Zm4.12-15.05A1.11,1.11,0,1,0,71.64,82,1.11,1.11,0,0,0,70.53,83.07ZM64.72,50.35a1.49,1.49,0,1,0,1.49-1.49A1.49,1.49,0,0,0,64.72,50.35ZM98.41,74.4a1,1,0,1,0-1,1A1,1,0,0,0,98.41,74.4Zm-2-9.24a1.4,1.4,0,1,0-1.4-1.4A1.4,1.4,0,0,0,96.42,65.16ZM80.55,44.75a1.4,1.4,0,1,0-1.4-1.4A1.4,1.4,0,0,0,80.55,44.75Zm31.12,25.06a1.28,1.28,0,1,0-1.28-1.28A1.28,1.28,0,0,0,111.66,69.81ZM98.41,58a1,1,0,1,0-1,1A1,1,0,0,0,98.41,58ZM94.83,37.28a1.57,1.57,0,0,0-.69.16c0,.9.08,1.87.12,2.91a1.59,1.59,0,1,0,.57-3.07Zm1.59,44.28a1.4,1.4,0,1,0-1.4-1.4A1.4,1.4,0,0,0,96.42,81.56Zm-1.07-11a1.07,1.07,0,1,0-1.07-1.07A1.07,1.07,0,0,0,95.35,70.52Zm6.24-28A2.59,2.59,0,1,0,99,45.11,2.59,2.59,0,0,0,101.59,42.53ZM111.66,65a1.28,1.28,0,1,0-1.28-1.28A1.28,1.28,0,0,0,111.66,65ZM96.42,47.29a1.07,1.07,0,0,0-1.93-.64q0,.66,0,1.32a1.07,1.07,0,0,0,1.89-.68Zm16.52,3.5a1.52,1.52,0,1,0,1.52,1.52A1.52,1.52,0,0,0,112.94,50.79ZM116,47a1.58,1.58,0,1,0,.37,3.11c.08-1,.18-2,.28-3A1.57,1.57,0,0,0,116,47Zm-4.38,11.27a1.28,1.28,0,1,0-1.28-1.28A1.28,1.28,0,0,0,111.66,58.22ZM125,47.47a1.18,1.18,0,1,0-1.18-1.18A1.18,1.18,0,0,0,125,47.47ZM115.64,57a1.17,1.17,0,0,0,1-.65,5.2,5.2,0,0,1-.33-1.45,1.16,1.16,0,0,0-.71-.25,1.17,1.17,0,1,0,0,2.35Zm-2.84-9.15a1.67,1.67,0,1,0-1.67-1.67A1.67,1.67,0,0,0,112.8,47.87Zm4.35-5.07c0-.09,0-.18,0-.26a1.14,1.14,0,1,0,0,.26Zm-4.35-1A1.67,1.67,0,1,0,111.55,39c-.08.61-.15,1.25-.2,1.9A1.66,1.66,0,0,0,112.8,41.82Zm3-2.87a1.35,1.35,0,0,0,1.34-1.26c0-.16,0-.32-.05-.47a1.35,1.35,0,1,0-1.29,1.73ZM96,55.66a1.4,1.4,0,1,0-1.39-1.48c0,.06,0,.12,0,.18A1.39,1.39,0,0,0,96,55.66Zm-9.42,7a1,1,0,1,0-1-1A1,1,0,0,0,86.59,62.61ZM89,60.3a1.4,1.4,0,0,0,1.23-.75c-.35-.94-.8-1.65-1.5-1.83a2.21,2.21,0,0,0-.39-.07A1.4,1.4,0,0,0,89,60.3ZM91.65,72a1.29,1.29,0,1,0-1.29-1.29A1.29,1.29,0,0,0,91.65,72Zm.15-5.25A1.43,1.43,0,0,0,93,66.18c-.81,0-1.27-1-1.62-2.21a1.44,1.44,0,0,0,.47,2.79ZM84.37,43.09a1,1,0,0,0,1,1,.94.94,0,0,0,.32-.06q0-.92,0-1.8a1,1,0,0,0-.29-.06A1,1,0,0,0,84.37,43.09ZM82.8,40.73a.86.86,0,1,0-.86-.86A.86.86,0,0,0,82.8,40.73Zm-.86,5.48a1.71,1.71,0,1,0,1.71,1.71A1.71,1.71,0,0,0,81.95,46.22Zm-1.4-8.94a1.74,1.74,0,0,0-1.22-1.66A21.62,21.62,0,0,0,79.19,39,1.75,1.75,0,0,0,80.55,37.28ZM91.8,76.14a21.69,21.69,0,0,1,1,2.75,1.77,1.77,0,1,0-1-2.75Zm-7.73-40a1.26,1.26,0,0,0,1.13-.7,10.79,10.79,0,0,0-.36-1.56,1.26,1.26,0,1,0-.76,2.27ZM99.6,26.47a1.19,1.19,0,0,0,1.05-.65,3.18,3.18,0,0,0-1.44-1.67,1.19,1.19,0,0,0,.39,2.31Zm2.25,38.11c.11-1.14.21-2.25.29-3.28a1.68,1.68,0,0,0-.54-.1,1.7,1.7,0,1,0,0,3.4ZM101,54.15a1.11,1.11,0,1,0,1.11,1.11A1.11,1.11,0,0,0,101,54.15ZM99.3,49a1.4,1.4,0,0,0,2.79.15l0-.44A1.4,1.4,0,0,0,99.3,49Zm1.4,24.27a1.4,1.4,0,0,0,.5-.1c0-.8.06-1.66.12-2.56a1.39,1.39,0,0,0-.62-.15,1.4,1.4,0,0,0,0,2.81Zm-5-38.18a1.73,1.73,0,1,0-1.71-2c0,.18,0,.38,0,.6A1.73,1.73,0,0,0,95.68,35.07ZM99.3,67.51a.94.94,0,1,0-.94.94A.94.94,0,0,0,99.3,67.51ZM99,36.92a1.55,1.55,0,0,0,2.65,1.1c0-.79-.06-1.55-.08-2.26A1.54,1.54,0,0,0,99,36.92Zm-3.16-7.38A1.57,1.57,0,1,0,94.27,28,1.57,1.57,0,0,0,95.84,29.54Zm3.46.22a.85.85,0,1,0,.85-.85A.85.85,0,0,0,99.3,29.76Zm-14,61.91a1,1,0,1,0,1,1A1,1,0,0,0,85.33,91.67ZM72.33,131a1.26,1.26,0,1,0,1.26,1.26A1.26,1.26,0,0,0,72.33,131Zm4.7-3.28a1.21,1.21,0,1,0,.53,2.29c0-.74-.06-1.48-.1-2.2A1.2,1.2,0,0,0,77,127.72Zm-3.73-2.6a.89.89,0,1,0,.89.89A.89.89,0,0,0,73.29,125.12Zm-.17-8.89A1.79,1.79,0,1,0,74.91,118,1.79,1.79,0,0,0,73.12,116.23Zm5.17-10.15a1.27,1.27,0,0,0-.32,2.49,16.26,16.26,0,0,1,1.47-1.77A1.27,1.27,0,0,0,78.29,106.08ZM75.81,133a.9.9,0,1,0,.9.9A.9.9,0,0,0,75.81,133Zm3.5-31.35a1.23,1.23,0,1,0,1.23,1.23A1.23,1.23,0,0,0,79.32,101.61Zm5.66-2a1.31,1.31,0,0,0-.33,2.59l1.64-1.31A1.31,1.31,0,0,0,85,99.57Zm-3-47.73a1.71,1.71,0,1,0,.63,3.3,20.59,20.59,0,0,0,1.06-1.77A1.71,1.71,0,0,0,81.95,51.84ZM80.8,95.65A1.24,1.24,0,1,0,82,96.88,1.24,1.24,0,0,0,80.8,95.65ZM68.1,133a1.2,1.2,0,1,0-1.2,1.2A1.2,1.2,0,0,0,68.1,133Zm-4.35-51a1,1,0,1,0,1,1A1,1,0,0,0,63.76,81.94ZM62.1,106.12a1.93,1.93,0,0,0-1.9,1.65A24,24,0,0,1,62.36,110a1.93,1.93,0,0,0-.26-3.84Zm4.31-2.54a1.69,1.69,0,1,0-1.69-1.69A1.69,1.69,0,0,0,66.41,103.59Zm-4.79-1.65a1.45,1.45,0,1,0-1.45,1.45A1.45,1.45,0,0,0,61.62,101.93Zm24-6.29a.66.66,0,1,0,.66.66A.66.66,0,0,0,85.64,95.65ZM68.08,126.81a1.67,1.67,0,1,0,1.67,1.67A1.67,1.67,0,0,0,68.08,126.81Zm-.7,11.72,1.63,0,54.81-82.41a1.46,1.46,0,0,0-.29,2.89,16.42,16.42,0,0,0,1.55-2.18A1.46,1.46,0,0,0,123.82,56.12ZM112.94,72.23a1.52,1.52,0,1,0,1.52,1.52A1.52,1.52,0,0,0,112.94,72.23Zm3.87-11.18A1.94,1.94,0,1,0,114.88,63,1.93,1.93,0,0,0,116.81,61.05Zm-9.93,14.41a1.23,1.23,0,0,0,.33,0,1.25,1.25,0,0,0,.91-2.12A12.92,12.92,0,0,1,106.88,75.47ZM110.38,77a1,1,0,1,0,1,1A1,1,0,0,0,110.38,77ZM106,84.6a1.24,1.24,0,0,0,.07.4q.94-.71,1.82-1.48a1.24,1.24,0,0,0-.63-.18A1.26,1.26,0,0,0,106,84.6ZM115.11,67a1.7,1.7,0,0,0,1.7,1.7h.1c.41-1,.79-2,1.15-2.83A1.69,1.69,0,0,0,115.11,67Zm11.05-17.59a.89.89,0,1,0,.89.89A.89.89,0,0,0,126.17,49.43ZM60,98.68a1.63,1.63,0,0,0,1.22-.55,20.19,20.19,0,0,1-2.83-1.42,1.64,1.64,0,0,0,1.61,2Zm63.78-45.8a1,1,0,1,0-1,1A1,1,0,0,0,123.82,52.88Zm-3.69,6.5A1.61,1.61,0,0,0,120,62.6c.5-.52,1.09-1.07,1.71-1.69A1.61,1.61,0,0,0,120.13,59.38ZM102.28,78.82A1.48,1.48,0,0,0,102,78a1.24,1.24,0,0,1-.23-.27,1.49,1.49,0,1,0,.47,1.08Zm-11.11,8a1.77,1.77,0,1,0,1.77,1.77A1.77,1.77,0,0,0,91.17,86.83ZM95,92.18a1.39,1.39,0,0,0,.24.79c.68-.63,1.39-1.23,2.13-1.8a1.4,1.4,0,0,0-2.37,1Zm.59-7.24a1.33,1.33,0,1,0-1.33,1.33A1.33,1.33,0,0,0,95.6,84.94Zm-5.25,9.8a1.55,1.55,0,0,0-.29,3.07c.64-.53,1.26-1.05,1.83-1.57A1.55,1.55,0,0,0,90.36,94.73Zm7.5-7.86a1.44,1.44,0,1,0,1.44,1.44A1.44,1.44,0,0,0,97.86,86.87Zm3.14,1.4a1.47,1.47,0,0,0,0,.26L103.18,87A1.43,1.43,0,0,0,101,88.27ZM102.11,83A1.11,1.11,0,1,0,101,84.15,1.11,1.11,0,0,0,102.11,83Zm5.1-1.91a1.37,1.37,0,1,0-1.37,1.37A1.37,1.37,0,0,0,107.21,81.13ZM87.55,64.37a1.25,1.25,0,0,0-1.25,1.14q.26.56.57,1.17a1.26,1.26,0,1,0,.67-2.31ZM37,56.47a1.13,1.13,0,0,0-.92-1.11c0,.7,0,1.44.1,2.2A1.13,1.13,0,0,0,37,56.47Zm14.74-28a1.12,1.12,0,0,0-1.12-1.12h-.09c-.07.69-.12,1.42-.15,2.2l.24,0A1.12,1.12,0,0,0,51.73,28.44Zm-.66,8.49a1.15,1.15,0,1,0,1.15-1.15A1.15,1.15,0,0,0,51.06,36.93Zm9.6,41.19a1.45,1.45,0,1,0-1.45,1.45A1.45,1.45,0,0,0,60.67,78.12ZM54.28,34.43a2.07,2.07,0,1,0-2.07-2.07A2.07,2.07,0,0,0,54.28,34.43Zm.2-7.38a1.12,1.12,0,1,0-1.12-1.12A1.12,1.12,0,0,0,54.48,27Zm-14,27.62a2.14,2.14,0,0,0,1.6-.73,9.33,9.33,0,0,0-1.29-3.55,2.13,2.13,0,0,0-.32,0,2.15,2.15,0,1,0,0,4.31ZM49.49,92a1.33,1.33,0,0,0,1.3-1c-.5-.52-1-1-1.45-1.6A1.33,1.33,0,0,0,49.49,92Zm6.6-52.88a.84.84,0,0,0,.84.84.82.82,0,0,0,.45-.15q0-.73-.06-1.43a.82.82,0,0,0-.38-.1A.84.84,0,0,0,56.09,39.1ZM40.8,66.61a1.47,1.47,0,0,0,1.47,1.47l.28,0c0-.92,0-1.88,0-2.86a1.45,1.45,0,0,0-.33,0A1.47,1.47,0,0,0,40.8,66.61Zm4.31,19.48a1.37,1.37,0,0,0,1.31-1c-.32-.56-.64-1.13-.92-1.7a1.37,1.37,0,1,0-.39,2.69ZM39,60.66a1.8,1.8,0,1,0,1.8-1.8A1.8,1.8,0,0,0,39,60.66Zm17.34-8.19a.86.86,0,0,0,.86.86.84.84,0,0,0,.83-.72l0-.37a.84.84,0,0,0-.81-.63A.86.86,0,0,0,56.34,52.47Zm0,14.78a1.19,1.19,0,1,0,1.19-1.19A1.19,1.19,0,0,0,56.34,67.25Zm-2.72,5.17a1,1,0,1,0,1-1A1,1,0,0,0,53.63,72.42Zm5.95,13.49c.52.79,1,1.55,1.53,2.27a1.43,1.43,0,1,0-1.53-2.27ZM55.29,62.41a.83.83,0,1,0-.83.83A.83.83,0,0,0,55.29,62.41ZM57.2,46.22a1.11,1.11,0,1,0-1.11,1.11A1.11,1.11,0,0,0,57.2,46.22ZM54.06,75.34q.45,1.24,1,2.42a1.31,1.31,0,1,0-1-2.42Zm.19-19.84a2.09,2.09,0,1,0,2.09,2.09A2.09,2.09,0,0,0,54.25,55.51ZM55,96.17a1.36,1.36,0,0,0,1.26-.85c-.68-.46-1.41-1-2.15-1.53A1.35,1.35,0,0,0,55,96.17ZM52.21,41.12a1.15,1.15,0,1,0,1.15,1.15A1.15,1.15,0,0,0,52.21,41.12ZM36.89,65.62a1.78,1.78,0,0,0-.33-3.52C36.68,63.32,36.8,64.51,36.89,65.62ZM49.12,96.89a1.7,1.7,0,0,0-1.21.51c.43.44.88.88,1.37,1.33l1.1,1a1.7,1.7,0,0,0-1.26-2.85Zm-4-6a1.38,1.38,0,0,0-1.38,1.38,1.36,1.36,0,0,0,0,.3l.69.9a1.36,1.36,0,0,0,.66.17,1.38,1.38,0,1,0,0-2.75Zm0-3.67a1.38,1.38,0,1,0,1.38,1.38A1.38,1.38,0,0,0,45.11,87.22Zm8.26-36.44a1.63,1.63,0,0,0-2.78-1.17c0,.8.07,1.61.11,2.43a1.63,1.63,0,0,0,2.67-1.26Zm1.92,47.82a1,1,0,1,0-1,1A1,1,0,0,0,55.29,98.61Zm0,3a1.66,1.66,0,0,0-1.51,1c.87.69,1.71,1.35,2.53,2a1.65,1.65,0,0,0-1-3Zm3.44-30a1.19,1.19,0,1,0-1.19,1.19A1.19,1.19,0,0,0,58.72,71.64Zm-16.46-.19a1.47,1.47,0,1,0,.38,2.87c-.08-.78-.12-1.75-.13-2.85Zm12-4.43A1.26,1.26,0,0,0,52,66.27c.08.59.17,1.18.27,1.76a1.26,1.26,0,0,0,2-1ZM50.09,93.45a1,1,0,1,0,1,1A1,1,0,0,0,50.09,93.45ZM30.87,65.75a2.07,2.07,0,1,0,1.91,2.86c-.52-.91-1.07-1.9-1.65-2.84Zm10.06,12.6a1.34,1.34,0,1,0,1.34,1.34A1.34,1.34,0,0,0,40.93,78.35ZM30.21,70.91a1.4,1.4,0,1,0,1.4,1.4A1.4,1.4,0,0,0,30.21,70.91Zm35.5-30.35a1.45,1.45,0,0,0-1.41-1.45q-.22,1.4-.4,2.86a1.44,1.44,0,0,0,1.81-1.41ZM26.06,65.75a1.42,1.42,0,0,0-1,.45,16.19,16.19,0,0,0,1,2.41,1.43,1.43,0,0,0,0-2.87ZM40.93,85.54a1.33,1.33,0,0,0-1.2.75l1.15,1.91h0a1.34,1.34,0,1,0,0-2.67ZM38.29,67.07a1.3,1.3,0,0,0-1.27,1c0,.21,0,.41,0,.61a1.3,1.3,0,1,0,1.26-1.61Zm-2.6,12.29a1.29,1.29,0,0,0-.92.38,23.81,23.81,0,0,1,1.76,1.9,1.29,1.29,0,0,0-.85-2.28Zm.8-6a1.77,1.77,0,1,0,1.77,1.77A1.77,1.77,0,0,0,36.49,73.41Z"/></g></g></svg>