<svg xmlns="http://www.w3.org/2000/svg" viewBox="0 0 138.24 138.53"><defs><style>.cls-1{isolation:isolate;}.cls-2{fill:#99d1ff;}.cls-17,.cls-22,.cls-3,.cls-9{fill:#231f20;}.cls-4{fill:#f6921e;}.cls-10,.cls-21,.cls-5{fill:#fff;}.cls-6{fill:#404041;}.cls-7{fill:#f9a51a;}.cls-8{fill:#d89016;}.cls-9{opacity:0.07;}.cls-17,.cls-22,.cls-9{mix-blend-mode:multiply;}.cls-10{opacity:0.3;}.cls-11{fill:#e7b809;}.cls-12{fill:#f2c008;}.cls-13{fill:#ffd868;}.cls-14{fill:#ffca05;}.cls-15{fill:#d2a709;}.cls-16{fill:#00bdd6;}.cls-17{opacity:0.05;}.cls-18{fill:#5bcaf4;}.cls-19{fill:#6dcef5;}.cls-20{fill:#00aae5;}.cls-21,.cls-22{opacity:0.2;}.cls-23{fill:#9ad2ad;}.cls-24{fill:#76b78e;}.cls-25{fill:#ffd17c;}.cls-26{fill:#fbbb76;}.cls-27{fill:#68c4e9;}.cls-28{fill:#00b8f1;}.cls-29{fill:#44c7f4;}.cls-30{fill:#00bff2;}</style></defs><title>Asset 9</title><g class="cls-1"><g id="Layer_2" data-name="Layer 2"><g id="Layer_1-2" data-name="Layer 1"><circle class="cls-2" cx="69.12" cy="69.12" r="69.12"/><path class="cls-3" d="M55.28,111.5c-.11.33-1.6.94-3,.46s-2.23-1.87-2.11-2.2c.23-.66,1.56-.81,3-.33S55.51,110.82,55.28,111.5Z"/><path class="cls-3" d="M55.61,112.48c0-.56.84-1.57,2.31-.45s1.59,2.18.91,2.71S55.61,112.48,55.61,112.48Z"/><path class="cls-3" d="M53.77,117.2c-.15.71,1.15,1.3,2.39,1.29s2.12-.4,2-1.33S53.77,117.2,53.77,117.2Z"/><path class="cls-3" d="M49,116.06c-.27.45-.95,1.74,1,1.94,1.55.16,1.18-1.43,1.18-1.43Z"/><path class="cls-4" d="M50.4,109.83A3.18,3.18,0,0,0,55,111.4c.14-.45-.68-1.28-2-1.73S50.57,109.39,50.4,109.83Z"/><path class="cls-4" d="M55.89,112.39a10,10,0,0,0,2.56,2.12c.14,0,.2,0,.22,0a.72.72,0,0,0,.3-.6,2.55,2.55,0,0,0-1.2-1.69,2.46,2.46,0,0,0-.68-.38.94.94,0,0,0-.86.07A.84.84,0,0,0,55.89,112.39Z"/><path class="cls-4" d="M54,117.41a1.41,1.41,0,0,0,.89.62h0a3.79,3.79,0,0,0,1.22.19,2.24,2.24,0,0,0,1.61-.43.76.76,0,0,0,.17-.61s0,0-.14-.08A11.21,11.21,0,0,0,54,117.41Z"/><path class="cls-4" d="M49.15,116.37a1.1,1.1,0,0,0-.18.87.7.7,0,0,0,.48.38h0a2.53,2.53,0,0,0,.55.11.84.84,0,0,0,.75-.19,1,1,0,0,0,.17-.76Z"/><path class="cls-5" d="M60.39,116.79c-.43,1.27-6.65,1.31-10.11.13-4.63-1.58-5.71-4.54-5.41-5.42s3-2.57,7.6-1C55.92,111.69,60.82,115.52,60.39,116.79Z"/><path class="cls-5" d="M63.39,117.81c-.53,1.56-1.83,2.52-2.61,2.25-1.56-.53-2-3.22-1.86-3.78s2.22-2.39,3.78-1.86C63.47,114.69,63.92,116.25,63.39,117.81Z"/><path class="cls-6" d="M62.61,114.68a2.76,2.76,0,0,0-2.17.5,3.72,3.72,0,0,0-1.27,1.2,3.72,3.72,0,0,0,.27,1.72,2.76,2.76,0,0,0,1.42,1.72c.57.19,1.77-.6,2.28-2.09S63.17,114.87,62.61,114.68Z"/><path class="cls-4" d="M62.52,114.93a3,3,0,0,0-2.13.4,6.83,6.83,0,0,0-1.35,1,7,7,0,0,0,.46,1.61,3,3,0,0,0,1.44,1.62c.35.12,1.45-.48,1.94-1.92S62.87,115.05,62.52,114.93Z"/><path class="cls-6" d="M55.91,112.23l-.17-.11c-1.59,1.58-2.33,3.94-1.75,5.54l.22,0C53.58,116.14,54.32,113.78,55.91,112.23ZM59,114.55l-.15-.14a4.52,4.52,0,0,0-1,3.29l.2,0A4.3,4.3,0,0,1,59,114.55Z"/><path class="cls-7" d="M58.83,114.42a21.18,21.18,0,0,0-2.92-2.19c-1.59,1.56-2.32,3.91-1.7,5.45a20.72,20.72,0,0,0,3.64,0A4.52,4.52,0,0,1,58.83,114.42Z"/><path class="cls-6" d="M52.54,110.54a5.78,5.78,0,0,0-1.6,6.58l.12,0,.12,0a5.67,5.67,0,0,1,1.58-6.57Z"/><path class="cls-6" d="M45.77,114l.25.29a1.75,1.75,0,0,0,2-.53,4.22,4.22,0,0,0,.27-3.89l-.21,0a4.07,4.07,0,0,1-.22,3.75A1.69,1.69,0,0,1,45.77,114Z"/><path class="cls-7" d="M46,114.31a9.91,9.91,0,0,0,4.26,2.61l.66.2a5.78,5.78,0,0,1,1.6-6.58l-.09,0a10.63,10.63,0,0,0-4.18-.63,4.22,4.22,0,0,1-.27,3.89A1.75,1.75,0,0,1,46,114.31Z"/><path class="cls-6" d="M47.29,113.16a2,2,0,0,1-1.74.55l.15.21a2,2,0,0,0,1.75-.63c.54-.65.58-1.77.14-3.32l-.2,0C47.91,111.85,47.63,112.74,47.29,113.16Z"/><path class="cls-7" d="M44.86,111.5a2.89,2.89,0,0,0,.68,2.21,2,2,0,0,0,1.74-.55c.35-.42.62-1.31.09-3.16A3.36,3.36,0,0,0,44.86,111.5Z"/><circle class="cls-8" cx="46.54" cy="111.33" r="0.55" transform="translate(-73.85 119.51) rotate(-71.2)"/><circle class="cls-6" cx="46.54" cy="111.33" r="0.34" transform="translate(-73.85 119.51) rotate(-71.2)"/><path class="cls-9" d="M44.82,112c.1,1.2,1.46,3.59,5.45,4.95a19.87,19.87,0,0,0,8.72.61,3.39,3.39,0,0,0,1.77,2.53c.7.24,1.82-.51,2.42-1.79C59.57,115.36,48.58,114,44.82,112Z"/><path class="cls-9" d="M50.28,116.92a20.19,20.19,0,0,0,8.47.66c-1.58-1.9-9.64-2.7-13.24-3.93A9.13,9.13,0,0,0,50.28,116.92Z"/><path class="cls-6" d="M51.41,116a2.73,2.73,0,0,1-1.47-2.45,2.73,2.73,0,0,1,2.66-1,1.86,1.86,0,0,1-1.19,3.5Z"/><path class="cls-7" d="M52.51,112.76a3.17,3.17,0,0,0-2.64.77,3.17,3.17,0,0,0,1.62,2.22,1.6,1.6,0,0,0,1-3Z"/><path class="cls-10" d="M51.89,110.66c1.29.46,3.33,1.24,3.13,1.72s-5.9-1-5.8-1.75C49.29,110.15,51,110.33,51.89,110.66Z"/><path class="cls-11" d="M35.71,46.94c.16.88-4.52,2-6.17,5.3a4.68,4.68,0,0,1,2.79-5.46C34.19,46.1,35.61,46.37,35.71,46.94Z"/><path class="cls-12" d="M37.12,33.61C34,31,25.13,25.8,19.65,29.07c-2.93,1.75,1.25,10.14-.23,9.25,0,0-1.72,2.86,4.64,1.42S37.12,33.61,37.12,33.61Z"/><path class="cls-12" d="M19.61,41.79c1-.38-3,5.93-1,7.61s7.32-1.16,12.27-1.64S24,40.64,24,40.64l-4.37.27Z"/><path class="cls-13" d="M46.44,42.59c0-1.12-3.72-.48-5.31-2.66s-1.92-7.39-9.66-8.82c-7.59-1.41-11.26-.75-10.6,3.53.52,3.37.61,4.19-.08,4.23-.91.05-5.69-3.35-5.69-3.35-1.53,3-1.43,6.74.16,8.86,0,0,4.74-3.2,5.75-3s-1.21,5.35,1,6.06,8.09.74,13-.24c3.73-.74,4.38-2.41,6.33-3.16C43.67,43.11,46.44,43.64,46.44,42.59Z"/><path class="cls-14" d="M23.51,30.64c-1.69.36-2.61,1.25-2.71,2.78,1.67.9,2,3.34,1.93,6.73s.81,5-1,7.11a1.28,1.28,0,0,0,.32.15,11.34,11.34,0,0,0,2.25.4c1.78-1.83,1.4-3.62,1.43-7.44S27.16,32.86,23.51,30.64Zm5.8.12q-1.32-.19-2.45-.27c3.53,3.25,1.74,6.59,2.28,10.15.48,3.15,1.37,5.55.91,7.17l1.21-.1c.82-2,.21-4.91-.09-7.27C30.87,37.85,32,33.89,29.32,30.76Zm4.59,1a14.45,14.45,0,0,0-1.76-.51c1.83,2.17.84,4.86,2.1,8.24s.43,6.18.44,7.74l.3-.06c.37-.07.71-.16,1-.25.63-1.49,1.23-2.49,1.1-4.32C37,40.63,36.62,35.21,33.91,31.77Zm5,4a10,10,0,0,0-1-1.32,24.34,24.34,0,0,1,.54,5c.11,2,.24,4.1,1.26,5.49l.54-.37C40,43.3,40,39.36,39,35.77Z"/><circle class="cls-15" cx="39.28" cy="40.25" r="1.03"/><circle class="cls-6" cx="39.28" cy="40.25" r="0.73"/><circle class="cls-16" cx="23.41" cy="33.39" r="1.27"/><circle class="cls-6" cx="23.41" cy="33.39" r="1.05"/><path class="cls-17" d="M27.08,41.91a26.59,26.59,0,0,0-7.82,1.48c-.75,1.9-1.94,4.92-.69,6,1.94,1.68,7.32-1.16,12.27-1.64h0A39.26,39.26,0,0,0,35,47.18c3.73-.74,4.38-2.41,6.33-3.16,2.36-.91,5.12-.37,5.12-1.42a.44.44,0,0,0,0-.13C40.84,42.67,33.37,41.48,27.08,41.91Z"/><path class="cls-17" d="M30.86,47.75A39.26,39.26,0,0,0,35,47.18a9.87,9.87,0,0,0,4.54-2.1c-7.6,1.67-15.87-.33-21.4,1.8a2.63,2.63,0,0,0,.44,2.51c1.94,1.68,7.32-1.16,12.27-1.64Z"/><path class="cls-10" d="M29.18,31.91c4.2.43,7.34,1.84,8.27,3.69S32.83,38,28.51,37.54c-4.74-.48-7.71-2.24-6.86-4.5C22.44,31,25.91,31.57,29.18,31.91Z"/><path class="cls-12" d="M17.2,37c-1.14-.75-2.11-1.44-2.11-1.44-1.53,3-1.43,6.74.16,8.86,0,0,.54-.36,1.29-.84A10.77,10.77,0,0,1,17.2,37Z"/><path class="cls-12" d="M37.44,45.65c.31.84-4.13,2.73-5.22,6.24A4.68,4.68,0,0,1,34.08,46C35.79,45.07,37.24,45.1,37.44,45.65Z"/><path class="cls-18" d="M97.06,92.78c1,.14-1-2.11-.65-4.15.71-3.75,9.77-6.61,20.58-1.93s-14.39,7.36-18.35,7.06S97.06,92.78,97.06,92.78Z"/><path class="cls-18" d="M96.82,97.2c.82-.3-3.8,6.63,4.21,7.5s11-2,11-2-12.27-7.1-14.3-6.95S96.82,97.2,96.82,97.2Z"/><path class="cls-6" d="M98.09,92.92c1.27,0,4.92-7.23,13.84-7.23s15.41,9.43,15.41,11-6.59,8.05-15,8.05c-12.47,0-12.93-7.8-14.7-7.8-.81,0-2.38,1.67-4.16,1.67-1.25,0-1.87-1.83-1.87-3.55S92.21,91,93.37,91,95.81,92.92,98.09,92.92Z"/><path class="cls-18" d="M96,92.34c-1.07-.58-1.86-1.38-2.6-1.38C92.21,91,91.6,93.29,91.6,95s.62,3.55,1.87,3.55a5.29,5.29,0,0,0,2.6-.93A10,10,0,0,1,96,92.34Z"/><path class="cls-6" d="M98.36,90.26c-.38-.15-1.11.24-1.09.66s.37,1.18.94,1.14S98.75,90.42,98.36,90.26Zm1.9-1.24a1.26,1.26,0,0,0-1.47.64c-.15.41.59,1.27,1,1.05S100.71,89.27,100.26,89Zm.81.15c0,.41,1.5-.24,1.23-.7S101.06,88.84,101.07,89.18Zm-3.44.44c.43.31,1.52-1.07,1.24-1.66s-1.24-.28-1.55,0S97.24,89.33,97.64,89.62Zm1.59-2.38c.37-.17.59-.88.3-1s-.78.26-.9.5S98.85,87.4,99.23,87.23Zm2.8-1.8c0,.59.73,1,1.25.95s1.18-1.07.88-1.35S102,84.84,102,85.43Zm6-.56c-.26.17,0,.69.38.75s1.63-.09,1.63-.31A2.7,2.7,0,0,0,108.07,84.88Zm-1.62-.2c-.38.2.19,1.53,1,1.31S107,84.37,106.45,84.68Zm-5.84,1.38c-.57.24-.85,1.92-.39,2.23s2.12-.21,2.14-1.16S101.17,85.82,100.61,86.06Zm4.91-1.18c-.62-.18-1.24,1-1,1.37.13.22,1.13.5,1.49.14S105.86,85,105.52,84.88Zm-2.63,2.25c-.19.33-.08.91.52.72s.93-.63.81-1S103.12,86.72,102.88,87.12Z"/><path class="cls-6" d="M102.38,103.49c.4-.4-.71-1.68-1.3-1.85a.85.85,0,0,0-1,1C100.2,103.28,102,103.9,102.38,103.49ZM96.85,100c-.36.21-.24,1.42,0,2s1.12,0,1.1-.45C97.93,100.89,97.08,99.85,96.85,100Zm1.23.45c0,.71.9,1.68,1.23,1.63.73-.1.81-1.32.64-1.63C99.58,99.73,98.12,99.93,98.08,100.44Zm.71-1c.33-.71-.93-2.05-1.35-1.87s-.5,1.16-.26,1.78C97.33,99.72,98.55,100,98.79,99.42Zm6,4.57c-.33-.31-1.19-.9-1.77-.58-.22.12-.07,1.3,1.12,1.16C104.6,104.52,105.1,104.26,104.81,104Zm-6.73-1.91c-.4.24-.28.94.21,1.39.32.3,1.26.68,1.42,0S98.43,101.87,98.08,102.07Zm1.95,1.87c-.08.39,2.77.72,2.7.36S100.1,103.56,100,103.95Z"/><path class="cls-5" d="M104.74,100.34a5.35,5.35,0,0,0,1.34-.28,3.33,3.33,0,0,0,1.55-1.2,17.8,17.8,0,0,1,1.56-1.42,2.07,2.07,0,0,0,.66-1.71,3,3,0,0,0-.68-1.65A4.8,4.8,0,0,0,108,92.7c-.52-.39-1.09-.68-1.61-1.07a3.52,3.52,0,0,0-2.12-.63,13.56,13.56,0,0,0-1.82.12c-.5.07-1,0-1.5.1s-1.13.65-1.72.86l-.42.4a1.92,1.92,0,0,0,.95-.22,4.13,4.13,0,0,1,1.49-.56c.93,0,1.84.13,2.76,0a2.79,2.79,0,0,1,2.14.27c.5.37.69,1,1.16,1.36s1.26.71,1.56,1.31a1.82,1.82,0,0,1,.19.85,2,2,0,0,1-.32.88,2.2,2.2,0,0,1-.53.73,5.7,5.7,0,0,0-.71.59c-.49.59-.76,1.38-1.46,1.78a2.35,2.35,0,0,1-1.17.25,6.11,6.11,0,0,0-1.27.28c-.5.13-1,.31-1.51.4a.94.94,0,0,1-.82-.23A6.55,6.55,0,0,1,100.23,99c-.24-.27-.4-.64-.77-.75a1.45,1.45,0,0,0-.46,0l.21.31a.94.94,0,0,1,.66.39,12.06,12.06,0,0,0,.82,1.12,2,2,0,0,0,1.29.63,7.91,7.91,0,0,0,1.7-.3A10,10,0,0,1,104.74,100.34ZM112.28,96a6.81,6.81,0,0,0-.06-2.17,7.24,7.24,0,0,1-.27-1.08,2.15,2.15,0,0,0-.21-.91,10.28,10.28,0,0,0-1.32-1.43,4,4,0,0,0-1.51-.88c-.44-.2-1.07-.34-1.36-.71a3.38,3.38,0,0,0-1.36-.89,1.22,1.22,0,0,0-.76-.2c-.28,0-.53.15-.82.16a2.88,2.88,0,0,1-.39,0l-.36.22c.3.61,1.66,0,2.2.1.35.09.64.54.89.79a3.18,3.18,0,0,0,1.44.95,4.79,4.79,0,0,1,2.25,1.25,2.81,2.81,0,0,1,.9,1.76c0,.42,0,.85,0,1.28s.08.79.08,1.2a11.62,11.62,0,0,1-.22,1.59,5,5,0,0,1-.33,1.25,6.63,6.63,0,0,1-1.39,2,24.6,24.6,0,0,0-1.45,2,1.61,1.61,0,0,1-.89.6c-.36.1-.73.27-1.09.36a8.4,8.4,0,0,1-1.89-.12l-.18,0c.35.17.72.33,1.12.48a5.25,5.25,0,0,0,.91.07,4.49,4.49,0,0,0,1.9-.79,2.13,2.13,0,0,0,.79-.63c.17-.26.23-.58.38-.85a2.59,2.59,0,0,1,.69-.63c.26-.22.49-.41.76-.6a3.3,3.3,0,0,0,1.14-1.76A10.6,10.6,0,0,0,112.28,96Zm-11.4,2.78a3,3,0,0,0,.85.21c.69.1,1.15-.31,1.78-.39.38,0,.72.11,1.1,0a6.56,6.56,0,0,0,1-.47,5,5,0,0,0,1.25-1.39c.26-.33.18-.53.09-.91a5,5,0,0,0-.16-.74,2.57,2.57,0,0,0-.43-.69c-.15-.18-.28-.38-.44-.57a2.92,2.92,0,0,0-1.63-.84,2.89,2.89,0,0,0-.83-.12,1.42,1.42,0,0,1-.84-.25,2.44,2.44,0,0,0-1.62-.3,5.9,5.9,0,0,0-1,.32,4,4,0,0,1-.67.29,1,1,0,0,1-.83-.11l-.15.08c.19.24.8.3,1,.32a4.28,4.28,0,0,0,1.46-.36,1.94,1.94,0,0,1,1.45,0c.21.13.35.38.54.53s.67.14,1,.14a2.91,2.91,0,0,1,1.73.39,2.28,2.28,0,0,1,.64,1.42c.11.74-.42,1.39-.65,2.06s-.9.52-1.55.69c-.4.11-.82.16-1.22.26a2.24,2.24,0,0,1-.77.12c-.61-.07-.84-.67-1.4-.8a3.24,3.24,0,0,1-.73-.18,3.59,3.59,0,0,0-.73-.33A2.44,2.44,0,0,0,98,97a1.38,1.38,0,0,1,.26.21h.16a1.37,1.37,0,0,1,.58.27c.4.26.81.48,1.21.73C100.44,98.39,100.62,98.62,100.88,98.76Zm-1.15-2.12c.21.12.47.12.68.26s.39.51.63.6a2,2,0,0,0,.8-.06c.34-.06.66-.14,1-.17a1.12,1.12,0,0,0,.77-.27,2.46,2.46,0,0,0,.77-1.57c-.09-.85-1-.65-1.65-.84-.31-.09-.35-.24-.59-.39a2.7,2.7,0,0,0-.91-.3,1.17,1.17,0,0,0-.79.17,2.37,2.37,0,0,1-.72.1c-.65.1-.71,1-.71,1a1.74,1.74,0,0,0,.2,1A1.58,1.58,0,0,0,99.73,96.64Zm.6-2.1c.26-.09.41,0,.69,0a3.46,3.46,0,0,1,.69.08c.24.06.46.21.7.27a4.93,4.93,0,0,1,.78.16.69.69,0,0,1,.27,1.15,1.63,1.63,0,0,1-1.2.39,2.19,2.19,0,0,0-.72.12c-.21.07-.4.22-.62.15a2.23,2.23,0,0,1-.9-.63,5.35,5.35,0,0,1-.4-.43,1.77,1.77,0,0,1-.16-.56C99.47,94.87,100,94.68,100.33,94.54Zm14.51-.26a15,15,0,0,1-.47-1.83c-.1-.65,0-1.31-.08-2a6,6,0,0,0-.49-1.62,1.52,1.52,0,0,0-.51-.74c-.28-.19-.62-.31-.9-.49a7.57,7.57,0,0,1-1.22-.84,4.3,4.3,0,0,1-.6-.57,1.84,1.84,0,0,0-.33-.45l-.63.08c-.11.69.63.79,1.11,1.17a14.27,14.27,0,0,0,1.74,1.12,2.66,2.66,0,0,1,1.17,1.34,6.5,6.5,0,0,1,.06,1.84c0,.72.08,1.42.08,2.14a7.19,7.19,0,0,0,.6,2c.43,1.38-.21,3-.79,4.3a8,8,0,0,0-.62,1.59,7.85,7.85,0,0,1-.7,1.89c-.26.5-.7.88-1,1.37v0l.65,0a6,6,0,0,0,1.2-1.22,10.23,10.23,0,0,0,.47-.91,5.29,5.29,0,0,0,.24-1,3.89,3.89,0,0,1,.69-1.62,2.93,2.93,0,0,0,.58-1.61,14.58,14.58,0,0,0,.14-2.11A8.15,8.15,0,0,0,114.84,94.28Zm10.88-.51,0-.09-.2-.26a2.81,2.81,0,0,1-.63,1.43c-.39.42-1,.65-1.27,1.14a2,2,0,0,0-.1,1.54,4.39,4.39,0,0,1,.32,1.51,2.74,2.74,0,0,0,.08,1.06,2.06,2.06,0,0,0,.17.32l.35-.28h0a1.86,1.86,0,0,1-.07-.68c0-.54.22-1,.22-1.48s-.36-.91-.38-1.43a1.9,1.9,0,0,1,.71-1.43A3.31,3.31,0,0,0,125.72,93.76Zm-9.15,1.61a4.73,4.73,0,0,1,.16,2.05,4.22,4.22,0,0,0,.2-3.33,10.53,10.53,0,0,0-.63-1.59,2.12,2.12,0,0,1,.07-1.58,5.65,5.65,0,0,0,.58-3.21,4.17,4.17,0,0,0-.65-1.28q-.47-.16-1-.29a1.58,1.58,0,0,0,.18.52c.14.2.31.41.45.6a2.76,2.76,0,0,1,.32,1,3.57,3.57,0,0,1-.25,2.14c-.12.37-.12.76-.22,1.12a3.66,3.66,0,0,0-.1,1.26,3.13,3.13,0,0,0,.16.84c.08.18.24.3.33.47A4.61,4.61,0,0,1,116.56,95.37Zm9.87-.25.16-.23-.3-.46a7.76,7.76,0,0,1-.46.67,2.64,2.64,0,0,0-.68.82c-.27.74.24,1.45.49,2.08a9.51,9.51,0,0,1,.14,1l.34-.35c0-.11,0-.2,0-.24a2.35,2.35,0,0,0-.22-1.14.84.84,0,0,1-.1-1A9.22,9.22,0,0,1,126.43,95.13Zm-7.89,4.34a1.69,1.69,0,0,1-.22.71c-.3.54-.85.73-1.23,1.18a3.84,3.84,0,0,0-.8,2.21,2.29,2.29,0,0,1-.12.68l.47-.11a4.78,4.78,0,0,1,.09-.59,4.42,4.42,0,0,1,.6-1.89c.39-.48,1-.55,1.28-1.15a3.1,3.1,0,0,0,0-1.53C118.5,99.11,118.55,99.29,118.53,99.47Zm1.7-11.05.18.36a2.54,2.54,0,0,1,.24,1.22,1.22,1.22,0,0,1-.18.9c-.17.24-.39.44-.55.68a5.25,5.25,0,0,0-.81,4.82c.27.74.44,1.51.73,2.24.19.49.48,1,.63,1.46a2.61,2.61,0,0,1-.16,1.67,5,5,0,0,0-.41,1.22l.27-.12a1.57,1.57,0,0,1,.07-.55c.2-.54.66-.89.8-1.47a2.52,2.52,0,0,0-.32-1.78,7.84,7.84,0,0,1-.81-1.89,11.13,11.13,0,0,1-.36-2,3.34,3.34,0,0,1,.47-2c.3-.57.81-1,1.08-1.62a4.41,4.41,0,0,0,.38-1.73,2.83,2.83,0,0,0,0-.6C121,89,120.64,88.69,120.23,88.41Z"/><path class="cls-19" d="M114.85,102.49a4.93,4.93,0,0,1-.52,1.23,1.15,1.15,0,0,1-.37.56c-.22.15-.48.11-.71.22a1,1,0,0,0-.28.19q.64,0,1.26-.1c.21-.46.7-.65.89-1.14a12.15,12.15,0,0,0,.24-1.22,3.28,3.28,0,0,0,.22-1.12C115,100.82,114.9,102.2,114.85,102.49Zm-5.11-3.66a4.46,4.46,0,0,0,.63-.88,5.23,5.23,0,0,0,.12-4.35,6.06,6.06,0,0,0-.61-1,5.92,5.92,0,0,0-.6-.92,12.26,12.26,0,0,0-1.22-1.27,4.84,4.84,0,0,0-2.88-.78,20.28,20.28,0,0,1-2.21.09c-.34,0-.68-.16-1-.21l-.52.46h0c1.1.08,2.22,0,3.31,0a5.14,5.14,0,0,1,1,.09,6.81,6.81,0,0,1,.79.34,3.4,3.4,0,0,1,.76.28c.25.16.45.38.71.53a2.89,2.89,0,0,1,.83.6,5.92,5.92,0,0,1,.46.87,14.41,14.41,0,0,1,.88,1.65,3.55,3.55,0,0,1,.25,1.81c0,.24,0,.52,0,.76a1.49,1.49,0,0,1-.35.6c-.33.45-.62.94-.94,1.41s-.82.7-1.11,1.15a2.35,2.35,0,0,1-.54.72,7.3,7.3,0,0,1-1,.56,4.33,4.33,0,0,1-1.58.28,15.1,15.1,0,0,1-1.85,0,5.26,5.26,0,0,0-1.37-.07l.43.35.4,0c.44,0,.86.12,1.31.12a11.4,11.4,0,0,0,1.74.05,3.43,3.43,0,0,0,1.76-.86c.26-.24.48-.52.72-.78a8.88,8.88,0,0,1,1-.74A4.56,4.56,0,0,0,109.74,98.82ZM118.22,93a20,20,0,0,0,.93-2.08,8,8,0,0,0,0-2.22,4.43,4.43,0,0,0-.19-1.05l-.79-.42c.14.51.31,1,.46,1.54a4.2,4.2,0,0,1,.22,1.66,14.06,14.06,0,0,1-1,2.29,4.73,4.73,0,0,0-.07,2.44,5.93,5.93,0,0,0,.49,1.93C118.44,95.71,117.72,94.37,118.22,93Zm-5.16-.5a3.27,3.27,0,0,0-.46-1c-.16-.3-.23-.64-.38-1s-.27-.48-.4-.72a1.92,1.92,0,0,0-.76-.69,5.23,5.23,0,0,1-1.83-1.73c-.11-.23-.25-.46-.35-.69s-.08-.46-.16-.67l-.43.1a1.44,1.44,0,0,0,0,.22,2.65,2.65,0,0,0,.17.58,4.2,4.2,0,0,0,1,1.61c.42.45,1,.72,1.42,1.12a2.9,2.9,0,0,1,.44.58,7.71,7.71,0,0,0,.61.66,4.39,4.39,0,0,1,.63,1.75,9.32,9.32,0,0,1,.25,1c0,.37,0,.74.12,1.1a3.14,3.14,0,0,1,.05,2.07,2.36,2.36,0,0,0-.22.87,6.07,6.07,0,0,1-.2,1.1,3.36,3.36,0,0,1-1,1.66,5.51,5.51,0,0,0-1.06,1.25,3.44,3.44,0,0,0-.27,1.1,2.06,2.06,0,0,1-.4.89,4.38,4.38,0,0,1-.49.69l-.16.15.57.06c.73-.63.92-2.18,1.31-2.87a6.19,6.19,0,0,1,.73-.92c.23-.27.34-.59.58-.86a5.86,5.86,0,0,0,1-2.32C113.81,95.94,113.36,94.15,113.06,92.5Zm-7,5.77a1.87,1.87,0,0,1-.72.49c-.24.12-1.22.39-1.18.69a1.62,1.62,0,0,0,1.14-.26l.54-.45c.26-.2.57-.34.82-.56a3.78,3.78,0,0,0,.78-1.26A5,5,0,0,0,108,95.8a2,2,0,0,0-.29-1,2.28,2.28,0,0,0-.49-.94,3.64,3.64,0,0,1-.75-.74,1.28,1.28,0,0,0-.65-.61,8.88,8.88,0,0,0-1-.28c-.28-.08-.65-.25-.93-.06l0,.09a1.08,1.08,0,0,1,.51.06c.17.1.23.3.44.37.38.13.73,0,1.1.27a5,5,0,0,1,.78.84,2.62,2.62,0,0,1,.64.92,3.11,3.11,0,0,1-.78,2.91A4.94,4.94,0,0,0,106.08,98.27Zm7.23-11.67a9.25,9.25,0,0,0,.93.81,3,3,0,0,1,.89,2.45c.51-.06-.18-2-.29-2.34-.17-.46-.42-.53-.73-.83a2.06,2.06,0,0,1-.39-.87q-.54-.08-1.09-.11a.83.83,0,0,0,.07.22A3.09,3.09,0,0,0,113.32,86.6ZM103.2,95.77a6.76,6.76,0,0,1-.95-.06c-.35-.07-.41-.37-.7-.48a2.47,2.47,0,0,0-1.64.25l-.12,0c.21.16.63,0,.89,0a1.45,1.45,0,0,1,.92.23C101.8,95.86,103.3,96.27,103.2,95.77Zm.2,1.78c-.25.16-.47.35-.05.41a1.1,1.1,0,0,0,.77-.28,4.75,4.75,0,0,0,.65-.7,2.59,2.59,0,0,0,.6-.78c.24-.54,0-.81-.11-1.33s0-.41-.44-.53a4.84,4.84,0,0,0-1.09-.37h0c.11.32.47.48.72.72a1.52,1.52,0,0,1,.37,1.1C104.82,96.68,104.07,97.12,103.4,97.55Zm21.58,0a1.32,1.32,0,0,0-.06-.21Zm-6.62,4.93a11.74,11.74,0,0,0-.46,1.3h0l.55-.19a5,5,0,0,1,.35-1.15,5.53,5.53,0,0,1,.39-.81c.13-.21.42-.4.36-.69C119,100.84,118.52,102.11,118.36,102.46Zm4.39-9.34a2.11,2.11,0,0,0-.49,1.53,2.9,2.9,0,0,1,.78-1.4c.3-.31.72-.51,1-.8a3.86,3.86,0,0,0,.35-.38l-.33-.36C123.73,92.23,123.16,92.61,122.75,93.12Zm2.54,5.79a5.87,5.87,0,0,0-.31-1.38,4.62,4.62,0,0,1-.07,1.38c0,.29,0,.6,0,.88l.4-.36A4.29,4.29,0,0,0,125.29,98.91ZM122,92.8a2.5,2.5,0,0,0,.89-1.28,2.87,2.87,0,0,0,0-1l-.62-.56a2,2,0,0,1,0,.21,8.45,8.45,0,0,1-.18,1.07,6.24,6.24,0,0,1-.19.83,4,4,0,0,1-.51.81c-.41.64-.88,1.64-.27,2.28a2.37,2.37,0,0,1,.06-1.13A3.28,3.28,0,0,1,122,92.8Zm.32,4.93c-.17-.42-.49-.74-.67-1.15,0,.42.29.73.46,1.06a4.26,4.26,0,0,1,.37,1.86c0,.44-.07.85-.12,1.28s0,.6-.08.9q.51-.31,1-.64a4,4,0,0,0-.4-2C122.68,98.63,122.52,98.19,122.33,97.73Zm-.06-2.92c0-.06,0-.11,0-.17A.8.8,0,0,0,122.26,94.81Z"/><circle class="cls-20" cx="122.96" cy="94.15" r="1.37"/><circle class="cls-6" cx="122.96" cy="94.15" r="0.92"/><path class="cls-21" d="M119.9,90.38c0,1.74-3.7,2.54-8.26,2.54s-8.26-.81-8.26-2.54,4-3.75,8.56-3.75S119.9,88.64,119.9,90.38Z"/><path class="cls-22" d="M126.89,97.66c-7.9.58-21.63-1.94-30.45,1.35-.49,2-.58,5.12,4.59,5.68a21.32,21.32,0,0,0,7.31-.31,24,24,0,0,0,4,.31C119.45,104.7,125.27,100,126.89,97.66Z"/><path class="cls-22" d="M96.37,101.78c.38,1.36,1.6,2.58,4.66,2.91a21.32,21.32,0,0,0,7.31-.31,24,24,0,0,0,4,.31,19.79,19.79,0,0,0,12-4.45C116.25,101.17,103.49,98.6,96.37,101.78Z"/><path class="cls-23" d="M37.69,91.54a3.27,3.27,0,0,0,.46,0l.26,0a.77.77,0,0,0,.36-.18A.79.79,0,0,0,39,91a1.78,1.78,0,0,0,.05-.26,3.45,3.45,0,0,0,0-.46A6.51,6.51,0,0,0,39,89.4a6.9,6.9,0,0,0-.44-1.66,16.91,16.91,0,0,0-.14,1.69c0,.28,0,.55-.05.81s0,.26,0,.38a1.21,1.21,0,0,1,0,.15v0h0l-.15,0-.38,0c-.27,0-.54,0-.82,0a16.74,16.74,0,0,0-1.69,0,7,7,0,0,0,1.63.55A6.53,6.53,0,0,0,37.69,91.54Zm9.84,6.91a1.21,1.21,0,0,1,0,.16.07.07,0,0,1,0,0h0l-.14.06L47,98.8c-.25.07-.53.12-.79.18a16.75,16.75,0,0,0-1.64.42,7,7,0,0,0,1.71.16,6.52,6.52,0,0,0,.87-.07,3.23,3.23,0,0,0,.45-.1l.25-.1a.77.77,0,0,0,.31-.26.79.79,0,0,0,.11-.38,1.82,1.82,0,0,0,0-.26,3.39,3.39,0,0,0-.08-.45,6.49,6.49,0,0,0-.27-.83,6.91,6.91,0,0,0-.82-1.51,16.9,16.9,0,0,0,.26,1.68c0,.27.11.54.14.8S47.52,98.34,47.52,98.46Zm-7.66-4.83a3.25,3.25,0,0,0,.46,0l.26-.06a.77.77,0,0,0,.34-.21.79.79,0,0,0,.16-.37,1.81,1.81,0,0,0,0-.26,3.44,3.44,0,0,0,0-.46,6.52,6.52,0,0,0-.15-.86,6.91,6.91,0,0,0-.59-1.61,16.88,16.88,0,0,0,0,1.69c0,.28,0,.55,0,.81s0,.26,0,.38a1.2,1.2,0,0,1,0,.16v0h0l-.15,0-.37.05c-.26,0-.54,0-.81.07a16.74,16.74,0,0,0-1.69.17,7,7,0,0,0,1.67.41A6.51,6.51,0,0,0,39.86,93.63Zm10.09,6.61a1.27,1.27,0,0,1,0,.16v0h0l-.14.05-.37.09c-.26.06-.53.1-.8.15a16.76,16.76,0,0,0-1.66.35,7,7,0,0,0,1.7.23,6.55,6.55,0,0,0,.87,0,3.27,3.27,0,0,0,.46-.08l.25-.09a.77.77,0,0,0,.32-.25.79.79,0,0,0,.12-.38,1.86,1.86,0,0,0,0-.26,3.46,3.46,0,0,0-.07-.46,6.51,6.51,0,0,0-.24-.84,6.91,6.91,0,0,0-.76-1.54,16.9,16.9,0,0,0,.19,1.68c0,.27.09.54.11.81S49.95,100.12,49.95,100.24Zm2.22,1.6c0,.13,0,.26,0,.38a1.19,1.19,0,0,1,0,.16v0h0l-.15,0-.37.07c-.26,0-.54.06-.81.09a16.82,16.82,0,0,0-1.68.23,7,7,0,0,0,1.68.35,6.52,6.52,0,0,0,.87,0,3.25,3.25,0,0,0,.46,0l.26-.07a.77.77,0,0,0,.34-.22.79.79,0,0,0,.15-.37,1.8,1.8,0,0,0,0-.26,3.43,3.43,0,0,0,0-.46,6.48,6.48,0,0,0-.18-.85,6.92,6.92,0,0,0-.64-1.59,16.87,16.87,0,0,0,.07,1.69C52.13,101.3,52.17,101.58,52.17,101.84Zm4.35,4.64c0,.13-.06.26-.09.37a1.08,1.08,0,0,1-.05.15v0h-.16l-.38,0c-.26,0-.53-.07-.81-.1a16.82,16.82,0,0,0-1.69-.18,7,7,0,0,0,1.55.75,6.5,6.5,0,0,0,.84.24,3.28,3.28,0,0,0,.46.06h.27a.73.73,0,0,0,.4-.15.8.8,0,0,0,.14-.17,1.08,1.08,0,0,0,.07-.14,1.68,1.68,0,0,0,.08-.25,3.49,3.49,0,0,0,.08-.46,6.51,6.51,0,0,0,0-.87A6.92,6.92,0,0,0,57,104a16.94,16.94,0,0,0-.34,1.66C56.62,105.95,56.58,106.22,56.52,106.48Zm-2.22-2.56c0,.13,0,.26,0,.38a1.22,1.22,0,0,1,0,.15v0h0l-.15,0-.38,0c-.26,0-.54,0-.82,0a16.77,16.77,0,0,0-1.7,0,7,7,0,0,0,1.63.55,6.56,6.56,0,0,0,.86.13,3.31,3.31,0,0,0,.46,0l.26,0a.78.78,0,0,0,.36-.18.79.79,0,0,0,.19-.35,1.83,1.83,0,0,0,.05-.26,3.43,3.43,0,0,0,0-.46,6.48,6.48,0,0,0-.08-.87,6.92,6.92,0,0,0-.45-1.66,16.89,16.89,0,0,0-.13,1.69C54.33,103.38,54.33,103.65,54.3,103.92ZM35.69,89.24a3.23,3.23,0,0,0,.46,0h.27a.73.73,0,0,0,.39-.16.79.79,0,0,0,.14-.17,1.1,1.1,0,0,0,.07-.14,1.68,1.68,0,0,0,.08-.25,3.5,3.5,0,0,0,.06-.46,6.53,6.53,0,0,0,0-.87,6.9,6.9,0,0,0-.3-1.69,16.94,16.94,0,0,0-.28,1.67c0,.27-.07.55-.12.81s0,.26-.08.37a1.1,1.1,0,0,1,0,.15v0h-.54c-.27,0-.54-.05-.81-.07a16.7,16.7,0,0,0-1.69-.12,7,7,0,0,0,1.57.69A6.51,6.51,0,0,0,35.69,89.24ZM62.4,117.79c-.07.11-.14.22-.21.31l-.1.12h0l-.15,0-.35-.15c-.24-.11-.48-.25-.72-.38a16.74,16.74,0,0,0-1.52-.75,7.05,7.05,0,0,0,1.2,1.23,6.47,6.47,0,0,0,.71.51,3.23,3.23,0,0,0,.41.22l.25.09a.71.71,0,0,0,.42,0,.79.79,0,0,0,.19-.11l.12-.11a1.69,1.69,0,0,0,.17-.21,3.51,3.51,0,0,0,.23-.4,6.54,6.54,0,0,0,.33-.81,6.93,6.93,0,0,0,.36-1.68,17,17,0,0,0-.89,1.44C62.67,117.32,62.55,117.57,62.4,117.79Zm-1.1-2.85c-.07.11-.13.23-.2.32l-.09.12,0,0h0l-.15,0-.35-.14c-.25-.1-.49-.23-.74-.34a16.77,16.77,0,0,0-1.55-.68,7,7,0,0,0,1.25,1.18,6.53,6.53,0,0,0,.73.48,3.26,3.26,0,0,0,.42.2l.25.08a.7.7,0,0,0,.42,0,.8.8,0,0,0,.19-.12l.11-.11a1.68,1.68,0,0,0,.16-.21,3.5,3.5,0,0,0,.21-.41,6.46,6.46,0,0,0,.29-.82,6.91,6.91,0,0,0,.28-1.7,16.89,16.89,0,0,0-.83,1.48C61.55,114.46,61.43,114.71,61.3,114.94Zm-20-19.32a6.53,6.53,0,0,0,.87,0,3.25,3.25,0,0,0,.46-.07l.25-.08a.77.77,0,0,0,.32-.24.79.79,0,0,0,.13-.38,1.81,1.81,0,0,0,0-.26,3.42,3.42,0,0,0-.05-.46,6.49,6.49,0,0,0-.22-.84,6.91,6.91,0,0,0-.72-1.56,16.93,16.93,0,0,0,.15,1.69c0,.28.07.55.09.81s0,.26,0,.38a1.23,1.23,0,0,1,0,.16v0a.64.64,0,0,1-.15.05l-.37.08c-.26.06-.53.08-.8.13a16.87,16.87,0,0,0-1.67.31A7,7,0,0,0,41.29,95.62Zm17,13.66c0,.13-.07.25-.12.36a1.13,1.13,0,0,1-.06.14v0H58l-.37-.05c-.26,0-.53-.11-.8-.16a16.75,16.75,0,0,0-1.67-.3,7,7,0,0,0,1.49.85,6.53,6.53,0,0,0,.82.3,3.27,3.27,0,0,0,.45.1l.27,0a.73.73,0,0,0,.4-.12.79.79,0,0,0,.15-.16l.08-.14a1.69,1.69,0,0,0,.1-.24,3.43,3.43,0,0,0,.11-.45,6.51,6.51,0,0,0,.09-.87,6.91,6.91,0,0,0-.12-1.71,16.88,16.88,0,0,0-.46,1.63C58.47,108.76,58.42,109,58.34,109.28ZM59.88,112c-.05.12-.1.24-.16.34l-.08.13v0h0l-.15,0-.37-.1c-.26-.07-.51-.17-.77-.26a16.83,16.83,0,0,0-1.62-.5,7,7,0,0,0,1.38,1,6.48,6.48,0,0,0,.78.39,3.31,3.31,0,0,0,.44.15l.26,0a.7.7,0,0,0,.42-.07.8.8,0,0,0,.17-.14l.1-.13a1.7,1.7,0,0,0,.13-.23,3.5,3.5,0,0,0,.17-.43,6.52,6.52,0,0,0,.2-.85,6.92,6.92,0,0,0,.09-1.72,16.87,16.87,0,0,0-.65,1.56C60.07,111.53,60,111.8,59.88,112Zm3.44,8.51c-.08.11-.15.21-.23.3L63,121h0l-.14-.05-.34-.17c-.24-.12-.47-.27-.71-.41a16.88,16.88,0,0,0-1.49-.81,7,7,0,0,0,1.14,1.28,6.51,6.51,0,0,0,.68.54,3.3,3.3,0,0,0,.4.23l.25.1a.74.74,0,0,0,.4,0,.79.79,0,0,0,.34-.21,1.84,1.84,0,0,0,.17-.2,3.45,3.45,0,0,0,.25-.39,6.48,6.48,0,0,0,.36-.79,6.91,6.91,0,0,0,.43-1.66,16.89,16.89,0,0,0-1,1.4C63.61,120.09,63.48,120.33,63.32,120.55ZM43.72,97.69a6.54,6.54,0,0,0,.87-.08,3.24,3.24,0,0,0,.45-.1l.25-.1a.77.77,0,0,0,.31-.26.79.79,0,0,0,.1-.39,1.82,1.82,0,0,0,0-.26,3.48,3.48,0,0,0-.09-.45,6.47,6.47,0,0,0-.28-.82,6.9,6.9,0,0,0-.83-1.5,16.89,16.89,0,0,0,.28,1.67c0,.27.11.54.15.8s0,.26,0,.38a1.29,1.29,0,0,1,0,.16.08.08,0,0,1,0,0h0l-.14.06-.36.11c-.25.08-.52.12-.79.19a16.72,16.72,0,0,0-1.64.44A7,7,0,0,0,43.72,97.69Zm20.46,25.56c-.08.1-.16.2-.25.29l-.11.11h0l-.14-.06-.33-.19c-.23-.14-.45-.3-.68-.45a16.81,16.81,0,0,0-1.43-.91,7,7,0,0,0,1.05,1.36,6.5,6.5,0,0,0,.65.58,3.3,3.3,0,0,0,.38.26l.24.11a.74.74,0,0,0,.4,0,.79.79,0,0,0,.35-.19,1.8,1.8,0,0,0,.19-.19,3.46,3.46,0,0,0,.27-.37,6.52,6.52,0,0,0,.42-.77,6.91,6.91,0,0,0,.54-1.63c-.39.43-.72.89-1,1.33C64.49,122.82,64.34,123,64.17,123.25Z"/><path class="cls-24" d="M68.83,137a18.45,18.45,0,0,1-1.93-3.37c-.54-1.18-1-2.39-1.45-3.61-.86-2.45-1.62-4.92-2.41-7.37s-1.63-4.88-2.64-7.24a40.13,40.13,0,0,0-3.56-6.75,31.92,31.92,0,0,0-4.91-5.8A74.66,74.66,0,0,0,46,98a61.07,61.07,0,0,1-6-5A33.65,33.65,0,0,1,35.15,87q1.18,1.54,2.48,3a36,36,0,0,0,2.76,2.69,72.68,72.68,0,0,0,6.1,4.71,65.34,65.34,0,0,1,6.15,4.8,32.31,32.31,0,0,1,5.13,6,40,40,0,0,1,3.6,7,75.22,75.22,0,0,1,2.49,7.39c.73,2.49,1.36,5,2.1,7.46A30.44,30.44,0,0,0,68.83,137Z"/><path class="cls-23" d="M34,112.44a3.29,3.29,0,0,0,.46,0l.26-.06a.78.78,0,0,0,.34-.22.79.79,0,0,0,.16-.37,1.81,1.81,0,0,0,0-.26,3.43,3.43,0,0,0,0-.46,6.47,6.47,0,0,0-.16-.86,6.9,6.9,0,0,0-.61-1.61c0,.58,0,1.14,0,1.7,0,.28,0,.55,0,.81s0,.26,0,.38a1.2,1.2,0,0,1,0,.16v0a.64.64,0,0,1-.16,0l-.37.06c-.26,0-.54,0-.81.08a16.63,16.63,0,0,0-1.68.2,7.06,7.06,0,0,0,1.68.38A6.57,6.57,0,0,0,34,112.44Zm2.63,2.28a3.28,3.28,0,0,0,.46-.07l.25-.08a.77.77,0,0,0,.32-.24.79.79,0,0,0,.13-.38,1.79,1.79,0,0,0,0-.26,3.36,3.36,0,0,0-.06-.46,6.44,6.44,0,0,0-.23-.84,6.91,6.91,0,0,0-.73-1.56c0,.58.09,1.14.16,1.69,0,.28.08.54.09.81s0,.26,0,.38a1.22,1.22,0,0,1,0,.16v0a.65.65,0,0,1-.15.06l-.37.09c-.26.06-.53.09-.8.14a16.74,16.74,0,0,0-1.66.33,7.05,7.05,0,0,0,1.7.25A6.54,6.54,0,0,0,36.61,114.72Zm-5.2-4.87a3.25,3.25,0,0,0,.46,0l.26,0,.16-.06a.65.65,0,0,0,.19-.13.79.79,0,0,0,.18-.35,1.86,1.86,0,0,0,0-.26,3.42,3.42,0,0,0,0-.46,6.45,6.45,0,0,0-.1-.87,6.91,6.91,0,0,0-.49-1.65,17,17,0,0,0-.1,1.69c0,.28,0,.55,0,.81s0,.26,0,.38a1.21,1.21,0,0,1,0,.15v0l-.16,0-.38,0c-.26,0-.54,0-.82,0a16.69,16.69,0,0,0-1.69.07,7.06,7.06,0,0,0,1.64.51A6.53,6.53,0,0,0,31.41,109.86Zm-2.11-2.73a3.29,3.29,0,0,0,.46.07H30a.73.73,0,0,0,.4-.15.8.8,0,0,0,.15-.17,1.08,1.08,0,0,0,.07-.14,1.71,1.71,0,0,0,.09-.25,3.52,3.52,0,0,0,.08-.45,6.44,6.44,0,0,0,0-.87,6.9,6.9,0,0,0-.23-1.7c-.16.56-.26,1.11-.36,1.66-.06.27-.09.54-.16.8s-.06.25-.1.37a1.07,1.07,0,0,1-.05.15v0h-.16l-.38,0c-.26,0-.53-.08-.81-.11a16.74,16.74,0,0,0-1.68-.19,7.07,7.07,0,0,0,1.54.76A6.6,6.6,0,0,0,29.3,107.12Zm9.88,9.58a3.25,3.25,0,0,0,.45-.11l.25-.1a.77.77,0,0,0,.3-.26.78.78,0,0,0,.1-.39,1.82,1.82,0,0,0,0-.26,3.42,3.42,0,0,0-.09-.45,6.46,6.46,0,0,0-.29-.82,6.9,6.9,0,0,0-.84-1.5c.06.58.17,1.13.29,1.67,0,.27.12.54.15.8s0,.26,0,.38a1.27,1.27,0,0,1,0,.16.07.07,0,0,1,0,0,.63.63,0,0,1-.15.07L39,116c-.25.08-.52.13-.79.2a16.7,16.7,0,0,0-1.64.45,7,7,0,0,0,1.71.13A6.52,6.52,0,0,0,39.18,116.7ZM25.82,101.23a3.3,3.3,0,0,0,.43.18l.26.06a.7.7,0,0,0,.42,0,.78.78,0,0,0,.18-.13l.11-.12a1.7,1.7,0,0,0,.14-.22,3.48,3.48,0,0,0,.19-.42,6.51,6.51,0,0,0,.25-.83A6.92,6.92,0,0,0,28,98a16.91,16.91,0,0,0-.75,1.52c-.12.25-.22.5-.35.74s-.12.23-.18.33l-.09.13,0,0h0l-.15,0-.36-.12c-.25-.09-.5-.2-.76-.3a16.78,16.78,0,0,0-1.59-.6,7,7,0,0,0,1.31,1.11A6.49,6.49,0,0,0,25.82,101.23Zm1.51,2.94a3.32,3.32,0,0,0,.44.13l.26,0a.71.71,0,0,0,.41-.09.81.81,0,0,0,.17-.15l.09-.13a1.72,1.72,0,0,0,.12-.24,3.48,3.48,0,0,0,.14-.44,6.5,6.5,0,0,0,.15-.86,6.9,6.9,0,0,0,0-1.72,16.94,16.94,0,0,0-.57,1.6c-.09.26-.16.53-.26.77s-.09.25-.14.35l-.07.14v0h0l-.15,0-.37-.08c-.26-.06-.52-.15-.79-.21a16.65,16.65,0,0,0-1.65-.41,7.07,7.07,0,0,0,1.43,1A6.51,6.51,0,0,0,27.33,104.18Zm16.62,15.57a3.31,3.31,0,0,0,.43-.17l.23-.14a.74.74,0,0,0,.26-.31.79.79,0,0,0,0-.4,1.83,1.83,0,0,0-.05-.26,3.42,3.42,0,0,0-.16-.43,6.47,6.47,0,0,0-.41-.77,6.91,6.91,0,0,0-1.07-1.35,16.94,16.94,0,0,0,.54,1.61c.09.26.2.51.27.77s.08.25.11.36a1.22,1.22,0,0,1,0,.16.08.08,0,0,1,0,0h0l-.13.08-.34.17c-.24.11-.5.21-.75.32a16.74,16.74,0,0,0-1.55.69,7.06,7.06,0,0,0,1.71-.14A6.55,6.55,0,0,0,43.95,119.74Zm7.51,3.43a3.3,3.3,0,0,0,.41-.22,1.63,1.63,0,0,0,.21-.16.74.74,0,0,0,.23-.33.78.78,0,0,0,0-.4,1.81,1.81,0,0,0-.08-.25,3.45,3.45,0,0,0-.2-.42,6.45,6.45,0,0,0-.49-.72,6.91,6.91,0,0,0-1.2-1.23c.21.54.46,1,.7,1.54.12.25.25.49.35.73s.11.24.14.35a1.2,1.2,0,0,1,0,.15v0h0l-.12.1c-.09.07-.21.13-.32.2s-.47.26-.71.39a16.74,16.74,0,0,0-1.47.85,7.06,7.06,0,0,0,1.69-.31A6.51,6.51,0,0,0,51.46,123.18Zm-2.41-1a3.31,3.31,0,0,0,.41-.21,1.61,1.61,0,0,0,.22-.15.74.74,0,0,0,.23-.33.79.79,0,0,0,0-.4,1.81,1.81,0,0,0-.07-.25,3.44,3.44,0,0,0-.19-.42,6.41,6.41,0,0,0-.47-.73A6.9,6.9,0,0,0,48,118.47a16.94,16.94,0,0,0,.66,1.56c.11.25.24.5.33.74s.1.24.13.35a1.25,1.25,0,0,1,0,.15v0h0l-.12.09-.33.19c-.23.13-.48.24-.72.37a16.8,16.8,0,0,0-1.49.81,7.06,7.06,0,0,0,1.7-.27A6.56,6.56,0,0,0,49.06,122.23Zm5,2a3.3,3.3,0,0,0,.42-.19l.22-.15a.74.74,0,0,0,.25-.32.79.79,0,0,0,0-.4,1.83,1.83,0,0,0-.06-.26,3.46,3.46,0,0,0-.18-.43,6.51,6.51,0,0,0-.44-.75,6.92,6.92,0,0,0-1.11-1.31c.17.56.38,1.08.6,1.59.1.26.22.51.3.76s.09.25.12.36a1.19,1.19,0,0,1,0,.15v0h0l-.13.09-.33.18c-.23.12-.49.22-.74.34a16.82,16.82,0,0,0-1.52.75,7,7,0,0,0,1.71-.2A6.55,6.55,0,0,0,54,124.21Zm1.43-2.65a16.94,16.94,0,0,0,.55,1.6c.09.26.2.51.28.77s.08.25.11.36a1.24,1.24,0,0,1,0,.15.08.08,0,0,1,0,0h0l-.13.08-.34.17c-.24.12-.5.21-.75.32a16.75,16.75,0,0,0-1.54.7,7.06,7.06,0,0,0,1.71-.15,6.53,6.53,0,0,0,.84-.22,3.29,3.29,0,0,0,.43-.18l.23-.14a.74.74,0,0,0,.26-.31.79.79,0,0,0,0-.4,1.82,1.82,0,0,0-.05-.26,3.41,3.41,0,0,0-.16-.43,6.51,6.51,0,0,0-.42-.77A6.91,6.91,0,0,0,55.45,121.55Zm-13.71-3.09a3.26,3.26,0,0,0,.44-.15l.23-.12a.74.74,0,0,0,.28-.29.79.79,0,0,0,.06-.39,1.87,1.87,0,0,0,0-.26,3.45,3.45,0,0,0-.14-.44,6.48,6.48,0,0,0-.37-.79,6.91,6.91,0,0,0-1-1.41c.12.57.28,1.11.45,1.63.07.27.17.52.23.78s.07.25.08.37a1.25,1.25,0,0,1,0,.16.08.08,0,0,1,0,0h0l-.13.08-.35.15c-.25.1-.51.18-.77.28a16.73,16.73,0,0,0-1.58.61,7.06,7.06,0,0,0,1.72,0A6.52,6.52,0,0,0,41.74,118.46ZM46.39,121a3.28,3.28,0,0,0,.42-.19l.22-.15a.74.74,0,0,0,.25-.32.79.79,0,0,0,0-.4,1.81,1.81,0,0,0-.06-.25,3.42,3.42,0,0,0-.18-.43,6.46,6.46,0,0,0-.44-.75,6.91,6.91,0,0,0-1.12-1.3c.17.55.39,1.07.61,1.58.1.26.22.5.31.75s.09.25.12.36a1.23,1.23,0,0,1,0,.15v0h0l-.13.09-.33.18c-.23.13-.49.23-.74.35a16.71,16.71,0,0,0-1.52.76,7.06,7.06,0,0,0,1.71-.21A6.55,6.55,0,0,0,46.39,121Z"/><path class="cls-24" d="M68.36,136.37c-.76-1-1.53-2-2.32-3s-1.62-1.94-2.5-2.84a29.82,29.82,0,0,0-5.81-4.74,30.59,30.59,0,0,0-3.3-1.76q-.85-.39-1.73-.72c-.58-.23-1.17-.42-1.78-.64a48.81,48.81,0,0,1-7-3.26A46.37,46.37,0,0,1,32,109.79a32.73,32.73,0,0,1-4.37-6.31,25.89,25.89,0,0,1-2.52-7.2,28.16,28.16,0,0,0,3,6.93,35.32,35.32,0,0,0,4.54,6,45.65,45.65,0,0,0,5.58,5,52.63,52.63,0,0,0,6.27,4.16,49.64,49.64,0,0,0,6.78,3.25c.57.22,1.19.44,1.78.68s1.19.5,1.77.78A27,27,0,0,1,58.22,125,28.14,28.14,0,0,1,64,130.14,48.71,48.71,0,0,1,68.36,136.37Z"/><path class="cls-23" d="M42,126.17a3.24,3.24,0,0,0,.46,0l.26-.06a.77.77,0,0,0,.34-.21.78.78,0,0,0,.16-.37,1.77,1.77,0,0,0,0-.26,3.44,3.44,0,0,0,0-.46,6.49,6.49,0,0,0-.15-.86,6.91,6.91,0,0,0-.59-1.61,16.87,16.87,0,0,0,0,1.69c0,.28,0,.55,0,.81s0,.26,0,.38a1.23,1.23,0,0,1,0,.16v0h0l-.15,0-.37.06c-.26,0-.54,0-.81.07a16.76,16.76,0,0,0-1.69.18,7,7,0,0,0,1.67.4A6.52,6.52,0,0,0,42,126.17Zm2.3,1.94a3.24,3.24,0,0,0,.46-.08l.25-.08a.77.77,0,0,0,.32-.24.79.79,0,0,0,.12-.38,1.81,1.81,0,0,0,0-.26,3.4,3.4,0,0,0-.06-.46,6.47,6.47,0,0,0-.23-.84,6.91,6.91,0,0,0-.74-1.55,16.87,16.87,0,0,0,.18,1.69c0,.27.08.54.1.81s0,.26,0,.38a1.19,1.19,0,0,1,0,.16v0h0l-.15.05-.37.09c-.26.06-.53.09-.8.15a16.81,16.81,0,0,0-1.66.34,7,7,0,0,0,1.7.24A6.53,6.53,0,0,0,44.26,128.11Zm-6.86-6.68a3.3,3.3,0,0,0,.46,0l.26,0a.73.73,0,0,0,.38-.17.79.79,0,0,0,.13-.17,1.1,1.1,0,0,0,.06-.15,1.7,1.7,0,0,0,.07-.25,3.46,3.46,0,0,0,.05-.46,6.54,6.54,0,0,0,0-.87,6.92,6.92,0,0,0-.35-1.68,16.86,16.86,0,0,0-.23,1.68c0,.27-.05.55-.1.81s0,.26-.07.37a1.09,1.09,0,0,1,0,.15v0h0l-.15,0h-.38c-.27,0-.54,0-.81-.05a16.84,16.84,0,0,0-1.69-.07,7,7,0,0,0,1.59.64A6.53,6.53,0,0,0,37.4,121.43ZM39.65,124a3.27,3.27,0,0,0,.46,0l.26,0a.78.78,0,0,0,.35-.19.79.79,0,0,0,.18-.35,1.81,1.81,0,0,0,0-.26,3.45,3.45,0,0,0,0-.46,6.46,6.46,0,0,0-.1-.87,6.9,6.9,0,0,0-.49-1.65,16.83,16.83,0,0,0-.09,1.69c0,.28,0,.55,0,.81s0,.26,0,.38a1.15,1.15,0,0,1,0,.15v0h0l-.15,0-.38,0c-.26,0-.54,0-.82,0a16.77,16.77,0,0,0-1.69.08,7,7,0,0,0,1.64.5A6.48,6.48,0,0,0,39.65,124Zm-4.34-5.38a3.32,3.32,0,0,0,.45.11l.26,0a.7.7,0,0,0,.41-.11.79.79,0,0,0,.16-.15l.09-.13a1.69,1.69,0,0,0,.11-.24,3.5,3.5,0,0,0,.13-.44,6.54,6.54,0,0,0,.13-.86,6.92,6.92,0,0,0-.06-1.72,16.91,16.91,0,0,0-.52,1.61c-.08.26-.14.53-.23.78s-.08.25-.13.36A1.05,1.05,0,0,1,36,118v0h-.16l-.37-.07c-.26,0-.52-.13-.79-.19a16.76,16.76,0,0,0-1.66-.36,7,7,0,0,0,1.46.91A6.49,6.49,0,0,0,35.31,118.62ZM49.92,131l.23-.14a.74.74,0,0,0,.26-.31.79.79,0,0,0,0-.4,1.83,1.83,0,0,0-.05-.26,3.46,3.46,0,0,0-.16-.44,6.44,6.44,0,0,0-.4-.77,6.91,6.91,0,0,0-1.05-1.36,17,17,0,0,0,.52,1.61c.09.26.19.52.27.77s.08.25.1.36a1.24,1.24,0,0,1,0,.16.08.08,0,0,1,0,0h0l-.13.08-.34.17c-.24.11-.5.2-.75.31a16.79,16.79,0,0,0-1.55.68,7,7,0,0,0,1.71-.12,6.52,6.52,0,0,0,.85-.21A3.32,3.32,0,0,0,49.92,131Zm6.1,1.72a1.62,1.62,0,0,0,.21-.17.74.74,0,0,0,.21-.34.79.79,0,0,0,0-.4,1.8,1.8,0,0,0-.09-.25,3.38,3.38,0,0,0-.22-.41,6.43,6.43,0,0,0-.52-.7,6.91,6.91,0,0,0-1.25-1.18,16.94,16.94,0,0,0,.77,1.51c.13.25.27.48.38.72s.12.23.16.34a1.27,1.27,0,0,1,.05.15v0h0l-.12.1c-.09.07-.2.14-.31.22s-.46.28-.7.42a16.75,16.75,0,0,0-1.43.91,7,7,0,0,0,1.67-.38,6.5,6.5,0,0,0,.8-.34A3.29,3.29,0,0,0,56,132.73Zm2.42-1.64a6.9,6.9,0,0,0-1.36-1c.28.51.6,1,.92,1.42.15.23.32.45.45.68s.14.22.19.33l.07.14v0h0l-.11.11c-.08.08-.19.16-.29.25s-.43.32-.65.49a16.79,16.79,0,0,0-1.33,1.05A7,7,0,0,0,58,134a6.52,6.52,0,0,0,.76-.42,3.31,3.31,0,0,0,.37-.27,1.64,1.64,0,0,0,.19-.19.74.74,0,0,0,.18-.36.79.79,0,0,0-.06-.39,1.81,1.81,0,0,0-.11-.24,3.43,3.43,0,0,0-.26-.38A6.5,6.5,0,0,0,58.44,131.1Zm-11.65-1.36a3.26,3.26,0,0,0,.45-.12l.24-.11a.77.77,0,0,0,.29-.28.79.79,0,0,0,.08-.39,1.8,1.8,0,0,0,0-.26,3.42,3.42,0,0,0-.11-.45,6.5,6.5,0,0,0-.32-.81,6.91,6.91,0,0,0-.9-1.46c.08.58.22,1.12.35,1.66.06.27.14.53.18.79s.05.26.06.37a1.24,1.24,0,0,1,0,.16.09.09,0,0,1,0,0,.64.64,0,0,1-.14.07l-.36.13c-.25.09-.52.15-.78.23a16.78,16.78,0,0,0-1.62.51,7,7,0,0,0,1.72.06A6.54,6.54,0,0,0,46.79,129.73Zm6,2.2a1.64,1.64,0,0,0,.22-.16.74.74,0,0,0,.23-.33.79.79,0,0,0,0-.4,1.8,1.8,0,0,0-.07-.25,3.45,3.45,0,0,0-.2-.42,6.5,6.5,0,0,0-.47-.73,6.91,6.91,0,0,0-1.17-1.26,17,17,0,0,0,.67,1.56c.11.25.24.5.34.74s.1.24.14.35a1.22,1.22,0,0,1,0,.15v0h0l-.12.09-.32.2c-.23.13-.48.25-.72.38a16.85,16.85,0,0,0-1.48.82,7,7,0,0,0,1.7-.28,6.51,6.51,0,0,0,.82-.29A3.3,3.3,0,0,0,52.77,131.94Z"/><path class="cls-24" d="M68.84,137a11.19,11.19,0,0,0-4.61-2.8,33,33,0,0,0-5.33-1.14c-1.81-.27-3.64-.56-5.46-1a23.94,23.94,0,0,1-5.28-1.94,20.68,20.68,0,0,1-2.4-1.49c-.76-.54-1.51-1.1-2.22-1.7a37.31,37.31,0,0,1-4-3.89,38.51,38.51,0,0,1-3.38-4.41,30.22,30.22,0,0,1-2.63-4.87,41.7,41.7,0,0,0,3.08,4.55,47.55,47.55,0,0,0,3.57,4.14,42.92,42.92,0,0,0,4,3.66,27.49,27.49,0,0,0,4.47,3c3.17,1.69,6.77,2.37,10.37,3.07a28.64,28.64,0,0,1,5.37,1.48A10.42,10.42,0,0,1,68.84,137Z"/><path class="cls-23" d="M58.56,101.89c0,.13,0,.26,0,.38a1.21,1.21,0,0,1,0,.16v0a.64.64,0,0,1-.16,0l-.37.06c-.26,0-.54.05-.81.08a16.78,16.78,0,0,0-1.68.21,7,7,0,0,0,1.68.37,6.52,6.52,0,0,0,.87,0,3.26,3.26,0,0,0,.46,0l.26-.06a.77.77,0,0,0,.34-.22.79.79,0,0,0,.15-.37,1.78,1.78,0,0,0,0-.26,3.41,3.41,0,0,0,0-.46,6.45,6.45,0,0,0-.17-.85,6.91,6.91,0,0,0-.62-1.6,16.92,16.92,0,0,0,0,1.69C58.53,101.35,58.56,101.62,58.56,101.89Zm-7.42-5.53a3.25,3.25,0,0,0,.46,0l.26,0a.73.73,0,0,0,.39-.17.8.8,0,0,0,.13-.17,1.11,1.11,0,0,0,.07-.15,1.69,1.69,0,0,0,.07-.25,3.5,3.5,0,0,0,.06-.46,6.54,6.54,0,0,0,0-.87,6.92,6.92,0,0,0-.33-1.69A16.87,16.87,0,0,0,52,94.29c0,.27-.06.55-.11.81s0,.26-.07.37a1.07,1.07,0,0,1,0,.15v0h-.54c-.27,0-.54,0-.81-.06a16.76,16.76,0,0,0-1.69-.09,7,7,0,0,0,1.59.66A6.5,6.5,0,0,0,51.14,96.36Zm3,1.16c0,.13,0,.26,0,.38a1.21,1.21,0,0,1,0,.15v0h0l-.15,0-.38,0c-.26,0-.54,0-.82,0a16.73,16.73,0,0,0-1.69.07,7,7,0,0,0,1.64.51,6.54,6.54,0,0,0,.86.11,3.26,3.26,0,0,0,.46,0l.26,0a.67.67,0,0,0,.54-.54,1.82,1.82,0,0,0,0-.26,3.44,3.44,0,0,0,0-.46,6.44,6.44,0,0,0-.1-.87A6.91,6.91,0,0,0,54.22,95a16.86,16.86,0,0,0-.1,1.69C54.11,97,54.12,97.26,54.1,97.52Zm6.77,6.59c0,.13,0,.26,0,.38a1.19,1.19,0,0,1,0,.15v0a.63.63,0,0,1-.16,0l-.38,0c-.26,0-.54,0-.82,0a16.72,16.72,0,0,0-1.69.06,7,7,0,0,0,1.64.52,6.51,6.51,0,0,0,.86.12,3.25,3.25,0,0,0,.46,0l.26,0a.77.77,0,0,0,.36-.19.78.78,0,0,0,.19-.35,1.8,1.8,0,0,0,0-.26,3.43,3.43,0,0,0,0-.46,6.53,6.53,0,0,0-.09-.87A6.91,6.91,0,0,0,61,101.6a16.86,16.86,0,0,0-.11,1.69C60.88,103.57,60.89,103.84,60.86,104.1Zm2.26,2.48c0,.13-.06.25-.1.37a1.09,1.09,0,0,1-.06.15v0H62.8l-.38,0c-.26,0-.53-.08-.81-.12a16.73,16.73,0,0,0-1.68-.2,7,7,0,0,0,1.54.77,6.57,6.57,0,0,0,.83.25,3.25,3.25,0,0,0,.46.07H63a.73.73,0,0,0,.4-.14.79.79,0,0,0,.15-.16,1.08,1.08,0,0,0,.08-.14,1.7,1.7,0,0,0,.09-.25,3.49,3.49,0,0,0,.09-.45,6.5,6.5,0,0,0,0-.87,6.9,6.9,0,0,0-.22-1.7c-.16.56-.27,1.11-.37,1.65C63.23,106.06,63.19,106.33,63.12,106.59Zm-6.88-6.91c0,.13,0,.26,0,.38a1.17,1.17,0,0,1,0,.16v0h0l-.15,0-.37.05c-.26,0-.54,0-.81.07a16.79,16.79,0,0,0-1.69.18,7,7,0,0,0,1.67.41,6.52,6.52,0,0,0,.87.06,3.25,3.25,0,0,0,.46,0l.26-.06a.78.78,0,0,0,.34-.21.78.78,0,0,0,.16-.36,1.81,1.81,0,0,0,0-.26,3.48,3.48,0,0,0,0-.46,6.49,6.49,0,0,0-.15-.86,6.91,6.91,0,0,0-.59-1.61,16.89,16.89,0,0,0,0,1.69C56.23,99.14,56.25,99.42,56.25,99.68Zm8.59,9.45c0,.13-.08.25-.12.36a1.1,1.1,0,0,1-.07.14v0h-.16l-.37-.06c-.26,0-.53-.12-.8-.17a16.77,16.77,0,0,0-1.66-.32,7,7,0,0,0,1.48.88,6.49,6.49,0,0,0,.81.31,3.28,3.28,0,0,0,.45.1l.26,0a.71.71,0,0,0,.41-.11.78.78,0,0,0,.16-.15l.09-.14a1.69,1.69,0,0,0,.11-.24,3.51,3.51,0,0,0,.12-.45,6.46,6.46,0,0,0,.11-.86,6.91,6.91,0,0,0-.09-1.72,16.83,16.83,0,0,0-.48,1.62C65,108.61,64.92,108.88,64.84,109.13Zm1.43,2.79c-.05.12-.1.24-.16.34l-.08.13v0h0l-.15,0-.37-.1c-.26-.07-.51-.18-.77-.26a16.72,16.72,0,0,0-1.62-.51,7,7,0,0,0,1.37,1,6.53,6.53,0,0,0,.78.4,3.32,3.32,0,0,0,.44.15l.26,0a.7.7,0,0,0,.42-.07.78.78,0,0,0,.17-.13l.1-.13a1.77,1.77,0,0,0,.13-.23,3.49,3.49,0,0,0,.17-.43,6.46,6.46,0,0,0,.2-.85,6.91,6.91,0,0,0,.1-1.72,16.91,16.91,0,0,0-.66,1.56C66.46,111.42,66.38,111.68,66.26,111.92Zm.78,2.9c-.08.11-.15.21-.23.3l-.11.12h0l-.14-.06L66.2,115c-.23-.12-.46-.28-.7-.41a16.81,16.81,0,0,0-1.48-.83,7,7,0,0,0,1.13,1.3,6.53,6.53,0,0,0,.68.55,3.27,3.27,0,0,0,.4.24l.25.1a.74.74,0,0,0,.4,0,.78.78,0,0,0,.34-.21,1.79,1.79,0,0,0,.18-.2,3.42,3.42,0,0,0,.25-.39,6.47,6.47,0,0,0,.37-.79,6.92,6.92,0,0,0,.45-1.66,16.88,16.88,0,0,0-1,1.39C67.34,114.37,67.2,114.61,67,114.82Zm.48,5.65c-.1.09-.19.18-.29.25l-.13.09h0l-.13-.08c-.1-.07-.19-.15-.3-.24s-.4-.37-.6-.55a16.81,16.81,0,0,0-1.28-1.11,7,7,0,0,0,.84,1.5,6.55,6.55,0,0,0,.55.67,3.29,3.29,0,0,0,.34.32,1.62,1.62,0,0,0,.22.15.74.74,0,0,0,.39.11.79.79,0,0,0,.38-.13l.21-.16A3.39,3.39,0,0,0,68,121a6.46,6.46,0,0,0,.53-.7,6.92,6.92,0,0,0,.78-1.53,16.94,16.94,0,0,0-1.23,1.16C67.9,120.09,67.72,120.3,67.52,120.47Zm-.13-2.78c-.09.1-.17.2-.26.28l-.12.1h0l-.14-.07-.32-.21c-.22-.15-.43-.32-.66-.48a16.84,16.84,0,0,0-1.38-1,7,7,0,0,0,1,1.4,6.49,6.49,0,0,0,.62.61,3.32,3.32,0,0,0,.37.28l.23.13a.74.74,0,0,0,.4.07.79.79,0,0,0,.36-.17l.19-.18a3.41,3.41,0,0,0,.29-.36,6.5,6.5,0,0,0,.45-.75,6.91,6.91,0,0,0,.62-1.6,16.92,16.92,0,0,0-1.11,1.28C67.73,117.27,67.57,117.49,67.39,117.69Z"/><path class="cls-24" d="M68.84,137a9.63,9.63,0,0,1-1.39-2.84,18.32,18.32,0,0,1-.65-3.12,50.81,50.81,0,0,1-.28-6.33c0-2.1.05-4.2,0-6.28,0-1-.12-2.07-.26-3.08a12.13,12.13,0,0,0-.77-2.91,20.35,20.35,0,0,0-3.15-5.23,57.58,57.58,0,0,0-4.19-4.62c-1.47-1.49-3-3-4.42-4.5a31.25,31.25,0,0,1-2-2.42,11.27,11.27,0,0,1-1.57-2.74,12.45,12.45,0,0,0,1.82,2.55c.69.78,1.43,1.52,2.2,2.23,1.52,1.44,3.11,2.81,4.64,4.26a49.55,49.55,0,0,1,4.41,4.58,21,21,0,0,1,3.37,5.49,13.26,13.26,0,0,1,.81,3.17,29.74,29.74,0,0,1,.23,3.2c0,2.13,0,4.23-.14,6.33s-.17,4.19,0,6.26A13.77,13.77,0,0,0,68.84,137Z"/><path class="cls-23" d="M52.36,113.75c0,.13-.08.25-.12.36a1.07,1.07,0,0,1-.06.14v0H52l-.37-.06c-.26,0-.53-.11-.8-.17a16.81,16.81,0,0,0-1.67-.31,7,7,0,0,0,1.48.87,6.53,6.53,0,0,0,.82.3,3.28,3.28,0,0,0,.45.1l.27,0a.7.7,0,0,0,.41-.12.8.8,0,0,0,.16-.15l.08-.14a1.69,1.69,0,0,0,.1-.24,3.42,3.42,0,0,0,.12-.45,6.5,6.5,0,0,0,.1-.87,6.91,6.91,0,0,0-.11-1.72,16.93,16.93,0,0,0-.47,1.63C52.5,113.23,52.45,113.49,52.36,113.75ZM54,116c0,.13-.06.25-.1.37a1.12,1.12,0,0,1-.06.15v0h-.16l-.38,0c-.26,0-.53-.08-.81-.12a16.69,16.69,0,0,0-1.68-.21,7,7,0,0,0,1.53.78,6.55,6.55,0,0,0,.83.25,3.25,3.25,0,0,0,.46.07h.27a.73.73,0,0,0,.4-.14.79.79,0,0,0,.15-.16,1.07,1.07,0,0,0,.08-.14,1.7,1.7,0,0,0,.09-.25,3.49,3.49,0,0,0,.09-.45,6.46,6.46,0,0,0,0-.87,6.9,6.9,0,0,0-.21-1.71,16.91,16.91,0,0,0-.38,1.65C54.08,115.51,54,115.78,54,116Zm-3.11-4.79c0,.12-.1.24-.15.35l-.08.14v0h0l-.15,0-.37-.09c-.26-.06-.51-.16-.78-.24a16.76,16.76,0,0,0-1.63-.46,7,7,0,0,0,1.4,1,6.53,6.53,0,0,0,.79.37,3.26,3.26,0,0,0,.44.14l.26,0a.7.7,0,0,0,.41-.08.8.8,0,0,0,.17-.14l.1-.13a1.69,1.69,0,0,0,.12-.23,3.46,3.46,0,0,0,.15-.44,6.45,6.45,0,0,0,.17-.85,6.93,6.93,0,0,0,0-1.72,16.87,16.87,0,0,0-.61,1.58C51,110.74,51,111,50.86,111.25Zm7.75,10.69c0,.13,0,.26-.08.37a1.1,1.1,0,0,1,0,.15v0h-.54c-.26,0-.54-.05-.81-.08a16.79,16.79,0,0,0-1.69-.12A7,7,0,0,0,57,123a6.54,6.54,0,0,0,.85.21,3.3,3.3,0,0,0,.46,0h.27a.73.73,0,0,0,.39-.16.8.8,0,0,0,.14-.17,1.09,1.09,0,0,0,.07-.14,1.7,1.7,0,0,0,.08-.25,3.48,3.48,0,0,0,.07-.46,6.51,6.51,0,0,0,0-.87,6.92,6.92,0,0,0-.3-1.69,16.93,16.93,0,0,0-.29,1.67C58.69,121.41,58.67,121.68,58.62,121.94Zm-1.48-1.82c0,.13-.06.26-.09.37a1.06,1.06,0,0,1-.05.15v0h-.16l-.38,0c-.26,0-.53-.07-.81-.11a16.77,16.77,0,0,0-1.69-.18,7,7,0,0,0,1.55.75,6.51,6.51,0,0,0,.84.24,3.25,3.25,0,0,0,.46.07h.27a.73.73,0,0,0,.4-.15.79.79,0,0,0,.14-.17l.07-.14a1.68,1.68,0,0,0,.08-.25,3.48,3.48,0,0,0,.08-.46,6.46,6.46,0,0,0,0-.87,6.91,6.91,0,0,0-.24-1.7,16.87,16.87,0,0,0-.35,1.66C57.23,119.59,57.19,119.86,57.13,120.12Zm-2.33-.77a3.28,3.28,0,0,0,.46.06h.27a.73.73,0,0,0,.39-.15.8.8,0,0,0,.14-.17,1.08,1.08,0,0,0,.07-.14,1.71,1.71,0,0,0,.08-.25,3.51,3.51,0,0,0,.07-.46,6.48,6.48,0,0,0,0-.87,6.92,6.92,0,0,0-.26-1.7,16.87,16.87,0,0,0-.32,1.66c-.05.27-.08.54-.14.8s-.05.26-.09.37a1.08,1.08,0,0,1-.05.15v0h-.16l-.38,0c-.26,0-.53-.07-.81-.09a16.78,16.78,0,0,0-1.69-.16,7,7,0,0,0,1.56.73A6.53,6.53,0,0,0,54.8,119.35ZM35.34,79.85a3.25,3.25,0,0,0,.46,0l.26-.05a.77.77,0,0,0,.35-.2.78.78,0,0,0,.17-.36,1.78,1.78,0,0,0,0-.26,3.42,3.42,0,0,0,0-.46,6.45,6.45,0,0,0-.12-.86A6.91,6.91,0,0,0,36,76a16.87,16.87,0,0,0,0,1.69c0,.28,0,.55,0,.81s0,.26,0,.38a1.17,1.17,0,0,1,0,.16v0h0l-.15,0-.38,0c-.26,0-.54,0-.81,0a16.75,16.75,0,0,0-1.69.12,7,7,0,0,0,1.65.46A6.52,6.52,0,0,0,35.34,79.85Zm26.55,46.47c0,.13,0,.26-.08.37a1.1,1.1,0,0,1,0,.15v0h-.54c-.26,0-.54-.05-.81-.08a16.72,16.72,0,0,0-1.69-.12,7,7,0,0,0,1.57.69,6.5,6.5,0,0,0,.85.21,3.27,3.27,0,0,0,.46,0h.27a.73.73,0,0,0,.39-.16.78.78,0,0,0,.14-.17,1.06,1.06,0,0,0,.07-.14,1.7,1.7,0,0,0,.08-.25,3.53,3.53,0,0,0,.07-.46,6.49,6.49,0,0,0,0-.87,6.91,6.91,0,0,0-.3-1.69,16.89,16.89,0,0,0-.29,1.67C62,125.78,61.94,126.06,61.89,126.32Zm-1.54-2.16c0,.13,0,.26-.08.37a1.08,1.08,0,0,1,0,.15v0h-.54c-.26,0-.54-.05-.81-.08a16.83,16.83,0,0,0-1.69-.12,7,7,0,0,0,1.57.69,6.57,6.57,0,0,0,.85.21,3.3,3.3,0,0,0,.46,0h.27a.73.73,0,0,0,.39-.16.81.81,0,0,0,.14-.17,1.05,1.05,0,0,0,.07-.14,1.67,1.67,0,0,0,.08-.25,3.48,3.48,0,0,0,.06-.46,6.48,6.48,0,0,0,0-.87,6.92,6.92,0,0,0-.3-1.69,16.91,16.91,0,0,0-.29,1.67C60.43,123.63,60.4,123.9,60.35,124.16ZM38.18,81.22c0,.13-.05.26-.09.37a1.1,1.1,0,0,1-.05.15v0h-.16l-.38,0c-.26,0-.53-.07-.81-.1A16.8,16.8,0,0,0,35,81.47a7,7,0,0,0,1.55.74,6.5,6.5,0,0,0,.84.23,3.24,3.24,0,0,0,.46.06h.27a.73.73,0,0,0,.39-.15.79.79,0,0,0,.14-.17,1.12,1.12,0,0,0,.07-.14,1.72,1.72,0,0,0,.08-.25,3.49,3.49,0,0,0,.08-.46,6.51,6.51,0,0,0,0-.87,6.93,6.93,0,0,0-.25-1.7,16.85,16.85,0,0,0-.33,1.66C38.27,80.69,38.24,81,38.18,81.22Zm11.19,27.42c-.06.12-.11.24-.18.34l-.09.13v0h0l-.15,0-.36-.11c-.25-.08-.5-.2-.76-.29a16.79,16.79,0,0,0-1.6-.57,7,7,0,0,0,1.33,1.09,6.5,6.5,0,0,0,.76.43,3.3,3.3,0,0,0,.43.17l.26.06a.71.71,0,0,0,.42-.05.79.79,0,0,0,.18-.13l.1-.12a1.7,1.7,0,0,0,.14-.22,3.53,3.53,0,0,0,.18-.42,6.52,6.52,0,0,0,.23-.84,6.92,6.92,0,0,0,.17-1.71,16.94,16.94,0,0,0-.72,1.53C49.58,108.15,49.49,108.41,49.37,108.64Zm-6.47-19c-.06.12-.12.23-.19.33l-.09.13v0h0l-.15,0L42.1,90c-.25-.09-.5-.21-.75-.31a16.8,16.8,0,0,0-1.58-.62,7,7,0,0,0,1.29,1.13,6.5,6.5,0,0,0,.75.45,3.32,3.32,0,0,0,.42.18l.26.07a.7.7,0,0,0,.42,0,.79.79,0,0,0,.18-.12l.11-.12a1.67,1.67,0,0,0,.15-.22,3.49,3.49,0,0,0,.2-.42,6.51,6.51,0,0,0,.26-.83,6.92,6.92,0,0,0,.22-1.7c-.3.5-.54,1-.77,1.51C43.13,89.19,43,89.44,42.9,89.67Zm-1.4-3.12c-.05.12-.1.24-.16.34l-.08.13v0h0l-.15,0-.37-.1c-.26-.07-.51-.17-.77-.26a16.85,16.85,0,0,0-1.62-.5,7,7,0,0,0,1.38,1,6.52,6.52,0,0,0,.78.39,3.3,3.3,0,0,0,.44.15l.26,0a.7.7,0,0,0,.42-.07.8.8,0,0,0,.17-.14l.1-.13a1.7,1.7,0,0,0,.13-.23,3.5,3.5,0,0,0,.17-.43,6.48,6.48,0,0,0,.2-.85,6.92,6.92,0,0,0,.09-1.72,16.92,16.92,0,0,0-.65,1.56C41.69,86.06,41.61,86.32,41.5,86.56Zm-1.59-2.73c0,.13-.08.25-.12.36a1.07,1.07,0,0,1-.07.14v0h-.16l-.37-.06c-.26,0-.53-.12-.8-.17a16.82,16.82,0,0,0-1.66-.32,7,7,0,0,0,1.48.87A6.51,6.51,0,0,0,39,85a3.28,3.28,0,0,0,.45.1l.27,0a.7.7,0,0,0,.41-.12.79.79,0,0,0,.16-.15l.08-.14a1.67,1.67,0,0,0,.1-.24,3.46,3.46,0,0,0,.12-.45,6.49,6.49,0,0,0,.1-.87,6.92,6.92,0,0,0-.1-1.72A16.78,16.78,0,0,0,40.12,83C40,83.31,40,83.58,39.91,83.83Zm4.47,10c-.08.1-.16.21-.24.3l-.11.11h0l-.14-.06L43.53,94c-.23-.13-.45-.29-.69-.43a16.8,16.8,0,0,0-1.45-.87A7,7,0,0,0,42.48,94a6.49,6.49,0,0,0,.66.57,3.28,3.28,0,0,0,.39.25l.24.11a.74.74,0,0,0,.4,0,.78.78,0,0,0,.35-.2,1.8,1.8,0,0,0,.18-.19,3.44,3.44,0,0,0,.26-.38,6.48,6.48,0,0,0,.39-.78,6.92,6.92,0,0,0,.5-1.65,17,17,0,0,0-1,1.36C44.68,93.41,44.54,93.64,44.38,93.85ZM46.91,103c-.07.11-.13.23-.2.32l-.09.12,0,0h0l-.15,0-.35-.14c-.25-.1-.49-.23-.74-.34a16.71,16.71,0,0,0-1.55-.68,7,7,0,0,0,1.25,1.17,6.5,6.5,0,0,0,.73.48,3.29,3.29,0,0,0,.42.2l.25.08a.71.71,0,0,0,.42,0,.81.81,0,0,0,.19-.12l.11-.11a1.68,1.68,0,0,0,.16-.21,3.44,3.44,0,0,0,.21-.41,6.47,6.47,0,0,0,.29-.82,6.91,6.91,0,0,0,.28-1.7,16.91,16.91,0,0,0-.82,1.48C47.16,102.5,47,102.75,46.91,103Zm-1.68-6c-.08.1-.16.21-.24.3l-.11.11h0l-.14-.06-.33-.18c-.23-.13-.45-.29-.69-.43a16.81,16.81,0,0,0-1.46-.87,7,7,0,0,0,1.1,1.32,6.52,6.52,0,0,0,.66.56,3.34,3.34,0,0,0,.39.25l.24.11a.74.74,0,0,0,.4,0,.79.79,0,0,0,.35-.2,1.83,1.83,0,0,0,.18-.19,3.42,3.42,0,0,0,.26-.38,6.47,6.47,0,0,0,.39-.78,6.92,6.92,0,0,0,.49-1.65,16.87,16.87,0,0,0-1,1.37C45.54,96.49,45.4,96.72,45.23,96.93ZM48,105.84c-.06.12-.11.24-.17.34l-.09.13v0h0l-.15,0-.36-.11c-.25-.08-.5-.19-.76-.29a16.8,16.8,0,0,0-1.6-.56,7,7,0,0,0,1.34,1.08,6.52,6.52,0,0,0,.76.42,3.29,3.29,0,0,0,.43.17l.26.06a.7.7,0,0,0,.42-.06.8.8,0,0,0,.18-.13l.1-.12a1.69,1.69,0,0,0,.14-.22,3.5,3.5,0,0,0,.18-.43,6.54,6.54,0,0,0,.23-.84,6.91,6.91,0,0,0,.15-1.71,16.93,16.93,0,0,0-.71,1.54C48.24,105.34,48.14,105.6,48,105.84Zm-2-5.55c-.07.11-.14.22-.21.31l-.1.12h0l-.15,0-.35-.15c-.24-.11-.48-.25-.72-.37a16.76,16.76,0,0,0-1.52-.74,7,7,0,0,0,1.2,1.23,6.48,6.48,0,0,0,.71.51,3.27,3.27,0,0,0,.41.22l.25.09a.7.7,0,0,0,.42,0,.8.8,0,0,0,.19-.11l.12-.11a1.71,1.71,0,0,0,.16-.21,3.53,3.53,0,0,0,.23-.4,6.52,6.52,0,0,0,.33-.81,6.92,6.92,0,0,0,.35-1.68,16.94,16.94,0,0,0-.89,1.44C46.29,99.82,46.17,100.06,46,100.29Z"/><path class="cls-24" d="M68.84,137q-1.19-1.87-2.47-3.67c-.86-1.2-1.76-2.36-2.67-3.52-1.81-2.32-3.67-4.62-5.5-6.93l-2.74-3.47c-.91-1.17-1.82-2.31-2.72-3.51a50.14,50.14,0,0,1-4.7-7.6A45.9,45.9,0,0,1,45,99.95c-.76-2.87-1.37-5.75-2.32-8.5a37.4,37.4,0,0,0-1.69-4c-.63-1.32-1.32-2.62-2.07-3.88a31.75,31.75,0,0,0-2.48-3.63A22,22,0,0,0,35,78.25a11.32,11.32,0,0,0-1.65-1.46,15.19,15.19,0,0,1,3.33,2.92,32.25,32.25,0,0,1,2.72,3.53,44.5,44.5,0,0,1,2.26,3.84,35.39,35.39,0,0,1,1.85,4.07c1.07,2.8,1.71,5.7,2.52,8.52a45.88,45.88,0,0,0,3.06,8.18,50.49,50.49,0,0,0,4.54,7.47c1.73,2.36,3.55,4.71,5.3,7.08s3.53,4.73,5.24,7.14A67,67,0,0,1,68.84,137Z"/><path class="cls-23" d="M46.73,121.67a3.28,3.28,0,0,0,.46,0l.26-.06a.77.77,0,0,0,.35-.21A.79.79,0,0,0,48,121a1.82,1.82,0,0,0,0-.26,3.38,3.38,0,0,0,0-.46,6.45,6.45,0,0,0-.14-.86,6.91,6.91,0,0,0-.56-1.62c0,.58,0,1.14,0,1.7,0,.28,0,.55,0,.82s0,.26,0,.38a1.19,1.19,0,0,1,0,.16v0l-.16,0-.38,0c-.26,0-.54,0-.81.05a16.79,16.79,0,0,0-1.69.15,7,7,0,0,0,1.66.43A6.55,6.55,0,0,0,46.73,121.67ZM48.31,124a6.53,6.53,0,0,0,.87,0,3.27,3.27,0,0,0,.46-.06l.26-.07a.78.78,0,0,0,.33-.23.79.79,0,0,0,.14-.37,1.8,1.8,0,0,0,0-.26,3.47,3.47,0,0,0,0-.46,6.47,6.47,0,0,0-.19-.85,6.92,6.92,0,0,0-.67-1.58,16.87,16.87,0,0,0,.1,1.69c0,.28.06.55.06.81s0,.26,0,.38a1.18,1.18,0,0,1,0,.16v0a.65.65,0,0,1-.15,0l-.37.07c-.26,0-.53.07-.81.11a16.78,16.78,0,0,0-1.68.26A7,7,0,0,0,48.31,124Zm-4.06-5a3.25,3.25,0,0,0,.46,0H45a.73.73,0,0,0,.39-.16.79.79,0,0,0,.14-.17,1.09,1.09,0,0,0,.07-.14,1.66,1.66,0,0,0,.08-.25,3.49,3.49,0,0,0,.07-.46,6.49,6.49,0,0,0,0-.87,6.91,6.91,0,0,0-.29-1.69,16.93,16.93,0,0,0-.29,1.67c0,.27-.07.55-.12.81s0,.26-.08.37a1.09,1.09,0,0,1,0,.15v0h-.54c-.27,0-.54-.06-.81-.08a16.79,16.79,0,0,0-1.69-.13,7,7,0,0,0,1.57.7A6.56,6.56,0,0,0,44.26,118.93Zm-2.14-2.68a3.25,3.25,0,0,0,.46.07h.27a.73.73,0,0,0,.4-.14.8.8,0,0,0,.15-.16,1.1,1.1,0,0,0,.07-.14,1.69,1.69,0,0,0,.09-.25,3.47,3.47,0,0,0,.09-.45,6.48,6.48,0,0,0,0-.87,6.92,6.92,0,0,0-.22-1.7,16.9,16.9,0,0,0-.36,1.66c-.06.27-.09.54-.16.8s-.06.25-.1.37a1.1,1.1,0,0,1-.05.15v0H42.6l-.38,0c-.26,0-.53-.08-.81-.11a16.8,16.8,0,0,0-1.68-.2,7,7,0,0,0,1.54.76A6.53,6.53,0,0,0,42.11,116.25ZM51.6,126a3.3,3.3,0,0,0,.46-.07l.25-.08a.78.78,0,0,0,.32-.24.79.79,0,0,0,.13-.38,1.83,1.83,0,0,0,0-.26,3.45,3.45,0,0,0-.06-.46,6.47,6.47,0,0,0-.22-.84,6.9,6.9,0,0,0-.72-1.56,16.94,16.94,0,0,0,.15,1.69c0,.28.07.55.09.81s0,.26,0,.38a1.28,1.28,0,0,1,0,.16v0a.64.64,0,0,1-.15.05l-.37.09c-.26.06-.53.08-.8.13a16.75,16.75,0,0,0-1.67.31,7,7,0,0,0,1.7.27A6.53,6.53,0,0,0,51.6,126ZM38.86,109.91a3.3,3.3,0,0,0,.42.18l.26.07a.71.71,0,0,0,.42,0,.79.79,0,0,0,.18-.12l.11-.12a1.7,1.7,0,0,0,.15-.22,3.48,3.48,0,0,0,.2-.42,6.48,6.48,0,0,0,.26-.83,6.91,6.91,0,0,0,.22-1.7,16.93,16.93,0,0,0-.77,1.51c-.12.25-.23.5-.36.73s-.12.23-.19.33l-.09.13,0,0h0l-.15,0-.36-.12c-.25-.09-.5-.21-.75-.31a16.8,16.8,0,0,0-1.58-.62,7,7,0,0,0,1.29,1.13A6.48,6.48,0,0,0,38.86,109.91ZM32.32,89a3.26,3.26,0,0,0,.46.07H33a.73.73,0,0,0,.4-.15.79.79,0,0,0,.14-.17,1.12,1.12,0,0,0,.07-.14,1.73,1.73,0,0,0,.09-.25,3.5,3.5,0,0,0,.08-.46,6.54,6.54,0,0,0,0-.87,6.92,6.92,0,0,0-.23-1.7,16.83,16.83,0,0,0-.35,1.66c-.06.27-.09.54-.15.8s-.06.26-.09.37a1.07,1.07,0,0,1-.05.15v0h-.16l-.38,0c-.26,0-.53-.08-.81-.11A16.79,16.79,0,0,0,29.94,88a7,7,0,0,0,1.54.75A6.53,6.53,0,0,0,32.32,89Zm8,24.37a3.25,3.25,0,0,0,.44.13l.26,0a.71.71,0,0,0,.41-.09.79.79,0,0,0,.17-.14l.09-.13a1.68,1.68,0,0,0,.12-.23,3.49,3.49,0,0,0,.15-.44,6.46,6.46,0,0,0,.16-.86,6.91,6.91,0,0,0,0-1.72c-.23.53-.41,1.07-.58,1.59-.09.26-.17.53-.26.77s-.09.24-.14.35l-.07.14v0h0l-.15,0-.37-.08c-.26-.06-.52-.15-.79-.22a16.8,16.8,0,0,0-1.64-.42,7,7,0,0,0,1.42,1A6.53,6.53,0,0,0,40.32,113.33ZM39,105.87c-.07.11-.15.22-.22.31l-.1.12h0l-.15-.05-.34-.16c-.24-.12-.47-.27-.71-.4a16.8,16.8,0,0,0-1.5-.8,7,7,0,0,0,1.16,1.27,6.47,6.47,0,0,0,.69.53,3.28,3.28,0,0,0,.4.23l.25.1a.74.74,0,0,0,.4,0,.78.78,0,0,0,.34-.21,1.8,1.8,0,0,0,.17-.2,3.42,3.42,0,0,0,.24-.39,6.47,6.47,0,0,0,.36-.8,6.91,6.91,0,0,0,.42-1.67,16.88,16.88,0,0,0-.94,1.41C39.29,105.41,39.16,105.65,39,105.87Zm-1.78-9.41c-.08.1-.16.21-.24.3l-.11.11h0l-.14-.06-.33-.18c-.23-.13-.45-.29-.69-.43a16.74,16.74,0,0,0-1.46-.87,7,7,0,0,0,1.1,1.32,6.47,6.47,0,0,0,.66.57,3.32,3.32,0,0,0,.39.25l.24.11a.75.75,0,0,0,.4,0,.78.78,0,0,0,.35-.2,1.79,1.79,0,0,0,.18-.19,3.43,3.43,0,0,0,.26-.38,6.45,6.45,0,0,0,.39-.78,6.91,6.91,0,0,0,.49-1.65,16.88,16.88,0,0,0-1,1.37C37.53,96,37.39,96.25,37.23,96.46Zm-.85-3c-.06.11-.12.23-.19.33l-.09.13v0h0l-.15,0-.36-.13c-.25-.09-.49-.22-.75-.33a16.78,16.78,0,0,0-1.57-.65A7,7,0,0,0,34.53,94a6.51,6.51,0,0,0,.74.46,3.31,3.31,0,0,0,.42.19l.26.07a.71.71,0,0,0,.42,0,.78.78,0,0,0,.18-.12l.11-.12a1.66,1.66,0,0,0,.15-.22,3.5,3.5,0,0,0,.2-.41,6.48,6.48,0,0,0,.27-.83,6.92,6.92,0,0,0,.25-1.7,16.91,16.91,0,0,0-.79,1.5C36.61,93,36.5,93.27,36.37,93.5ZM54.2,127.84a3.27,3.27,0,0,0,.45-.09l.25-.09a.77.77,0,0,0,.31-.25.78.78,0,0,0,.11-.38,1.8,1.8,0,0,0,0-.26,3.48,3.48,0,0,0-.08-.46,6.51,6.51,0,0,0-.26-.83,6.91,6.91,0,0,0-.8-1.52,16.93,16.93,0,0,0,.23,1.68c0,.27.1.54.13.8s0,.26,0,.38a1.22,1.22,0,0,1,0,.16.09.09,0,0,1,0,0,.65.65,0,0,1-.15.06l-.36.1c-.26.07-.53.11-.8.17a16.79,16.79,0,0,0-1.65.4,7.05,7.05,0,0,0,1.71.18A6.55,6.55,0,0,0,54.2,127.84ZM35,90.6c0,.12-.09.24-.15.35a1.07,1.07,0,0,1-.08.14v0h0l-.15,0L34.23,91c-.26-.06-.52-.15-.78-.23a16.78,16.78,0,0,0-1.64-.43,7,7,0,0,0,1.42,1,6.49,6.49,0,0,0,.79.36,3.31,3.31,0,0,0,.44.13l.26,0a.71.71,0,0,0,.41-.09.8.8,0,0,0,.17-.14l.09-.13a1.69,1.69,0,0,0,.12-.23,3.5,3.5,0,0,0,.15-.44,6.53,6.53,0,0,0,.16-.86,6.92,6.92,0,0,0,0-1.72,16.86,16.86,0,0,0-.59,1.59C35.16,90.09,35.09,90.35,35,90.6Zm21.95,37.6c0,.13,0,.26.05.38a1.21,1.21,0,0,1,0,.16.07.07,0,0,1,0,0,.64.64,0,0,1-.15.07l-.36.12c-.25.08-.52.13-.79.21a16.78,16.78,0,0,0-1.63.47,7,7,0,0,0,1.72.11,6.48,6.48,0,0,0,.87-.1,3.24,3.24,0,0,0,.45-.11l.24-.1a.77.77,0,0,0,.3-.27.79.79,0,0,0,.09-.39,1.84,1.84,0,0,0,0-.26,3.46,3.46,0,0,0-.1-.45,6.49,6.49,0,0,0-.3-.82,6.91,6.91,0,0,0-.87-1.49c.07.58.19,1.13.31,1.67C56.82,127.67,56.89,127.93,56.93,128.19ZM37.82,99.51c-.09.1-.17.2-.25.28l-.12.11h0l-.14-.07-.32-.2c-.22-.14-.44-.31-.67-.47a16.83,16.83,0,0,0-1.41-.95,7,7,0,0,0,1,1.38,6.43,6.43,0,0,0,.63.6,3.27,3.27,0,0,0,.37.27l.24.12a.74.74,0,0,0,.4.06.78.78,0,0,0,.36-.18,1.79,1.79,0,0,0,.19-.18,3.44,3.44,0,0,0,.28-.37,6.49,6.49,0,0,0,.44-.76,6.92,6.92,0,0,0,.58-1.62,17,17,0,0,0-1.08,1.31C38.15,99.08,38,99.31,37.82,99.51Zm.49,3.22c-.08.1-.17.2-.25.29l-.11.11h0l-.14-.06-.33-.19c-.23-.14-.44-.31-.67-.46a16.66,16.66,0,0,0-1.42-.93,7.05,7.05,0,0,0,1,1.37,6.52,6.52,0,0,0,.64.59,3.29,3.29,0,0,0,.38.27l.24.12a.75.75,0,0,0,.4.05.78.78,0,0,0,.36-.18,1.79,1.79,0,0,0,.19-.18,3.43,3.43,0,0,0,.28-.37,6.46,6.46,0,0,0,.42-.76,6.93,6.93,0,0,0,.56-1.63,16.93,16.93,0,0,0-1.06,1.32C38.64,102.3,38.49,102.53,38.32,102.73Z"/><path class="cls-24" d="M68.83,137a11.42,11.42,0,0,0-1.6-1.34c-.56-.41-1.14-.8-1.72-1.18-1.17-.76-2.36-1.48-3.55-2.2-2.37-1.46-4.74-2.93-7-4.53a67.62,67.62,0,0,1-6.64-5.16,38.26,38.26,0,0,1-5.7-6.25,24.94,24.94,0,0,1-2.16-3.68c-.31-.64-.58-1.32-.82-2s-.48-1.32-.7-2a43.23,43.23,0,0,1-1.83-8.23c-.18-1.39-.34-2.76-.62-4.1a18.57,18.57,0,0,0-1.27-3.9,40.84,40.84,0,0,0-4.32-7.09c.91,1.06,1.79,2.14,2.6,3.28a29,29,0,0,1,2.22,3.57,18.93,18.93,0,0,1,1.49,4c.35,1.37.54,2.77.77,4.14s.48,2.72.81,4.06.72,2.66,1.17,4a39,39,0,0,0,1.5,3.83,24,24,0,0,0,2.08,3.51A38.12,38.12,0,0,0,49,121.86a76,76,0,0,0,6.44,5.23c2.24,1.64,4.53,3.21,6.84,4.78,1.14.79,2.29,1.59,3.42,2.42A17.84,17.84,0,0,1,68.83,137Z"/><path class="cls-25" d="M77.62,133.32c0-9.1-1.45-17.32-.79-22.2S89.09,99.52,94,94.25s12.66-8.31,17.14-14.11,6.46-14.63,8.44-17,6.46-5,7.51-12-1.06-7.52-2-7.65c-1.37-.19-2.39,1.47-2.5,4-.26,5.67-3,10.28-5.24,9.62s-.29-11.47-.16-14.63.45-9.08-2.77-9-3.16,9.11-3.43,14.9S109.43,62.8,109.51,67c.13,6.9-4.87,12.05-7.23,11.13s-.14-13.45,0-19.51-.76-21.08-.79-26.76c0-5.07-.77-8-3.69-8-3.38,0-4,2.51-3.82,9,.12,5.81,1.85,33-.79,33.35s-1.87-7.75-4.49-8.44c-2-.54-4.18,1.94-3.16,5.8,1,3.7,7.38,12.52,7.65,17.27S80.65,97,76.83,94.64C73.16,92.36,71.29,72.1,75.25,65S85.83,55,85.66,44.41c-.11-7.27-.13-12.66-3-12.66s-3.58,2.9-3.43,7.51c.26,8.17-2.37,15.69-5.67,15.16C69.62,53.8,71.16,42,72.08,32.55s-.53-17.27-3.43-17.27-3.3,3.16-3,11.6-3.44,16-1.6,27,2.44,20.63-.66,21.75c-2.9,1.06-4.88-10.28-5.14-18.06s-1.05-18.85-1.05-24.26-.66-10.55-4-10.68-2.9,7.38-2.9,14S50.5,59,52.61,70.11C55.14,83.39,65.49,92,65.49,96.22S61,99,53.63,93.45A30.1,30.1,0,0,1,42.68,74.65c-.79-6,1.84-25.23-4-25.49s0,19.12-2.24,22.54-6.2-12-10.55-9.89,3,12.39,8.7,17.8,6.07,11.07,14.63,19.12,16.61,10.55,16.48,20.83S65,138.24,65,138.24C73.72,138.24,77.62,140.12,77.62,133.32Z"/><path class="cls-26" d="M67.3,73a.89.89,0,1,0-.89-.89A.89.89,0,0,0,67.3,73ZM65.71,83.3a1.65,1.65,0,1,0,1.65-1.65A1.65,1.65,0,0,0,65.71,83.3Zm3.6-23.13a1.2,1.2,0,1,0-1.2,1.2A1.2,1.2,0,0,0,69.31,60.18ZM77,59.12a1.06,1.06,0,1,0,1.06-1.06A1.06,1.06,0,0,0,77,59.12ZM74.18,93.44a1,1,0,1,0-1,1A1,1,0,0,0,74.18,93.44ZM72.43,70.26a1.1,1.1,0,1,0,.93,1.69c0-.31.08-.61.12-.91A1.1,1.1,0,0,0,72.43,70.26Zm-1.6,20.52a1.09,1.09,0,1,0-1.09-1.09A1.09,1.09,0,0,0,70.83,90.77ZM69,37.28a.81.81,0,1,0-.81.81A.81.81,0,0,0,69,37.28Zm3.13,62.37A1.16,1.16,0,1,0,71,98.49,1.16,1.16,0,0,0,72.13,99.66Zm-5.72-35.9a1.3,1.3,0,1,0,1.3-1.3A1.3,1.3,0,0,0,66.41,63.76ZM76,100.23a1.05,1.05,0,1,0-1.06-1.06A1.05,1.05,0,0,0,76,100.23Zm-.16,21.82a.89.89,0,1,0-.89-.89A.89.89,0,0,0,75.81,122.05Zm-8.9-78a1.54,1.54,0,1,0,1.54-1.54A1.54,1.54,0,0,0,66.9,44.05Zm8.9,13.18a.89.89,0,1,0-.89-.89A.89.89,0,0,0,75.8,57.23Zm0,56.52a.89.89,0,0,0,.86-.7c0-.11,0-.21,0-.32a.89.89,0,0,0-.88-.79.9.9,0,0,0,0,1.8Zm2.48-62.15a1.24,1.24,0,0,0-.73-1.13,11.34,11.34,0,0,1-1.13,2.21,1.23,1.23,0,0,0,.61.17A1.24,1.24,0,0,0,78.29,51.61ZM65.71,117.75a1.67,1.67,0,1,0-.67-3.2,13.87,13.87,0,0,1,.66,3.2Zm4-6.71a1.64,1.64,0,1,0-1.64,1.64A1.64,1.64,0,0,0,69.74,111Zm4.09-5.94a1.08,1.08,0,1,0,1.08,1.08A1.08,1.08,0,0,0,73.83,105.11Zm-7.3,20a.94.94,0,1,0-.87-1.31l0,.66A.93.93,0,0,0,66.53,125.12Zm4-47.8a1.23,1.23,0,1,0-1.23,1.23A1.23,1.23,0,0,0,70.53,77.32Zm1.38-16.49a1.14,1.14,0,1,0,1.14-1.14A1.14,1.14,0,0,0,71.91,60.83ZM72.4,67A1.24,1.24,0,0,0,74,68.2a16.64,16.64,0,0,1,.63-2A1.25,1.25,0,0,0,72.4,67Zm.35,45.25a1.43,1.43,0,1,0-1.43-1.43A1.43,1.43,0,0,0,72.75,112.26Zm.54-9.27a1.38,1.38,0,1,0-1.38,1.38A1.38,1.38,0,0,0,73.29,103ZM71.21,52.74a1.27,1.27,0,1,0,1.2,1.07,3.34,3.34,0,0,1-.58-.89A1.21,1.21,0,0,0,71.21,52.74ZM65.67,24.62a.8.8,0,1,0,0-1.59l-.1,0c0,.49,0,1,0,1.55Zm3-3.63a1.31,1.31,0,1,0-1.31-1.31A1.31,1.31,0,0,0,68.68,21Zm1.85,102.25a.79.79,0,1,0-.79-.79A.79.79,0,0,0,70.53,123.23ZM69.74,33.6a1.32,1.32,0,0,0,2.13,1.06c.07-.65.13-1.3.19-1.93a1.33,1.33,0,0,0-2.32.88Zm1-9.48a1,1,0,1,0-1-1A1,1,0,0,0,70.69,24.12ZM66.41,93.37a1.69,1.69,0,1,0-1.69-1.69A1.69,1.69,0,0,0,66.41,93.37ZM66.1,57.43a1.38,1.38,0,1,0-1.38-1.38A1.38,1.38,0,0,0,66.1,57.43Zm2.91-28a2.14,2.14,0,0,0-3.36-1.76,33.88,33.88,0,0,1-.16,3.39A2.13,2.13,0,0,0,69,29.47Zm0,37.6a1.53,1.53,0,1,0,1.53,1.53A1.53,1.53,0,0,0,69,67.07ZM64,77.82a.84.84,0,1,0,.84-.84A.84.84,0,0,0,64,77.82Zm1.56,10a.87.87,0,1,0-.87-.87A.87.87,0,0,0,65.59,87.84Zm.87,18.73a1.64,1.64,0,1,0,1.64-1.64A1.64,1.64,0,0,0,66.46,106.57ZM70,117a1,1,0,1,0-1-1A1,1,0,0,0,70,117ZM66.41,98.12a1.69,1.69,0,1,0-1.11-3,3.72,3.72,0,0,1,.19,1.07,3.4,3.4,0,0,1-.26,1.41A1.69,1.69,0,0,0,66.41,98.12Zm4.12-15.05A1.11,1.11,0,1,0,71.64,82,1.11,1.11,0,0,0,70.53,83.07ZM64.72,50.35a1.49,1.49,0,1,0,1.49-1.49A1.49,1.49,0,0,0,64.72,50.35ZM98.41,74.4a1,1,0,1,0-1,1A1,1,0,0,0,98.41,74.4Zm-2-9.24a1.4,1.4,0,1,0-1.4-1.4A1.4,1.4,0,0,0,96.42,65.16ZM80.55,44.75a1.4,1.4,0,1,0-1.4-1.4A1.4,1.4,0,0,0,80.55,44.75Zm31.12,25.06a1.28,1.28,0,1,0-1.28-1.28A1.28,1.28,0,0,0,111.66,69.81ZM98.41,58a1,1,0,1,0-1,1A1,1,0,0,0,98.41,58ZM94.83,37.28a1.57,1.57,0,0,0-.69.16c0,.9.08,1.87.12,2.91a1.59,1.59,0,1,0,.57-3.07Zm1.59,44.28a1.4,1.4,0,1,0-1.4-1.4A1.4,1.4,0,0,0,96.42,81.56Zm-1.07-11a1.07,1.07,0,1,0-1.07-1.07A1.07,1.07,0,0,0,95.35,70.52Zm6.24-28A2.59,2.59,0,1,0,99,45.11,2.59,2.59,0,0,0,101.59,42.53ZM111.66,65a1.28,1.28,0,1,0-1.28-1.28A1.28,1.28,0,0,0,111.66,65ZM96.42,47.29a1.07,1.07,0,0,0-1.93-.64q0,.66,0,1.32a1.07,1.07,0,0,0,1.89-.68Zm16.52,3.5a1.52,1.52,0,1,0,1.52,1.52A1.52,1.52,0,0,0,112.94,50.79ZM116,47a1.58,1.58,0,1,0,.37,3.11c.08-1,.18-2,.28-3A1.57,1.57,0,0,0,116,47Zm-4.38,11.27a1.28,1.28,0,1,0-1.28-1.28A1.28,1.28,0,0,0,111.66,58.22ZM125,47.47a1.18,1.18,0,1,0-1.18-1.18A1.18,1.18,0,0,0,125,47.47ZM115.64,57a1.17,1.17,0,0,0,1-.65,5.2,5.2,0,0,1-.33-1.45,1.16,1.16,0,0,0-.71-.25,1.17,1.17,0,1,0,0,2.35Zm-2.84-9.15a1.67,1.67,0,1,0-1.67-1.67A1.67,1.67,0,0,0,112.8,47.87Zm4.35-5.07c0-.09,0-.18,0-.26a1.14,1.14,0,1,0,0,.26Zm-4.35-1A1.67,1.67,0,1,0,111.55,39c-.08.61-.15,1.25-.2,1.9A1.66,1.66,0,0,0,112.8,41.82Zm3-2.87a1.35,1.35,0,0,0,1.34-1.26c0-.16,0-.32-.05-.47a1.35,1.35,0,1,0-1.29,1.73ZM96,55.66a1.4,1.4,0,1,0-1.39-1.48c0,.06,0,.12,0,.18A1.39,1.39,0,0,0,96,55.66Zm-9.42,7a1,1,0,1,0-1-1A1,1,0,0,0,86.59,62.61ZM89,60.3a1.4,1.4,0,0,0,1.23-.75c-.35-.94-.8-1.65-1.5-1.83a2.21,2.21,0,0,0-.39-.07A1.4,1.4,0,0,0,89,60.3ZM91.65,72a1.29,1.29,0,1,0-1.29-1.29A1.29,1.29,0,0,0,91.65,72Zm.15-5.25A1.43,1.43,0,0,0,93,66.18c-.81,0-1.27-1-1.62-2.21a1.44,1.44,0,0,0,.47,2.79ZM84.37,43.09a1,1,0,0,0,1,1,.94.94,0,0,0,.32-.06q0-.92,0-1.8a1,1,0,0,0-.29-.06A1,1,0,0,0,84.37,43.09ZM82.8,40.73a.86.86,0,1,0-.86-.86A.86.86,0,0,0,82.8,40.73Zm-.86,5.48a1.71,1.71,0,1,0,1.71,1.71A1.71,1.71,0,0,0,81.95,46.22Zm-1.4-8.94a1.74,1.74,0,0,0-1.22-1.66A21.62,21.62,0,0,0,79.19,39,1.75,1.75,0,0,0,80.55,37.28ZM91.8,76.14a21.69,21.69,0,0,1,1,2.75,1.77,1.77,0,1,0-1-2.75Zm-7.73-40a1.26,1.26,0,0,0,1.13-.7,10.79,10.79,0,0,0-.36-1.56,1.26,1.26,0,1,0-.76,2.27ZM99.6,26.47a1.19,1.19,0,0,0,1.05-.65,3.18,3.18,0,0,0-1.44-1.67,1.19,1.19,0,0,0,.39,2.31Zm2.25,38.11c.11-1.14.21-2.25.29-3.28a1.68,1.68,0,0,0-.54-.1,1.7,1.7,0,1,0,0,3.4ZM101,54.15a1.11,1.11,0,1,0,1.11,1.11A1.11,1.11,0,0,0,101,54.15ZM99.3,49a1.4,1.4,0,0,0,2.79.15l0-.44A1.4,1.4,0,0,0,99.3,49Zm1.4,24.27a1.4,1.4,0,0,0,.5-.1c0-.8.06-1.66.12-2.56a1.39,1.39,0,0,0-.62-.15,1.4,1.4,0,0,0,0,2.81Zm-5-38.18a1.73,1.73,0,1,0-1.71-2c0,.18,0,.38,0,.6A1.73,1.73,0,0,0,95.68,35.07ZM99.3,67.51a.94.94,0,1,0-.94.94A.94.94,0,0,0,99.3,67.51ZM99,36.92a1.55,1.55,0,0,0,2.65,1.1c0-.79-.06-1.55-.08-2.26A1.54,1.54,0,0,0,99,36.92Zm-3.16-7.38A1.57,1.57,0,1,0,94.27,28,1.57,1.57,0,0,0,95.84,29.54Zm3.46.22a.85.85,0,1,0,.85-.85A.85.85,0,0,0,99.3,29.76Zm-14,61.91a1,1,0,1,0,1,1A1,1,0,0,0,85.33,91.67ZM72.33,131a1.26,1.26,0,1,0,1.26,1.26A1.26,1.26,0,0,0,72.33,131Zm4.7-3.28a1.21,1.21,0,1,0,.53,2.29c0-.74-.06-1.48-.1-2.2A1.2,1.2,0,0,0,77,127.72Zm-3.73-2.6a.89.89,0,1,0,.89.89A.89.89,0,0,0,73.29,125.12Zm-.17-8.89A1.79,1.79,0,1,0,74.91,118,1.79,1.79,0,0,0,73.12,116.23Zm5.17-10.15a1.27,1.27,0,0,0-.32,2.49,16.26,16.26,0,0,1,1.47-1.77A1.27,1.27,0,0,0,78.29,106.08ZM75.81,133a.9.9,0,1,0,.9.9A.9.9,0,0,0,75.81,133Zm3.5-31.35a1.23,1.23,0,1,0,1.23,1.23A1.23,1.23,0,0,0,79.32,101.61Zm5.66-2a1.31,1.31,0,0,0-.33,2.59l1.64-1.31A1.31,1.31,0,0,0,85,99.57Zm-3-47.73a1.71,1.71,0,1,0,.63,3.3,20.59,20.59,0,0,0,1.06-1.77A1.71,1.71,0,0,0,81.95,51.84ZM80.8,95.65A1.24,1.24,0,1,0,82,96.88,1.24,1.24,0,0,0,80.8,95.65ZM68.1,133a1.2,1.2,0,1,0-1.2,1.2A1.2,1.2,0,0,0,68.1,133Zm-4.35-51a1,1,0,1,0,1,1A1,1,0,0,0,63.76,81.94ZM62.1,106.12a1.93,1.93,0,0,0-1.9,1.65A24,24,0,0,1,62.36,110a1.93,1.93,0,0,0-.26-3.84Zm4.31-2.54a1.69,1.69,0,1,0-1.69-1.69A1.69,1.69,0,0,0,66.41,103.59Zm-4.79-1.65a1.45,1.45,0,1,0-1.45,1.45A1.45,1.45,0,0,0,61.62,101.93Zm24-6.29a.66.66,0,1,0,.66.66A.66.66,0,0,0,85.64,95.65ZM68.08,126.81a1.67,1.67,0,1,0,1.67,1.67A1.67,1.67,0,0,0,68.08,126.81Zm-.7,11.72,1.63,0,54.81-82.41a1.46,1.46,0,0,0-.29,2.89,16.42,16.42,0,0,0,1.55-2.18A1.46,1.46,0,0,0,123.82,56.12ZM112.94,72.23a1.52,1.52,0,1,0,1.52,1.52A1.52,1.52,0,0,0,112.94,72.23Zm3.87-11.18A1.94,1.94,0,1,0,114.88,63,1.93,1.93,0,0,0,116.81,61.05Zm-9.93,14.41a1.23,1.23,0,0,0,.33,0,1.25,1.25,0,0,0,.91-2.12A12.92,12.92,0,0,1,106.88,75.47ZM110.38,77a1,1,0,1,0,1,1A1,1,0,0,0,110.38,77ZM106,84.6a1.24,1.24,0,0,0,.07.4q.94-.71,1.82-1.48a1.24,1.24,0,0,0-.63-.18A1.26,1.26,0,0,0,106,84.6ZM115.11,67a1.7,1.7,0,0,0,1.7,1.7h.1c.41-1,.79-2,1.15-2.83A1.69,1.69,0,0,0,115.11,67Zm11.05-17.59a.89.89,0,1,0,.89.89A.89.89,0,0,0,126.17,49.43ZM60,98.68a1.63,1.63,0,0,0,1.22-.55,20.19,20.19,0,0,1-2.83-1.42,1.64,1.64,0,0,0,1.61,2Zm63.78-45.8a1,1,0,1,0-1,1A1,1,0,0,0,123.82,52.88Zm-3.69,6.5A1.61,1.61,0,0,0,120,62.6c.5-.52,1.09-1.07,1.71-1.69A1.61,1.61,0,0,0,120.13,59.38ZM102.28,78.82A1.48,1.48,0,0,0,102,78a1.24,1.24,0,0,1-.23-.27,1.49,1.49,0,1,0,.47,1.08Zm-11.11,8a1.77,1.77,0,1,0,1.77,1.77A1.77,1.77,0,0,0,91.17,86.83ZM95,92.18a1.39,1.39,0,0,0,.24.79c.68-.63,1.39-1.23,2.13-1.8a1.4,1.4,0,0,0-2.37,1Zm.59-7.24a1.33,1.33,0,1,0-1.33,1.33A1.33,1.33,0,0,0,95.6,84.94Zm-5.25,9.8a1.55,1.55,0,0,0-.29,3.07c.64-.53,1.26-1.05,1.83-1.57A1.55,1.55,0,0,0,90.36,94.73Zm7.5-7.86a1.44,1.44,0,1,0,1.44,1.44A1.44,1.44,0,0,0,97.86,86.87Zm3.14,1.4a1.47,1.47,0,0,0,0,.26L103.18,87A1.43,1.43,0,0,0,101,88.27ZM102.11,83A1.11,1.11,0,1,0,101,84.15,1.11,1.11,0,0,0,102.11,83Zm5.1-1.91a1.37,1.37,0,1,0-1.37,1.37A1.37,1.37,0,0,0,107.21,81.13ZM87.55,64.37a1.25,1.25,0,0,0-1.25,1.14q.26.56.57,1.17a1.26,1.26,0,1,0,.67-2.31ZM37,56.47a1.13,1.13,0,0,0-.92-1.11c0,.7,0,1.44.1,2.2A1.13,1.13,0,0,0,37,56.47Zm14.74-28a1.12,1.12,0,0,0-1.12-1.12h-.09c-.07.69-.12,1.42-.15,2.2l.24,0A1.12,1.12,0,0,0,51.73,28.44Zm-.66,8.49a1.15,1.15,0,1,0,1.15-1.15A1.15,1.15,0,0,0,51.06,36.93Zm9.6,41.19a1.45,1.45,0,1,0-1.45,1.45A1.45,1.45,0,0,0,60.67,78.12ZM54.28,34.43a2.07,2.07,0,1,0-2.07-2.07A2.07,2.07,0,0,0,54.28,34.43Zm.2-7.38a1.12,1.12,0,1,0-1.12-1.12A1.12,1.12,0,0,0,54.48,27Zm-14,27.62a2.14,2.14,0,0,0,1.6-.73,9.33,9.33,0,0,0-1.29-3.55,2.13,2.13,0,0,0-.32,0,2.15,2.15,0,1,0,0,4.31ZM49.49,92a1.33,1.33,0,0,0,1.3-1c-.5-.52-1-1-1.45-1.6A1.33,1.33,0,0,0,49.49,92Zm6.6-52.88a.84.84,0,0,0,.84.84.82.82,0,0,0,.45-.15q0-.73-.06-1.43a.82.82,0,0,0-.38-.1A.84.84,0,0,0,56.09,39.1ZM40.8,66.61a1.47,1.47,0,0,0,1.47,1.47l.28,0c0-.92,0-1.88,0-2.86a1.45,1.45,0,0,0-.33,0A1.47,1.47,0,0,0,40.8,66.61Zm4.31,19.48a1.37,1.37,0,0,0,1.31-1c-.32-.56-.64-1.13-.92-1.7a1.37,1.37,0,1,0-.39,2.69ZM39,60.66a1.8,1.8,0,1,0,1.8-1.8A1.8,1.8,0,0,0,39,60.66Zm17.34-8.19a.86.86,0,0,0,.86.86.84.84,0,0,0,.83-.72l0-.37a.84.84,0,0,0-.81-.63A.86.86,0,0,0,56.34,52.47Zm0,14.78a1.19,1.19,0,1,0,1.19-1.19A1.19,1.19,0,0,0,56.34,67.25Zm-2.72,5.17a1,1,0,1,0,1-1A1,1,0,0,0,53.63,72.42Zm5.95,13.49c.52.79,1,1.55,1.53,2.27a1.43,1.43,0,1,0-1.53-2.27ZM55.29,62.41a.83.83,0,1,0-.83.83A.83.83,0,0,0,55.29,62.41ZM57.2,46.22a1.11,1.11,0,1,0-1.11,1.11A1.11,1.11,0,0,0,57.2,46.22ZM54.06,75.34q.45,1.24,1,2.42a1.31,1.31,0,1,0-1-2.42Zm.19-19.84a2.09,2.09,0,1,0,2.09,2.09A2.09,2.09,0,0,0,54.25,55.51ZM55,96.17a1.36,1.36,0,0,0,1.26-.85c-.68-.46-1.41-1-2.15-1.53A1.35,1.35,0,0,0,55,96.17ZM52.21,41.12a1.15,1.15,0,1,0,1.15,1.15A1.15,1.15,0,0,0,52.21,41.12ZM36.89,65.62a1.78,1.78,0,0,0-.33-3.52C36.68,63.32,36.8,64.51,36.89,65.62ZM49.12,96.89a1.7,1.7,0,0,0-1.21.51c.43.44.88.88,1.37,1.33l1.1,1a1.7,1.7,0,0,0-1.26-2.85Zm-4-6a1.38,1.38,0,0,0-1.38,1.38,1.36,1.36,0,0,0,0,.3l.69.9a1.36,1.36,0,0,0,.66.17,1.38,1.38,0,1,0,0-2.75Zm0-3.67a1.38,1.38,0,1,0,1.38,1.38A1.38,1.38,0,0,0,45.11,87.22Zm8.26-36.44a1.63,1.63,0,0,0-2.78-1.17c0,.8.07,1.61.11,2.43a1.63,1.63,0,0,0,2.67-1.26Zm1.92,47.82a1,1,0,1,0-1,1A1,1,0,0,0,55.29,98.61Zm0,3a1.66,1.66,0,0,0-1.51,1c.87.69,1.71,1.35,2.53,2a1.65,1.65,0,0,0-1-3Zm3.44-30a1.19,1.19,0,1,0-1.19,1.19A1.19,1.19,0,0,0,58.72,71.64Zm-16.46-.19a1.47,1.47,0,1,0,.38,2.87c-.08-.78-.12-1.75-.13-2.85Zm12-4.43A1.26,1.26,0,0,0,52,66.27c.08.59.17,1.18.27,1.76a1.26,1.26,0,0,0,2-1ZM50.09,93.45a1,1,0,1,0,1,1A1,1,0,0,0,50.09,93.45ZM30.87,65.75a2.07,2.07,0,1,0,1.91,2.86c-.52-.91-1.07-1.9-1.65-2.84Zm10.06,12.6a1.34,1.34,0,1,0,1.34,1.34A1.34,1.34,0,0,0,40.93,78.35ZM30.21,70.91a1.4,1.4,0,1,0,1.4,1.4A1.4,1.4,0,0,0,30.21,70.91Zm35.5-30.35a1.45,1.45,0,0,0-1.41-1.45q-.22,1.4-.4,2.86a1.44,1.44,0,0,0,1.81-1.41ZM26.06,65.75a1.42,1.42,0,0,0-1,.45,16.19,16.19,0,0,0,1,2.41,1.43,1.43,0,0,0,0-2.87ZM40.93,85.54a1.33,1.33,0,0,0-1.2.75l1.15,1.91h0a1.34,1.34,0,1,0,0-2.67ZM38.29,67.07a1.3,1.3,0,0,0-1.27,1c0,.21,0,.41,0,.61a1.3,1.3,0,1,0,1.26-1.61Zm-2.6,12.29a1.29,1.29,0,0,0-.92.38,23.81,23.81,0,0,1,1.76,1.9,1.29,1.29,0,0,0-.85-2.28Zm.8-6a1.77,1.77,0,1,0,1.77,1.77A1.77,1.77,0,0,0,36.49,73.41Z"/><path class="cls-27" d="M86.72,22.51c2.39-.27,5.07-2.25,7.08-1.52s3,2.91,2.46,3.34S91.64,21.95,86.72,22.51Z"/><path class="cls-28" d="M95.09,16c3.11,1.33,8.82-.5,12.45-2.82,1.35,2.87-1.77,4.77-2.83,7.22-.93,2.17-.51,3.33-1.73,4.73-1.1-1.81-3.42-5.32-7.89-4Z"/><path class="cls-28" d="M76.09,13.5c3.47-1.53,5.6-2.63,12.47-2.34a52.64,52.64,0,0,1,12.92,2.34c-3.78.26-6,.49-7,2.9Z"/><path class="cls-27" d="M78.3,22.67c.31.46,0,1.06-.66,1.49s-1.31.52-1.62.06c-.5-.74-.81-2.3-.18-2.73S77.8,21.94,78.3,22.67Z"/><path class="cls-29" d="M99.56,18.65c0,2.1-14.45,5.12-19.18,5.12-6.17,0-11-3.38-11-5.12s4.86-5.8,11-5.8C85.11,12.85,99.56,16.55,99.56,18.65Z"/><path class="cls-30" d="M76.19,19.7c-2.07,0-2.62.5-2.62,1.12s.54,1.12,2.62,1.12c2.35,0,5.88-.5,5.88-1.12S78.54,19.7,76.19,19.7Zm3.58-3.49c3.12,0,7.82-.5,7.82-1.12S82.89,14,79.77,14c-2.76,0-3.48.5-3.48,1.12S77,16.22,79.77,16.22Zm7.75,3.56c-2.45.61-3,1.26-2.82,1.86s.91.93,3.36.31c2.78-.69,6.83-2.22,6.68-2.82S90.29,19.09,87.52,19.78Zm5.05-3.43c-2-.44-2.63-.22-2.72.2s.37.87,2.39,1.31c2.29.5,5.82.91,5.91.49S94.86,16.85,92.57,16.35ZM88.19,18c0-.43-3.54-.77-5.88-.77-2.07,0-2.62.34-2.62.77s.54.77,2.62.77C84.65,18.73,88.19,18.39,88.19,18Z"/><circle class="cls-20" cx="73.22" cy="17.63" r="1.23"/><circle class="cls-6" cx="73.22" cy="17.63" r="0.82"/><path class="cls-17" d="M103,25.14c1.22-1.39.8-2.56,1.73-4.73a6.61,6.61,0,0,1,.49-.91c-8.52-2.62-28,.24-35.8-1.19a1.24,1.24,0,0,0-.05.34c0,1.74,4.86,5.12,11,5.12a65.67,65.67,0,0,0,14.71-2.68C99.56,19.82,101.88,23.32,103,25.14Z"/><path class="cls-17" d="M80.38,23.77a65.67,65.67,0,0,0,14.71-2.68,7.42,7.42,0,0,1,.79-.18c-5.79-1.49-20.93-.57-26.27-1.48C70.68,21.24,75,23.77,80.38,23.77Z"/><path class="cls-19" d="M88,22.8c2.36-.48,4.85-2.69,6.92-2.14s3.25,2.63,2.74,3.11S92.89,21.81,88,22.8Z"/><path class="cls-19" d="M79.15,22.4c.4.39.18,1-.36,1.58s-1.19.77-1.58.37c-.63-.63-1.25-2.1-.71-2.64S78.52,21.78,79.15,22.4Z"/><path class="cls-21" d="M75.07,16c-.33-.93,2.18-2.66,5.4-2.48s9.12,1.28,9.25,2.17S82.12,17,79.35,17,75.34,16.74,75.07,16Z"/></g></g></g></svg>