<svg xmlns="http://www.w3.org/2000/svg" viewBox="0 0 138.24 138.53"><defs><style>.cls-1{isolation:isolate;}.cls-2{fill:#99d1ff;}.cls-3{fill:#5bcaf4;}.cls-4{fill:#404041;}.cls-5,.cls-8{fill:#fff;}.cls-6{fill:#6dcef5;}.cls-7{fill:#00aae5;}.cls-8,.cls-9{opacity:0.2;}.cls-9{fill:#231f20;mix-blend-mode:multiply;}.cls-10{fill:#dbccbd;}.cls-11{fill:#dbbfa5;}</style></defs><title>Asset 7</title><g class="cls-1"><g id="Layer_2" data-name="Layer 2"><g id="Layer_1-2" data-name="Layer 1"><circle class="cls-2" cx="69.12" cy="69.12" r="69.12"/><path class="cls-3" d="M97.06,92.78c1,.14-1-2.11-.65-4.15.71-3.75,9.77-6.61,20.58-1.93s-14.39,7.36-18.35,7.06S97.06,92.78,97.06,92.78Z"/><path class="cls-3" d="M96.82,97.2c.82-.3-3.8,6.63,4.21,7.5s11-2,11-2-12.27-7.1-14.3-6.95S96.82,97.2,96.82,97.2Z"/><path class="cls-4" d="M98.09,92.92c1.27,0,4.92-7.23,13.84-7.23s15.41,9.43,15.41,11-6.59,8.05-15,8.05c-12.47,0-12.93-7.8-14.7-7.8-.81,0-2.38,1.67-4.16,1.67-1.25,0-1.87-1.83-1.87-3.55S92.21,91,93.37,91,95.81,92.92,98.09,92.92Z"/><path class="cls-3" d="M96,92.34c-1.07-.58-1.86-1.38-2.6-1.38C92.21,91,91.6,93.29,91.6,95s.62,3.55,1.87,3.55a5.29,5.29,0,0,0,2.6-.93A10,10,0,0,1,96,92.34Z"/><path class="cls-4" d="M98.36,90.26c-.38-.15-1.11.24-1.09.66s.37,1.18.94,1.14S98.75,90.42,98.36,90.26Zm1.9-1.24a1.26,1.26,0,0,0-1.47.64c-.15.41.59,1.27,1,1.05S100.71,89.27,100.26,89Zm.81.15c0,.41,1.5-.24,1.23-.7S101.06,88.84,101.07,89.18Zm-3.44.44c.43.31,1.52-1.07,1.24-1.66s-1.24-.28-1.55,0S97.24,89.33,97.64,89.62Zm1.59-2.38c.37-.17.59-.88.3-1s-.78.26-.9.5S98.85,87.4,99.23,87.23Zm2.8-1.8c0,.59.73,1,1.25.95s1.18-1.07.88-1.35S102,84.84,102,85.43Zm6-.56c-.26.17,0,.69.38.75s1.63-.09,1.63-.31A2.7,2.7,0,0,0,108.07,84.88Zm-1.62-.2c-.38.2.19,1.53,1,1.31S107,84.37,106.45,84.68Zm-5.84,1.38c-.57.24-.85,1.92-.39,2.23s2.12-.21,2.14-1.16S101.17,85.82,100.61,86.06Zm4.91-1.18c-.62-.18-1.24,1-1,1.37.13.22,1.13.5,1.49.14S105.86,85,105.52,84.88Zm-2.63,2.25c-.19.33-.08.91.52.72s.93-.63.81-1S103.12,86.72,102.88,87.12Z"/><path class="cls-4" d="M102.38,103.49c.4-.4-.71-1.68-1.3-1.85a.85.85,0,0,0-1,1C100.2,103.28,102,103.9,102.38,103.49ZM96.85,100c-.36.21-.24,1.42,0,2s1.12,0,1.1-.45C97.93,100.89,97.08,99.85,96.85,100Zm1.23.45c0,.71.9,1.68,1.23,1.63.73-.1.81-1.32.64-1.63C99.58,99.73,98.12,99.93,98.08,100.44Zm.71-1c.33-.71-.93-2.05-1.35-1.87s-.5,1.16-.26,1.78C97.33,99.72,98.55,100,98.79,99.42Zm6,4.57c-.33-.31-1.19-.9-1.77-.58-.22.12-.07,1.3,1.12,1.16C104.6,104.52,105.1,104.26,104.81,104Zm-6.73-1.91c-.4.24-.28.94.21,1.39.32.3,1.26.68,1.42,0S98.43,101.87,98.08,102.07Zm1.95,1.87c-.08.39,2.77.72,2.7.36S100.1,103.56,100,103.95Z"/><path class="cls-5" d="M104.74,100.34a5.35,5.35,0,0,0,1.34-.28,3.33,3.33,0,0,0,1.55-1.2,17.8,17.8,0,0,1,1.56-1.42,2.07,2.07,0,0,0,.66-1.71,3,3,0,0,0-.68-1.65A4.8,4.8,0,0,0,108,92.7c-.52-.39-1.09-.68-1.61-1.07a3.52,3.52,0,0,0-2.12-.63,13.56,13.56,0,0,0-1.82.12c-.5.07-1,0-1.5.1s-1.13.65-1.72.86l-.42.4a1.92,1.92,0,0,0,.95-.22,4.13,4.13,0,0,1,1.49-.56c.93,0,1.84.13,2.76,0a2.79,2.79,0,0,1,2.14.27c.5.37.69,1,1.16,1.36s1.26.71,1.56,1.31a1.82,1.82,0,0,1,.19.85,2,2,0,0,1-.32.88,2.2,2.2,0,0,1-.53.73,5.7,5.7,0,0,0-.71.59c-.49.59-.76,1.38-1.46,1.78a2.35,2.35,0,0,1-1.17.25,6.11,6.11,0,0,0-1.27.28c-.5.13-1,.31-1.51.4a.94.94,0,0,1-.82-.23A6.55,6.55,0,0,1,100.23,99c-.24-.27-.4-.64-.77-.75a1.45,1.45,0,0,0-.46,0l.21.31a.94.94,0,0,1,.66.39,12.06,12.06,0,0,0,.82,1.12,2,2,0,0,0,1.29.63,7.91,7.91,0,0,0,1.7-.3A10,10,0,0,1,104.74,100.34ZM112.28,96a6.81,6.81,0,0,0-.06-2.17,7.24,7.24,0,0,1-.27-1.08,2.15,2.15,0,0,0-.21-.91,10.28,10.28,0,0,0-1.32-1.43,4,4,0,0,0-1.51-.88c-.44-.2-1.07-.34-1.36-.71a3.38,3.38,0,0,0-1.36-.89,1.22,1.22,0,0,0-.76-.2c-.28,0-.53.15-.82.16a2.88,2.88,0,0,1-.39,0l-.36.22c.3.61,1.66,0,2.2.1.35.09.64.54.89.79a3.18,3.18,0,0,0,1.44.95,4.79,4.79,0,0,1,2.25,1.25,2.81,2.81,0,0,1,.9,1.76c0,.42,0,.85,0,1.28s.08.79.08,1.2a11.62,11.62,0,0,1-.22,1.59,5,5,0,0,1-.33,1.25,6.63,6.63,0,0,1-1.39,2,24.6,24.6,0,0,0-1.45,2,1.61,1.61,0,0,1-.89.6c-.36.1-.73.27-1.09.36a8.4,8.4,0,0,1-1.89-.12l-.18,0c.35.17.72.33,1.12.48a5.25,5.25,0,0,0,.91.07,4.49,4.49,0,0,0,1.9-.79,2.13,2.13,0,0,0,.79-.63c.17-.26.23-.58.38-.85a2.59,2.59,0,0,1,.69-.63c.26-.22.49-.41.76-.6a3.3,3.3,0,0,0,1.14-1.76A10.6,10.6,0,0,0,112.28,96Zm-11.4,2.78a3,3,0,0,0,.85.21c.69.1,1.15-.31,1.78-.39.38,0,.72.11,1.1,0a6.56,6.56,0,0,0,1-.47,5,5,0,0,0,1.25-1.39c.26-.33.18-.53.09-.91a5,5,0,0,0-.16-.74,2.57,2.57,0,0,0-.43-.69c-.15-.18-.28-.38-.44-.57a2.92,2.92,0,0,0-1.63-.84,2.89,2.89,0,0,0-.83-.12,1.42,1.42,0,0,1-.84-.25,2.44,2.44,0,0,0-1.62-.3,5.9,5.9,0,0,0-1,.32,4,4,0,0,1-.67.29,1,1,0,0,1-.83-.11l-.15.08c.19.24.8.3,1,.32a4.28,4.28,0,0,0,1.46-.36,1.94,1.94,0,0,1,1.45,0c.21.13.35.38.54.53s.67.14,1,.14a2.91,2.91,0,0,1,1.73.39,2.28,2.28,0,0,1,.64,1.42c.11.74-.42,1.39-.65,2.06s-.9.52-1.55.69c-.4.11-.82.16-1.22.26a2.24,2.24,0,0,1-.77.12c-.61-.07-.84-.67-1.4-.8a3.24,3.24,0,0,1-.73-.18,3.59,3.59,0,0,0-.73-.33A2.44,2.44,0,0,0,98,97a1.38,1.38,0,0,1,.26.21h.16a1.37,1.37,0,0,1,.58.27c.4.26.81.48,1.21.73C100.44,98.39,100.62,98.62,100.88,98.76Zm-1.15-2.12c.21.12.47.12.68.26s.39.51.63.6a2,2,0,0,0,.8-.06c.34-.06.66-.14,1-.17a1.12,1.12,0,0,0,.77-.27,2.46,2.46,0,0,0,.77-1.57c-.09-.85-1-.65-1.65-.84-.31-.09-.35-.24-.59-.39a2.7,2.7,0,0,0-.91-.3,1.17,1.17,0,0,0-.79.17,2.37,2.37,0,0,1-.72.1c-.65.1-.71,1-.71,1a1.74,1.74,0,0,0,.2,1A1.58,1.58,0,0,0,99.73,96.64Zm.6-2.1c.26-.09.41,0,.69,0a3.46,3.46,0,0,1,.69.08c.24.06.46.21.7.27a4.93,4.93,0,0,1,.78.16.69.69,0,0,1,.27,1.15,1.63,1.63,0,0,1-1.2.39,2.19,2.19,0,0,0-.72.12c-.21.07-.4.22-.62.15a2.23,2.23,0,0,1-.9-.63,5.35,5.35,0,0,1-.4-.43,1.77,1.77,0,0,1-.16-.56C99.47,94.87,100,94.68,100.33,94.54Zm14.51-.26a15,15,0,0,1-.47-1.83c-.1-.65,0-1.31-.08-2a6,6,0,0,0-.49-1.62,1.52,1.52,0,0,0-.51-.74c-.28-.19-.62-.31-.9-.49a7.57,7.57,0,0,1-1.22-.84,4.3,4.3,0,0,1-.6-.57,1.84,1.84,0,0,0-.33-.45l-.63.08c-.11.69.63.79,1.11,1.17a14.27,14.27,0,0,0,1.74,1.12,2.66,2.66,0,0,1,1.17,1.34,6.5,6.5,0,0,1,.06,1.84c0,.72.08,1.42.08,2.14a7.19,7.19,0,0,0,.6,2c.43,1.38-.21,3-.79,4.3a8,8,0,0,0-.62,1.59,7.85,7.85,0,0,1-.7,1.89c-.26.5-.7.88-1,1.37v0l.65,0a6,6,0,0,0,1.2-1.22,10.23,10.23,0,0,0,.47-.91,5.29,5.29,0,0,0,.24-1,3.89,3.89,0,0,1,.69-1.62,2.93,2.93,0,0,0,.58-1.61,14.58,14.58,0,0,0,.14-2.11A8.15,8.15,0,0,0,114.84,94.28Zm10.88-.51,0-.09-.2-.26a2.81,2.81,0,0,1-.63,1.43c-.39.42-1,.65-1.27,1.14a2,2,0,0,0-.1,1.54,4.39,4.39,0,0,1,.32,1.51,2.74,2.74,0,0,0,.08,1.06,2.06,2.06,0,0,0,.17.32l.35-.28h0a1.86,1.86,0,0,1-.07-.68c0-.54.22-1,.22-1.48s-.36-.91-.38-1.43a1.9,1.9,0,0,1,.71-1.43A3.31,3.31,0,0,0,125.72,93.76Zm-9.15,1.61a4.73,4.73,0,0,1,.16,2.05,4.22,4.22,0,0,0,.2-3.33,10.53,10.53,0,0,0-.63-1.59,2.12,2.12,0,0,1,.07-1.58,5.65,5.65,0,0,0,.58-3.21,4.17,4.17,0,0,0-.65-1.28q-.47-.16-1-.29a1.58,1.58,0,0,0,.18.52c.14.2.31.41.45.6a2.76,2.76,0,0,1,.32,1,3.57,3.57,0,0,1-.25,2.14c-.12.37-.12.76-.22,1.12a3.66,3.66,0,0,0-.1,1.26,3.13,3.13,0,0,0,.16.84c.08.18.24.3.33.47A4.61,4.61,0,0,1,116.56,95.37Zm9.87-.25.16-.23-.3-.46a7.76,7.76,0,0,1-.46.67,2.64,2.64,0,0,0-.68.82c-.27.74.24,1.45.49,2.08a9.51,9.51,0,0,1,.14,1l.34-.35c0-.11,0-.2,0-.24a2.35,2.35,0,0,0-.22-1.14.84.84,0,0,1-.1-1A9.22,9.22,0,0,1,126.43,95.13Zm-7.89,4.34a1.69,1.69,0,0,1-.22.71c-.3.54-.85.73-1.23,1.18a3.84,3.84,0,0,0-.8,2.21,2.29,2.29,0,0,1-.12.68l.47-.11a4.78,4.78,0,0,1,.09-.59,4.42,4.42,0,0,1,.6-1.89c.39-.48,1-.55,1.28-1.15a3.1,3.1,0,0,0,0-1.53C118.5,99.11,118.55,99.29,118.53,99.47Zm1.7-11.05.18.36a2.54,2.54,0,0,1,.24,1.22,1.22,1.22,0,0,1-.18.9c-.17.24-.39.44-.55.68a5.25,5.25,0,0,0-.81,4.82c.27.74.44,1.51.73,2.24.19.49.48,1,.63,1.46a2.61,2.61,0,0,1-.16,1.67,5,5,0,0,0-.41,1.22l.27-.12a1.57,1.57,0,0,1,.07-.55c.2-.54.66-.89.8-1.47a2.52,2.52,0,0,0-.32-1.78,7.84,7.84,0,0,1-.81-1.89,11.13,11.13,0,0,1-.36-2,3.34,3.34,0,0,1,.47-2c.3-.57.81-1,1.08-1.62a4.41,4.41,0,0,0,.38-1.73,2.83,2.83,0,0,0,0-.6C121,89,120.64,88.69,120.23,88.41Z"/><path class="cls-6" d="M114.85,102.49a4.93,4.93,0,0,1-.52,1.23,1.15,1.15,0,0,1-.37.56c-.22.15-.48.11-.71.22a1,1,0,0,0-.28.19q.64,0,1.26-.1c.21-.46.7-.65.89-1.14a12.15,12.15,0,0,0,.24-1.22,3.28,3.28,0,0,0,.22-1.12C115,100.82,114.9,102.2,114.85,102.49Zm-5.11-3.66a4.46,4.46,0,0,0,.63-.88,5.23,5.23,0,0,0,.12-4.35,6.06,6.06,0,0,0-.61-1,5.92,5.92,0,0,0-.6-.92,12.26,12.26,0,0,0-1.22-1.27,4.84,4.84,0,0,0-2.88-.78,20.28,20.28,0,0,1-2.21.09c-.34,0-.68-.16-1-.21l-.52.46h0c1.1.08,2.22,0,3.31,0a5.14,5.14,0,0,1,1,.09,6.81,6.81,0,0,1,.79.34,3.4,3.4,0,0,1,.76.28c.25.16.45.38.71.53a2.89,2.89,0,0,1,.83.6,5.92,5.92,0,0,1,.46.87,14.41,14.41,0,0,1,.88,1.65,3.55,3.55,0,0,1,.25,1.81c0,.24,0,.52,0,.76a1.49,1.49,0,0,1-.35.6c-.33.45-.62.94-.94,1.41s-.82.7-1.11,1.15a2.35,2.35,0,0,1-.54.72,7.3,7.3,0,0,1-1,.56,4.33,4.33,0,0,1-1.58.28,15.1,15.1,0,0,1-1.85,0,5.26,5.26,0,0,0-1.37-.07l.43.35.4,0c.44,0,.86.12,1.31.12a11.4,11.4,0,0,0,1.74.05,3.43,3.43,0,0,0,1.76-.86c.26-.24.48-.52.72-.78a8.88,8.88,0,0,1,1-.74A4.56,4.56,0,0,0,109.74,98.82ZM118.22,93a20,20,0,0,0,.93-2.08,8,8,0,0,0,0-2.22,4.43,4.43,0,0,0-.19-1.05l-.79-.42c.14.51.31,1,.46,1.54a4.2,4.2,0,0,1,.22,1.66,14.06,14.06,0,0,1-1,2.29,4.73,4.73,0,0,0-.07,2.44,5.93,5.93,0,0,0,.49,1.93C118.44,95.71,117.72,94.37,118.22,93Zm-5.16-.5a3.27,3.27,0,0,0-.46-1c-.16-.3-.23-.64-.38-1s-.27-.48-.4-.72a1.92,1.92,0,0,0-.76-.69,5.23,5.23,0,0,1-1.83-1.73c-.11-.23-.25-.46-.35-.69s-.08-.46-.16-.67l-.43.1a1.44,1.44,0,0,0,0,.22,2.65,2.65,0,0,0,.17.58,4.2,4.2,0,0,0,1,1.61c.42.45,1,.72,1.42,1.12a2.9,2.9,0,0,1,.44.58,7.71,7.71,0,0,0,.61.66,4.39,4.39,0,0,1,.63,1.75,9.32,9.32,0,0,1,.25,1c0,.37,0,.74.12,1.1a3.14,3.14,0,0,1,.05,2.07,2.36,2.36,0,0,0-.22.87,6.07,6.07,0,0,1-.2,1.1,3.36,3.36,0,0,1-1,1.66,5.51,5.51,0,0,0-1.06,1.25,3.44,3.44,0,0,0-.27,1.1,2.06,2.06,0,0,1-.4.89,4.38,4.38,0,0,1-.49.69l-.16.15.57.06c.73-.63.92-2.18,1.31-2.87a6.19,6.19,0,0,1,.73-.92c.23-.27.34-.59.58-.86a5.86,5.86,0,0,0,1-2.32C113.81,95.94,113.36,94.15,113.06,92.5Zm-7,5.77a1.87,1.87,0,0,1-.72.49c-.24.12-1.22.39-1.18.69a1.62,1.62,0,0,0,1.14-.26l.54-.45c.26-.2.57-.34.82-.56a3.78,3.78,0,0,0,.78-1.26A5,5,0,0,0,108,95.8a2,2,0,0,0-.29-1,2.28,2.28,0,0,0-.49-.94,3.64,3.64,0,0,1-.75-.74,1.28,1.28,0,0,0-.65-.61,8.88,8.88,0,0,0-1-.28c-.28-.08-.65-.25-.93-.06l0,.09a1.08,1.08,0,0,1,.51.06c.17.1.23.3.44.37.38.13.73,0,1.1.27a5,5,0,0,1,.78.84,2.62,2.62,0,0,1,.64.92,3.11,3.11,0,0,1-.78,2.91A4.94,4.94,0,0,0,106.08,98.27Zm7.23-11.67a9.25,9.25,0,0,0,.93.81,3,3,0,0,1,.89,2.45c.51-.06-.18-2-.29-2.34-.17-.46-.42-.53-.73-.83a2.06,2.06,0,0,1-.39-.87q-.54-.08-1.09-.11a.83.83,0,0,0,.07.22A3.09,3.09,0,0,0,113.32,86.6ZM103.2,95.77a6.76,6.76,0,0,1-.95-.06c-.35-.07-.41-.37-.7-.48a2.47,2.47,0,0,0-1.64.25l-.12,0c.21.16.63,0,.89,0a1.45,1.45,0,0,1,.92.23C101.8,95.86,103.3,96.27,103.2,95.77Zm.2,1.78c-.25.16-.47.35-.05.41a1.1,1.1,0,0,0,.77-.28,4.75,4.75,0,0,0,.65-.7,2.59,2.59,0,0,0,.6-.78c.24-.54,0-.81-.11-1.33s0-.41-.44-.53a4.84,4.84,0,0,0-1.09-.37h0c.11.32.47.48.72.72a1.52,1.52,0,0,1,.37,1.1C104.82,96.68,104.07,97.12,103.4,97.55Zm21.58,0a1.32,1.32,0,0,0-.06-.21Zm-6.62,4.93a11.74,11.74,0,0,0-.46,1.3h0l.55-.19a5,5,0,0,1,.35-1.15,5.53,5.53,0,0,1,.39-.81c.13-.21.42-.4.36-.69C119,100.84,118.52,102.11,118.36,102.46Zm4.39-9.34a2.11,2.11,0,0,0-.49,1.53,2.9,2.9,0,0,1,.78-1.4c.3-.31.72-.51,1-.8a3.86,3.86,0,0,0,.35-.38l-.33-.36C123.73,92.23,123.16,92.61,122.75,93.12Zm2.54,5.79a5.87,5.87,0,0,0-.31-1.38,4.62,4.62,0,0,1-.07,1.38c0,.29,0,.6,0,.88l.4-.36A4.29,4.29,0,0,0,125.29,98.91ZM122,92.8a2.5,2.5,0,0,0,.89-1.28,2.87,2.87,0,0,0,0-1l-.62-.56a2,2,0,0,1,0,.21,8.45,8.45,0,0,1-.18,1.07,6.24,6.24,0,0,1-.19.83,4,4,0,0,1-.51.81c-.41.64-.88,1.64-.27,2.28a2.37,2.37,0,0,1,.06-1.13A3.28,3.28,0,0,1,122,92.8Zm.32,4.93c-.17-.42-.49-.74-.67-1.15,0,.42.29.73.46,1.06a4.26,4.26,0,0,1,.37,1.86c0,.44-.07.85-.12,1.28s0,.6-.08.9q.51-.31,1-.64a4,4,0,0,0-.4-2C122.68,98.63,122.52,98.19,122.33,97.73Zm-.06-2.92c0-.06,0-.11,0-.17A.8.8,0,0,0,122.26,94.81Z"/><circle class="cls-7" cx="122.96" cy="94.15" r="1.37"/><circle class="cls-4" cx="122.96" cy="94.15" r="0.92"/><path class="cls-8" d="M119.9,90.38c0,1.74-3.7,2.54-8.26,2.54s-8.26-.81-8.26-2.54,4-3.75,8.56-3.75S119.9,88.64,119.9,90.38Z"/><path class="cls-9" d="M126.89,97.66c-7.9.58-21.63-1.94-30.45,1.35-.49,2-.58,5.12,4.59,5.68a21.32,21.32,0,0,0,7.31-.31,24,24,0,0,0,4,.31C119.45,104.7,125.27,100,126.89,97.66Z"/><path class="cls-9" d="M96.37,101.78c.38,1.36,1.6,2.58,4.66,2.91a21.32,21.32,0,0,0,7.31-.31,24,24,0,0,0,4,.31,19.79,19.79,0,0,0,12-4.45C116.25,101.17,103.49,98.6,96.37,101.78Z"/><path class="cls-10" d="M77.62,133.32c0-9.1-1.45-17.32-.79-22.2S89.09,99.52,94,94.25s12.66-8.31,17.14-14.11,6.46-14.63,8.44-17,6.46-5,7.51-12-1.06-7.52-2-7.65c-1.37-.19-2.39,1.47-2.5,4-.26,5.67-3,10.28-5.24,9.62s-.29-11.47-.16-14.63.45-9.08-2.77-9-3.16,9.11-3.43,14.9S109.43,62.8,109.51,67c.13,6.9-4.87,12.05-7.23,11.13s-.14-13.45,0-19.51-.76-21.08-.79-26.76c0-5.07-.77-8-3.69-8-3.38,0-4,2.51-3.82,9,.12,5.81,1.85,33-.79,33.35s-1.87-7.75-4.49-8.44c-2-.54-4.18,1.94-3.16,5.8,1,3.7,7.38,12.52,7.65,17.27S80.65,97,76.83,94.64C73.16,92.36,71.29,72.1,75.25,65S85.83,55,85.66,44.41c-.11-7.27-.13-12.66-3-12.66s-3.58,2.9-3.43,7.51c.26,8.17-2.37,15.69-5.67,15.16C69.62,53.8,71.16,42,72.08,32.55s-.53-17.27-3.43-17.27-3.3,3.16-3,11.6-3.44,16-1.6,27,2.44,20.63-.66,21.75c-2.9,1.06-4.88-10.28-5.14-18.06s-1.05-18.85-1.05-24.26-.66-10.55-4-10.68-2.9,7.38-2.9,14S50.5,59,52.61,70.11C55.14,83.39,65.49,92,65.49,96.22S61,99,53.63,93.45A30.1,30.1,0,0,1,42.68,74.65c-.79-6,1.84-25.23-4-25.49s0,19.12-2.24,22.54-6.2-12-10.55-9.89,3,12.39,8.7,17.8,6.07,11.07,14.63,19.12,16.61,10.55,16.48,20.83S65,138.24,65,138.24C73.72,138.24,77.62,140.12,77.62,133.32Z"/><path class="cls-11" d="M67.3,73a.89.89,0,1,0-.89-.89A.89.89,0,0,0,67.3,73ZM65.71,83.3a1.65,1.65,0,1,0,1.65-1.65A1.65,1.65,0,0,0,65.71,83.3Zm3.6-23.13a1.2,1.2,0,1,0-1.2,1.2A1.2,1.2,0,0,0,69.31,60.18ZM77,59.12a1.06,1.06,0,1,0,1.06-1.06A1.06,1.06,0,0,0,77,59.12ZM74.18,93.44a1,1,0,1,0-1,1A1,1,0,0,0,74.18,93.44ZM72.43,70.26a1.1,1.1,0,1,0,.93,1.69c0-.31.08-.61.12-.91A1.1,1.1,0,0,0,72.43,70.26Zm-1.6,20.52a1.09,1.09,0,1,0-1.09-1.09A1.09,1.09,0,0,0,70.83,90.77ZM69,37.28a.81.81,0,1,0-.81.81A.81.81,0,0,0,69,37.28Zm3.13,62.37A1.16,1.16,0,1,0,71,98.49,1.16,1.16,0,0,0,72.13,99.66Zm-5.72-35.9a1.3,1.3,0,1,0,1.3-1.3A1.3,1.3,0,0,0,66.41,63.76ZM76,100.23a1.05,1.05,0,1,0-1.06-1.06A1.05,1.05,0,0,0,76,100.23Zm-.16,21.82a.89.89,0,1,0-.89-.89A.89.89,0,0,0,75.81,122.05Zm-8.9-78a1.54,1.54,0,1,0,1.54-1.54A1.54,1.54,0,0,0,66.9,44.05Zm8.9,13.18a.89.89,0,1,0-.89-.89A.89.89,0,0,0,75.8,57.23Zm0,56.52a.89.89,0,0,0,.86-.7c0-.11,0-.21,0-.32a.89.89,0,0,0-.88-.79.9.9,0,0,0,0,1.8Zm2.48-62.15a1.24,1.24,0,0,0-.73-1.13,11.34,11.34,0,0,1-1.13,2.21,1.23,1.23,0,0,0,.61.17A1.24,1.24,0,0,0,78.29,51.61ZM65.71,117.75a1.67,1.67,0,1,0-.67-3.2,13.87,13.87,0,0,1,.66,3.2Zm4-6.71a1.64,1.64,0,1,0-1.64,1.64A1.64,1.64,0,0,0,69.74,111Zm4.09-5.94a1.08,1.08,0,1,0,1.08,1.08A1.08,1.08,0,0,0,73.83,105.11Zm-7.3,20a.94.94,0,1,0-.87-1.31l0,.66A.93.93,0,0,0,66.53,125.12Zm4-47.8a1.23,1.23,0,1,0-1.23,1.23A1.23,1.23,0,0,0,70.53,77.32Zm1.38-16.49a1.14,1.14,0,1,0,1.14-1.14A1.14,1.14,0,0,0,71.91,60.83ZM72.4,67A1.24,1.24,0,0,0,74,68.2a16.64,16.64,0,0,1,.63-2A1.25,1.25,0,0,0,72.4,67Zm.35,45.25a1.43,1.43,0,1,0-1.43-1.43A1.43,1.43,0,0,0,72.75,112.26Zm.54-9.27a1.38,1.38,0,1,0-1.38,1.38A1.38,1.38,0,0,0,73.29,103ZM71.21,52.74a1.27,1.27,0,1,0,1.2,1.07,3.34,3.34,0,0,1-.58-.89A1.21,1.21,0,0,0,71.21,52.74ZM65.67,24.62a.8.8,0,1,0,0-1.59l-.1,0c0,.49,0,1,0,1.55Zm3-3.63a1.31,1.31,0,1,0-1.31-1.31A1.31,1.31,0,0,0,68.68,21Zm1.85,102.25a.79.79,0,1,0-.79-.79A.79.79,0,0,0,70.53,123.23ZM69.74,33.6a1.32,1.32,0,0,0,2.13,1.06c.07-.65.13-1.3.19-1.93a1.33,1.33,0,0,0-2.32.88Zm1-9.48a1,1,0,1,0-1-1A1,1,0,0,0,70.69,24.12ZM66.41,93.37a1.69,1.69,0,1,0-1.69-1.69A1.69,1.69,0,0,0,66.41,93.37ZM66.1,57.43a1.38,1.38,0,1,0-1.38-1.38A1.38,1.38,0,0,0,66.1,57.43Zm2.91-28a2.14,2.14,0,0,0-3.36-1.76,33.88,33.88,0,0,1-.16,3.39A2.13,2.13,0,0,0,69,29.47Zm0,37.6a1.53,1.53,0,1,0,1.53,1.53A1.53,1.53,0,0,0,69,67.07ZM64,77.82a.84.84,0,1,0,.84-.84A.84.84,0,0,0,64,77.82Zm1.56,10a.87.87,0,1,0-.87-.87A.87.87,0,0,0,65.59,87.84Zm.87,18.73a1.64,1.64,0,1,0,1.64-1.64A1.64,1.64,0,0,0,66.46,106.57ZM70,117a1,1,0,1,0-1-1A1,1,0,0,0,70,117ZM66.41,98.12a1.69,1.69,0,1,0-1.11-3,3.72,3.72,0,0,1,.19,1.07,3.4,3.4,0,0,1-.26,1.41A1.69,1.69,0,0,0,66.41,98.12Zm4.12-15.05A1.11,1.11,0,1,0,71.64,82,1.11,1.11,0,0,0,70.53,83.07ZM64.72,50.35a1.49,1.49,0,1,0,1.49-1.49A1.49,1.49,0,0,0,64.72,50.35ZM98.41,74.4a1,1,0,1,0-1,1A1,1,0,0,0,98.41,74.4Zm-2-9.24a1.4,1.4,0,1,0-1.4-1.4A1.4,1.4,0,0,0,96.42,65.16ZM80.55,44.75a1.4,1.4,0,1,0-1.4-1.4A1.4,1.4,0,0,0,80.55,44.75Zm31.12,25.06a1.28,1.28,0,1,0-1.28-1.28A1.28,1.28,0,0,0,111.66,69.81ZM98.41,58a1,1,0,1,0-1,1A1,1,0,0,0,98.41,58ZM94.83,37.28a1.57,1.57,0,0,0-.69.16c0,.9.08,1.87.12,2.91a1.59,1.59,0,1,0,.57-3.07Zm1.59,44.28a1.4,1.4,0,1,0-1.4-1.4A1.4,1.4,0,0,0,96.42,81.56Zm-1.07-11a1.07,1.07,0,1,0-1.07-1.07A1.07,1.07,0,0,0,95.35,70.52Zm6.24-28A2.59,2.59,0,1,0,99,45.11,2.59,2.59,0,0,0,101.59,42.53ZM111.66,65a1.28,1.28,0,1,0-1.28-1.28A1.28,1.28,0,0,0,111.66,65ZM96.42,47.29a1.07,1.07,0,0,0-1.93-.64q0,.66,0,1.32a1.07,1.07,0,0,0,1.89-.68Zm16.52,3.5a1.52,1.52,0,1,0,1.52,1.52A1.52,1.52,0,0,0,112.94,50.79ZM116,47a1.58,1.58,0,1,0,.37,3.11c.08-1,.18-2,.28-3A1.57,1.57,0,0,0,116,47Zm-4.38,11.27a1.28,1.28,0,1,0-1.28-1.28A1.28,1.28,0,0,0,111.66,58.22ZM125,47.47a1.18,1.18,0,1,0-1.18-1.18A1.18,1.18,0,0,0,125,47.47ZM115.64,57a1.17,1.17,0,0,0,1-.65,5.2,5.2,0,0,1-.33-1.45,1.16,1.16,0,0,0-.71-.25,1.17,1.17,0,1,0,0,2.35Zm-2.84-9.15a1.67,1.67,0,1,0-1.67-1.67A1.67,1.67,0,0,0,112.8,47.87Zm4.35-5.07c0-.09,0-.18,0-.26a1.14,1.14,0,1,0,0,.26Zm-4.35-1A1.67,1.67,0,1,0,111.55,39c-.08.61-.15,1.25-.2,1.9A1.66,1.66,0,0,0,112.8,41.82Zm3-2.87a1.35,1.35,0,0,0,1.34-1.26c0-.16,0-.32-.05-.47a1.35,1.35,0,1,0-1.29,1.73ZM96,55.66a1.4,1.4,0,1,0-1.39-1.48c0,.06,0,.12,0,.18A1.39,1.39,0,0,0,96,55.66Zm-9.42,7a1,1,0,1,0-1-1A1,1,0,0,0,86.59,62.61ZM89,60.3a1.4,1.4,0,0,0,1.23-.75c-.35-.94-.8-1.65-1.5-1.83a2.21,2.21,0,0,0-.39-.07A1.4,1.4,0,0,0,89,60.3ZM91.65,72a1.29,1.29,0,1,0-1.29-1.29A1.29,1.29,0,0,0,91.65,72Zm.15-5.25A1.43,1.43,0,0,0,93,66.18c-.81,0-1.27-1-1.62-2.21a1.44,1.44,0,0,0,.47,2.79ZM84.37,43.09a1,1,0,0,0,1,1,.94.94,0,0,0,.32-.06q0-.92,0-1.8a1,1,0,0,0-.29-.06A1,1,0,0,0,84.37,43.09ZM82.8,40.73a.86.86,0,1,0-.86-.86A.86.86,0,0,0,82.8,40.73Zm-.86,5.48a1.71,1.71,0,1,0,1.71,1.71A1.71,1.71,0,0,0,81.95,46.22Zm-1.4-8.94a1.74,1.74,0,0,0-1.22-1.66A21.62,21.62,0,0,0,79.19,39,1.75,1.75,0,0,0,80.55,37.28ZM91.8,76.14a21.69,21.69,0,0,1,1,2.75,1.77,1.77,0,1,0-1-2.75Zm-7.73-40a1.26,1.26,0,0,0,1.13-.7,10.79,10.79,0,0,0-.36-1.56,1.26,1.26,0,1,0-.76,2.27ZM99.6,26.47a1.19,1.19,0,0,0,1.05-.65,3.18,3.18,0,0,0-1.44-1.67,1.19,1.19,0,0,0,.39,2.31Zm2.25,38.11c.11-1.14.21-2.25.29-3.28a1.68,1.68,0,0,0-.54-.1,1.7,1.7,0,1,0,0,3.4ZM101,54.15a1.11,1.11,0,1,0,1.11,1.11A1.11,1.11,0,0,0,101,54.15ZM99.3,49a1.4,1.4,0,0,0,2.79.15l0-.44A1.4,1.4,0,0,0,99.3,49Zm1.4,24.27a1.4,1.4,0,0,0,.5-.1c0-.8.06-1.66.12-2.56a1.39,1.39,0,0,0-.62-.15,1.4,1.4,0,0,0,0,2.81Zm-5-38.18a1.73,1.73,0,1,0-1.71-2c0,.18,0,.38,0,.6A1.73,1.73,0,0,0,95.68,35.07ZM99.3,67.51a.94.94,0,1,0-.94.94A.94.94,0,0,0,99.3,67.51ZM99,36.92a1.55,1.55,0,0,0,2.65,1.1c0-.79-.06-1.55-.08-2.26A1.54,1.54,0,0,0,99,36.92Zm-3.16-7.38A1.57,1.57,0,1,0,94.27,28,1.57,1.57,0,0,0,95.84,29.54Zm3.46.22a.85.85,0,1,0,.85-.85A.85.85,0,0,0,99.3,29.76Zm-14,61.91a1,1,0,1,0,1,1A1,1,0,0,0,85.33,91.67ZM72.33,131a1.26,1.26,0,1,0,1.26,1.26A1.26,1.26,0,0,0,72.33,131Zm4.7-3.28a1.21,1.21,0,1,0,.53,2.29c0-.74-.06-1.48-.1-2.2A1.2,1.2,0,0,0,77,127.72Zm-3.73-2.6a.89.89,0,1,0,.89.89A.89.89,0,0,0,73.29,125.12Zm-.17-8.89A1.79,1.79,0,1,0,74.91,118,1.79,1.79,0,0,0,73.12,116.23Zm5.17-10.15a1.27,1.27,0,0,0-.32,2.49,16.26,16.26,0,0,1,1.47-1.77A1.27,1.27,0,0,0,78.29,106.08ZM75.81,133a.9.9,0,1,0,.9.9A.9.9,0,0,0,75.81,133Zm3.5-31.35a1.23,1.23,0,1,0,1.23,1.23A1.23,1.23,0,0,0,79.32,101.61Zm5.66-2a1.31,1.31,0,0,0-.33,2.59l1.64-1.31A1.31,1.31,0,0,0,85,99.57Zm-3-47.73a1.71,1.71,0,1,0,.63,3.3,20.59,20.59,0,0,0,1.06-1.77A1.71,1.71,0,0,0,81.95,51.84ZM80.8,95.65A1.24,1.24,0,1,0,82,96.88,1.24,1.24,0,0,0,80.8,95.65ZM68.1,133a1.2,1.2,0,1,0-1.2,1.2A1.2,1.2,0,0,0,68.1,133Zm-4.35-51a1,1,0,1,0,1,1A1,1,0,0,0,63.76,81.94ZM62.1,106.12a1.93,1.93,0,0,0-1.9,1.65A24,24,0,0,1,62.36,110a1.93,1.93,0,0,0-.26-3.84Zm4.31-2.54a1.69,1.69,0,1,0-1.69-1.69A1.69,1.69,0,0,0,66.41,103.59Zm-4.79-1.65a1.45,1.45,0,1,0-1.45,1.45A1.45,1.45,0,0,0,61.62,101.93Zm24-6.29a.66.66,0,1,0,.66.66A.66.66,0,0,0,85.64,95.65ZM68.08,126.81a1.67,1.67,0,1,0,1.67,1.67A1.67,1.67,0,0,0,68.08,126.81Zm-.7,11.72,1.63,0,54.81-82.41a1.46,1.46,0,0,0-.29,2.89,16.42,16.42,0,0,0,1.55-2.18A1.46,1.46,0,0,0,123.82,56.12ZM112.94,72.23a1.52,1.52,0,1,0,1.52,1.52A1.52,1.52,0,0,0,112.94,72.23Zm3.87-11.18A1.94,1.94,0,1,0,114.88,63,1.93,1.93,0,0,0,116.81,61.05Zm-9.93,14.41a1.23,1.23,0,0,0,.33,0,1.25,1.25,0,0,0,.91-2.12A12.92,12.92,0,0,1,106.88,75.47ZM110.38,77a1,1,0,1,0,1,1A1,1,0,0,0,110.38,77ZM106,84.6a1.24,1.24,0,0,0,.07.4q.94-.71,1.82-1.48a1.24,1.24,0,0,0-.63-.18A1.26,1.26,0,0,0,106,84.6ZM115.11,67a1.7,1.7,0,0,0,1.7,1.7h.1c.41-1,.79-2,1.15-2.83A1.69,1.69,0,0,0,115.11,67Zm11.05-17.59a.89.89,0,1,0,.89.89A.89.89,0,0,0,126.17,49.43ZM60,98.68a1.63,1.63,0,0,0,1.22-.55,20.19,20.19,0,0,1-2.83-1.42,1.64,1.64,0,0,0,1.61,2Zm63.78-45.8a1,1,0,1,0-1,1A1,1,0,0,0,123.82,52.88Zm-3.69,6.5A1.61,1.61,0,0,0,120,62.6c.5-.52,1.09-1.07,1.71-1.69A1.61,1.61,0,0,0,120.13,59.38ZM102.28,78.82A1.48,1.48,0,0,0,102,78a1.24,1.24,0,0,1-.23-.27,1.49,1.49,0,1,0,.47,1.08Zm-11.11,8a1.77,1.77,0,1,0,1.77,1.77A1.77,1.77,0,0,0,91.17,86.83ZM95,92.18a1.39,1.39,0,0,0,.24.79c.68-.63,1.39-1.23,2.13-1.8a1.4,1.4,0,0,0-2.37,1Zm.59-7.24a1.33,1.33,0,1,0-1.33,1.33A1.33,1.33,0,0,0,95.6,84.94Zm-5.25,9.8a1.55,1.55,0,0,0-.29,3.07c.64-.53,1.26-1.05,1.83-1.57A1.55,1.55,0,0,0,90.36,94.73Zm7.5-7.86a1.44,1.44,0,1,0,1.44,1.44A1.44,1.44,0,0,0,97.86,86.87Zm3.14,1.4a1.47,1.47,0,0,0,0,.26L103.18,87A1.43,1.43,0,0,0,101,88.27ZM102.11,83A1.11,1.11,0,1,0,101,84.15,1.11,1.11,0,0,0,102.11,83Zm5.1-1.91a1.37,1.37,0,1,0-1.37,1.37A1.37,1.37,0,0,0,107.21,81.13ZM87.55,64.37a1.25,1.25,0,0,0-1.25,1.14q.26.56.57,1.17a1.26,1.26,0,1,0,.67-2.31ZM37,56.47a1.13,1.13,0,0,0-.92-1.11c0,.7,0,1.44.1,2.2A1.13,1.13,0,0,0,37,56.47Zm14.74-28a1.12,1.12,0,0,0-1.12-1.12h-.09c-.07.69-.12,1.42-.15,2.2l.24,0A1.12,1.12,0,0,0,51.73,28.44Zm-.66,8.49a1.15,1.15,0,1,0,1.15-1.15A1.15,1.15,0,0,0,51.06,36.93Zm9.6,41.19a1.45,1.45,0,1,0-1.45,1.45A1.45,1.45,0,0,0,60.67,78.12ZM54.28,34.43a2.07,2.07,0,1,0-2.07-2.07A2.07,2.07,0,0,0,54.28,34.43Zm.2-7.38a1.12,1.12,0,1,0-1.12-1.12A1.12,1.12,0,0,0,54.48,27Zm-14,27.62a2.14,2.14,0,0,0,1.6-.73,9.33,9.33,0,0,0-1.29-3.55,2.13,2.13,0,0,0-.32,0,2.15,2.15,0,1,0,0,4.31ZM49.49,92a1.33,1.33,0,0,0,1.3-1c-.5-.52-1-1-1.45-1.6A1.33,1.33,0,0,0,49.49,92Zm6.6-52.88a.84.84,0,0,0,.84.84.82.82,0,0,0,.45-.15q0-.73-.06-1.43a.82.82,0,0,0-.38-.1A.84.84,0,0,0,56.09,39.1ZM40.8,66.61a1.47,1.47,0,0,0,1.47,1.47l.28,0c0-.92,0-1.88,0-2.86a1.45,1.45,0,0,0-.33,0A1.47,1.47,0,0,0,40.8,66.61Zm4.31,19.48a1.37,1.37,0,0,0,1.31-1c-.32-.56-.64-1.13-.92-1.7a1.37,1.37,0,1,0-.39,2.69ZM39,60.66a1.8,1.8,0,1,0,1.8-1.8A1.8,1.8,0,0,0,39,60.66Zm17.34-8.19a.86.86,0,0,0,.86.86.84.84,0,0,0,.83-.72l0-.37a.84.84,0,0,0-.81-.63A.86.86,0,0,0,56.34,52.47Zm0,14.78a1.19,1.19,0,1,0,1.19-1.19A1.19,1.19,0,0,0,56.34,67.25Zm-2.72,5.17a1,1,0,1,0,1-1A1,1,0,0,0,53.63,72.42Zm5.95,13.49c.52.79,1,1.55,1.53,2.27a1.43,1.43,0,1,0-1.53-2.27ZM55.29,62.41a.83.83,0,1,0-.83.83A.83.83,0,0,0,55.29,62.41ZM57.2,46.22a1.11,1.11,0,1,0-1.11,1.11A1.11,1.11,0,0,0,57.2,46.22ZM54.06,75.34q.45,1.24,1,2.42a1.31,1.31,0,1,0-1-2.42Zm.19-19.84a2.09,2.09,0,1,0,2.09,2.09A2.09,2.09,0,0,0,54.25,55.51ZM55,96.17a1.36,1.36,0,0,0,1.26-.85c-.68-.46-1.41-1-2.15-1.53A1.35,1.35,0,0,0,55,96.17ZM52.21,41.12a1.15,1.15,0,1,0,1.15,1.15A1.15,1.15,0,0,0,52.21,41.12ZM36.89,65.62a1.78,1.78,0,0,0-.33-3.52C36.68,63.32,36.8,64.51,36.89,65.62ZM49.12,96.89a1.7,1.7,0,0,0-1.21.51c.43.44.88.88,1.37,1.33l1.1,1a1.7,1.7,0,0,0-1.26-2.85Zm-4-6a1.38,1.38,0,0,0-1.38,1.38,1.36,1.36,0,0,0,0,.3l.69.9a1.36,1.36,0,0,0,.66.17,1.38,1.38,0,1,0,0-2.75Zm0-3.67a1.38,1.38,0,1,0,1.38,1.38A1.38,1.38,0,0,0,45.11,87.22Zm8.26-36.44a1.63,1.63,0,0,0-2.78-1.17c0,.8.07,1.61.11,2.43a1.63,1.63,0,0,0,2.67-1.26Zm1.92,47.82a1,1,0,1,0-1,1A1,1,0,0,0,55.29,98.61Zm0,3a1.66,1.66,0,0,0-1.51,1c.87.69,1.71,1.35,2.53,2a1.65,1.65,0,0,0-1-3Zm3.44-30a1.19,1.19,0,1,0-1.19,1.19A1.19,1.19,0,0,0,58.72,71.64Zm-16.46-.19a1.47,1.47,0,1,0,.38,2.87c-.08-.78-.12-1.75-.13-2.85Zm12-4.43A1.26,1.26,0,0,0,52,66.27c.08.59.17,1.18.27,1.76a1.26,1.26,0,0,0,2-1ZM50.09,93.45a1,1,0,1,0,1,1A1,1,0,0,0,50.09,93.45ZM30.87,65.75a2.07,2.07,0,1,0,1.91,2.86c-.52-.91-1.07-1.9-1.65-2.84Zm10.06,12.6a1.34,1.34,0,1,0,1.34,1.34A1.34,1.34,0,0,0,40.93,78.35ZM30.21,70.91a1.4,1.4,0,1,0,1.4,1.4A1.4,1.4,0,0,0,30.21,70.91Zm35.5-30.35a1.45,1.45,0,0,0-1.41-1.45q-.22,1.4-.4,2.86a1.44,1.44,0,0,0,1.81-1.41ZM26.06,65.75a1.42,1.42,0,0,0-1,.45,16.19,16.19,0,0,0,1,2.41,1.43,1.43,0,0,0,0-2.87ZM40.93,85.54a1.33,1.33,0,0,0-1.2.75l1.15,1.91h0a1.34,1.34,0,1,0,0-2.67ZM38.29,67.07a1.3,1.3,0,0,0-1.27,1c0,.21,0,.41,0,.61a1.3,1.3,0,1,0,1.26-1.61Zm-2.6,12.29a1.29,1.29,0,0,0-.92.38,23.81,23.81,0,0,1,1.76,1.9,1.29,1.29,0,0,0-.85-2.28Zm.8-6a1.77,1.77,0,1,0,1.77,1.77A1.77,1.77,0,0,0,36.49,73.41Z"/></g></g></g></svg>