<svg xmlns="http://www.w3.org/2000/svg" viewBox="0 0 193.02 76.67"><defs><style>.cls-1{fill:#00797e;}.cls-2{fill:#6fbcce;}.cls-3{opacity:0.1;}.cls-4{fill:#565656;}.cls-5{fill:#ffd6b3;}.cls-6{fill:#2a1e1e;}.cls-7{fill:#fff;}.cls-8{fill:#005959;}.cls-9{fill:#7ccfdd;}</style></defs><title>Asset 22</title><g id="Layer_2" data-name="Layer 2"><g id="Layer_1-2" data-name="Layer 1"><path class="cls-1" d="M93.07,62.25c-3.7-1.95-20.1-1.47-15,1.66,0,0,16.27,9.64,17.92,12.66.68.78,3.31-2.83,2.34-6.33S96.77,64.19,93.07,62.25Z"/><path class="cls-1" d="M120.73,56.3s5.36,5.84,8.08,4.09,19.34-10.72,17.76-13.25S116.55,52.11,120.73,56.3Z"/><path class="cls-1" d="M80,.09C76.8-1.37,69.3,14.61,69.3,14.61c-1.88,3.74,5.65,3,10.52,4.19,23.67,4.48,21-2.44,21.72-4.19S83.23,1.56,80,.09Z"/><path class="cls-2" d="M160.68,27.28a536.86,536.86,0,0,0-92-11.69C17.28,13.51.4,33.51.4,33.51c-.83.86.91,2.2,1.69,3.11s2.34,2.86,2.34,2.86l-1.17-.28c-2.47-1.06-4-.77-2.86.8,6.23,6.75,31.17,17.66,50.66,21.3,49.88,8.31,100.27-16.88,109.62-19.48C171.33,34.29,160.68,27.28,160.68,27.28Z"/><path class="cls-1" d="M60.78,48.15C58,45.81,43.54,46.88,43.54,46.88c-3.21.68-4,2.83-3.12,2.92s4.38-.39,6,2.24,4,3.6,4.58,3a10.18,10.18,0,0,1,4.48-1.56C56.69,53.5,63.6,50.49,60.78,48.15Z"/><path class="cls-2" d="M68.72,15.59C50.19,14.84,36.18,17,25.79,20a7.14,7.14,0,0,0,.45,1.26s10.52,9.94,10.52,19.09c3.31,1.17,91.18,11,126.64-7.34a41.76,41.76,0,0,0-3.29-5.84A541.47,541.47,0,0,0,68.72,15.59Z"/><g class="cls-3"><path d="M160.68,27.28a546.1,546.1,0,0,0-92-11.69C50.19,14.84,36.18,17,25.79,20a7.14,7.14,0,0,0,.45,1.26s10.52,9.94,10.52,19.09c3.31,1.17,91.18,11,126.64-7.34C164.47,29.72,162.48,28.3,160.68,27.28Z"/></g><path class="cls-4" d="M36.78,37.83a10.82,10.82,0,0,0-.88-1.76,5.38,5.38,0,0,0-.43-.61l0,.74c0,.46.07,1.12.1,1.89a25.91,25.91,0,0,1-.2,5.38,12.18,12.18,0,0,1-.31,1.36,10.09,10.09,0,0,1-.45,1.26,9.66,9.66,0,0,1-1.24,2.08,4.57,4.57,0,0,1-.33.42c-.11.13-.21.26-.32.38s-.4.43-.57.59c-.33.31-.52.52-.52.52s.27,0,.73-.16a7.31,7.31,0,0,0,.82-.3,6.8,6.8,0,0,0,1-.55,7,7,0,0,0,1.07-.87,7.44,7.44,0,0,0,1-1.22,6.27,6.27,0,0,0,.41-.72l.19-.38.15-.4a9.28,9.28,0,0,0,.45-1.65,10.62,10.62,0,0,0,.14-1.68,10.77,10.77,0,0,0-.11-1.6A12,12,0,0,0,36.78,37.83Z"/><path class="cls-1" d="M173,34.14c4.76-3.48,17-19.4,18.85-20.77s1.46-3.93-.91-3.39c-14.46,1.74-31,17.11-31,17.11,9.42,8.33,0,15,0,15a105.68,105.68,0,0,0,9,6.58c18.39,10,23,7.87,24.12,7S174.52,36.06,173,34.14Z"/><circle class="cls-5" cx="12.91" cy="33.64" r="4.65"/><circle class="cls-6" cx="12.48" cy="33.64" r="3.27"/><circle class="cls-7" cx="11.1" cy="33.64" r="1.89"/><path class="cls-4" d="M5.18,38.14a3.31,3.31,0,0,0-.16-.5,3.7,3.7,0,0,0-.25-.52,4.81,4.81,0,0,0-.33-.51,5.29,5.29,0,0,0-.4-.49,7.23,7.23,0,0,0-1.77-1.42,4.6,4.6,0,0,0-1-.42s.25.34.65.79l.68.76.77.85c.26.28.51.58.74.85s.21.28.32.41.18.26.26.38.14.24.2.34a1.73,1.73,0,0,1,.14.28l.12.26s0-.1,0-.29a1.17,1.17,0,0,0,0-.34A2.31,2.31,0,0,0,5.18,38.14Z"/><path class="cls-8" d="M49,51.83c-.07-.16-.16-.34-.26-.53a3.1,3.1,0,0,0-.4-.58,3.56,3.56,0,0,0-.56-.57,5,5,0,0,0-.69-.5c-.25-.14-.51-.27-.78-.39s-.54-.21-.82-.27a5.85,5.85,0,0,0-.81-.17,7.43,7.43,0,0,0-1.45-.08,5.67,5.67,0,0,0-1.4.21l1.36.26c.4.09.86.18,1.34.32.24.06.48.14.73.22s.49.18.73.27.48.21.7.32.45.23.64.38a5.46,5.46,0,0,1,.55.42,4.93,4.93,0,0,1,.46.43l.36.41.24.35.23.31s0-.14-.08-.38S49.09,52,49,51.83Z"/><path class="cls-8" d="M53.13,50.05a5.73,5.73,0,0,0-.53-.46,5.28,5.28,0,0,0-.67-.49,7.72,7.72,0,0,0-.8-.48,9.11,9.11,0,0,0-.91-.42c-.32-.11-.64-.25-1-.34a10.06,10.06,0,0,0-1-.23,8.75,8.75,0,0,0-1-.13c-.32,0-.64,0-.93,0a8.06,8.06,0,0,0-.83.06,6.15,6.15,0,0,0-1.66.38s.68,0,1.67.09c.49,0,1.06.12,1.66.22.3.05.61.12.92.19a9.31,9.31,0,0,1,.94.24c.32.07.62.19.92.29s.59.22.88.33.55.25.81.35.49.24.71.35.43.21.6.31l.46.26.41.22-.31-.35Z"/><path class="cls-8" d="M93.9,71.26c-.2-.25-.43-.54-.68-.84s-.57-.6-.89-.93a13.77,13.77,0,0,0-1.07-1c-.37-.33-.8-.62-1.22-.93s-.88-.58-1.32-.87A27.76,27.76,0,0,0,86,65.27a25,25,0,0,0-2.52-1,17.65,17.65,0,0,0-2.55-.67s1,.43,2.37,1.12l1.13.56c.4.2.82.42,1.25.65s.86.48,1.31.72.89.52,1.33.78.88.54,1.3.83.85.55,1.22.85.78.55,1.11.84.68.54,1,.8l.78.72c.23.22.41.43.57.59l.51.51L94.37,72C94.24,71.76,94.1,71.51,93.9,71.26Z"/><path class="cls-8" d="M95.84,70.06a7,7,0,0,0-.32-.76c-.16-.26-.31-.55-.52-.83a10.42,10.42,0,0,0-.7-.84,9.79,9.79,0,0,0-.84-.8c-.3-.25-.61-.51-.94-.73s-.66-.44-1-.64-.68-.37-1-.55a16.15,16.15,0,0,0-1.86-.79,11.84,11.84,0,0,0-1.9-.52l1.7,1c.51.29,1.09.62,1.71,1s1.27.77,1.88,1.23c.32.21.62.44.91.67s.57.47.84.7.49.49.73.71.4.48.6.69.3.45.44.64a3,3,0,0,1,.29.53l.25.48s0-.19-.09-.54A2.44,2.44,0,0,0,95.84,70.06Z"/><path class="cls-8" d="M96.88,68.28a3.57,3.57,0,0,0-.2-.69,4,4,0,0,0-.32-.74,5,5,0,0,0-.44-.74,8.48,8.48,0,0,0-.55-.7c-.2-.22-.42-.42-.63-.63a8.5,8.5,0,0,0-.67-.53,8,8,0,0,0-1.29-.77A5.76,5.76,0,0,0,91.41,63s.47.35,1.12.89l.52.44c.19.15.37.33.56.5s.37.37.58.55.38.39.56.6a8.11,8.11,0,0,1,.52.62c.15.22.33.42.46.64a6.5,6.5,0,0,1,.39.63,6.31,6.31,0,0,1,.31.59c.08.19.17.36.24.52l.15.42c.09.24.15.37.15.37s0-.14,0-.4,0-.29,0-.47S96.92,68.5,96.88,68.28Z"/><path class="cls-8" d="M127.18,58.57l-.31-.19c-.44-.28-1-.7-1.56-1.11l-.85-.6c-.27-.19-.54-.36-.77-.5a8.07,8.07,0,0,0-.81-.45,4.2,4.2,0,0,0,.49.8,7,7,0,0,0,1.45,1.42,5.64,5.64,0,0,0,.95.56,3.51,3.51,0,0,0,.48.19,2.85,2.85,0,0,0,.45.12,2.06,2.06,0,0,0,.39.05,1.15,1.15,0,0,0,.31,0l.26,0-.23-.12Z"/><path class="cls-8" d="M129.88,57.16l-.25-.1-.61-.29-.7-.34c-.24-.11-.49-.22-.73-.31s-.47-.18-.67-.24a4.57,4.57,0,0,0-.71-.16,2.89,2.89,0,0,0,.47.57,4.17,4.17,0,0,0,.57.47,4.9,4.9,0,0,0,.73.42,4.13,4.13,0,0,0,.82.28,2.55,2.55,0,0,0,.77.07,1.19,1.19,0,0,0,.32,0,.84.84,0,0,0,.23-.09,1.37,1.37,0,0,0,.18-.12l-.2,0A1.64,1.64,0,0,1,129.88,57.16Z"/><path class="cls-8" d="M133.11,55.53l-.24-.07c-.34-.11-.77-.31-1.22-.49L131,54.7c-.22-.08-.43-.15-.62-.2a4.52,4.52,0,0,0-.66-.15,2.37,2.37,0,0,0,.42.55,3.72,3.72,0,0,0,1.22.83,3,3,0,0,0,.78.21,1.88,1.88,0,0,0,.38,0,1.55,1.55,0,0,0,.35,0,1.16,1.16,0,0,0,.29-.09.67.67,0,0,0,.2-.11l.15-.12-.19,0Z"/><path class="cls-8" d="M134.71,53.23a3.65,3.65,0,0,0-.47-.19,2.77,2.77,0,0,0-.45-.11,2.17,2.17,0,0,0-.5,0,1.56,1.56,0,0,0,.25.44,2,2,0,0,0,.34.34,2.32,2.32,0,0,0,.46.29,2.11,2.11,0,0,0,.53.18,1.62,1.62,0,0,0,.51,0,1.06,1.06,0,0,0,.37-.09l.13-.07-.38-.3A4.75,4.75,0,0,0,134.71,53.23Z"/><path class="cls-8" d="M139,52.17l-.19-.08-.21-.09-.45-.2-.48-.18-.46-.14a3.15,3.15,0,0,0-.52-.1,1.47,1.47,0,0,0,.24.49,1.92,1.92,0,0,0,.37.39,2.08,2.08,0,0,0,.52.32,2,2,0,0,0,.3.1,2,2,0,0,0,.31,0,1.43,1.43,0,0,0,.57-.07,1,1,0,0,0,.35-.22.9.9,0,0,0,.1-.12l-.15,0C139.25,52.25,139.13,52.2,139,52.17Z"/><path class="cls-8" d="M79.79,3.74a7.39,7.39,0,0,0-.71.53c-.24.22-.52.44-.77.71s-.54.54-.79.86-.54.62-.77,1-.5.69-.73,1-.45.73-.67,1.09-.4.73-.59,1.08c-.37.71-.68,1.39-.92,2a16.72,16.72,0,0,0-.71,2s.47-.72,1.13-1.8l1.13-1.84c.42-.66.85-1.39,1.32-2.08s.93-1.39,1.38-2c.23-.32.46-.61.68-.9s.44-.53.64-.78.41-.44.58-.63a4.8,4.8,0,0,1,.47-.47l.43-.4-.52.27A3.47,3.47,0,0,0,79.79,3.74Z"/><path class="cls-8" d="M84.42,7a5.42,5.42,0,0,0-.55.35c-.18.15-.4.31-.59.5s-.4.39-.59.63a8.87,8.87,0,0,0-.56.73c-.17.26-.35.52-.51.79s-.3.55-.44.83-.25.56-.37.83a12.72,12.72,0,0,0-.51,1.51,8.93,8.93,0,0,0-.3,1.53s.31-.55.74-1.36l.73-1.38c.28-.5.55-1,.86-1.55s.62-1,.93-1.49l.47-.65.45-.56c.15-.17.3-.31.42-.45A3.08,3.08,0,0,1,85,6.91l.32-.29-.41.15A2.15,2.15,0,0,0,84.42,7Z"/><path class="cls-8" d="M89.55,10.2a2.76,2.76,0,0,0-.45.23,4.13,4.13,0,0,0-.47.31,5.64,5.64,0,0,0-.46.39,5.07,5.07,0,0,0-.42.46,4.94,4.94,0,0,0-.64,1,4.32,4.32,0,0,0-.21.52,3.77,3.77,0,0,0-.13.49,2.94,2.94,0,0,0-.06,1s.2-.36.5-.86c.15-.25.33-.53.53-.82s.42-.59.65-.88.24-.28.35-.43l.36-.4c.25-.25.47-.49.69-.69s.2-.2.29-.28l.23-.21.2-.2-.28.06A3.27,3.27,0,0,0,89.55,10.2Z"/><path class="cls-8" d="M93.78,13a2.65,2.65,0,0,0-.36.59,2.57,2.57,0,0,0-.19.66,2.14,2.14,0,0,0,0,.61,1.46,1.46,0,0,0,.18.58s.14-.21.29-.5.16-.31.24-.48.17-.35.25-.54.16-.37.23-.55.13-.35.19-.51.09-.29.12-.4,0-.17,0-.17a1.63,1.63,0,0,0-.54.28A2.2,2.2,0,0,0,93.78,13Z"/><path class="cls-8" d="M98.54,14a.94.94,0,0,0-.41.19,1.23,1.23,0,0,0-.3.31,1.49,1.49,0,0,0-.21.43,1.57,1.57,0,0,0-.07.47,1.37,1.37,0,0,0,.06.42,1.09,1.09,0,0,0,.2.4,2.23,2.23,0,0,0,.27-.33,2.26,2.26,0,0,0,.19-.33,2.68,2.68,0,0,0,.15-.37,3.1,3.1,0,0,0,.13-.75c0-.11,0-.22,0-.3S98.54,14,98.54,14Z"/><path class="cls-8" d="M184.29,13.23c-.47.22-1,.46-1.58.75s-1.18.62-1.82,1-1.3.76-2,1.19-1.38.87-2.07,1.35-1.4,1-2.09,1.46c-1.38,1-2.74,2-4,3.06s-2.37,2-3.33,2.83-1.72,1.6-2.26,2.11-.83.83-.83.83l3.39-2.57,3.48-2.62,2-1.46c.67-.5,1.36-1,2-1.49s1.38-1,2.06-1.47l2-1.4,1.91-1.27,1.74-1.1,1.49-.89c.44-.28.84-.48,1.17-.65l1-.57-1.1.42C185.18,12.85,184.76,13,184.29,13.23Z"/><path class="cls-8" d="M182.79,19.61c-.27.28-.58.6-.91,1s-.71.72-1.09,1.12-.81.8-1.24,1.22-.89.84-1.36,1.27-.95.85-1.43,1.28-1,.84-1.45,1.26l-1.43,1.19c-.94.76-1.82,1.47-2.58,2.06s-1.4,1.1-1.86,1.44l-.71.54s.3-.13.8-.4,1.22-.66,2-1.18,1.77-1.15,2.76-1.88,2-1.54,3-2.4,1.93-1.76,2.76-2.66c.42-.44.82-.88,1.18-1.31s.71-.83,1-1.23.56-.76.79-1.08l.56-.86c.3-.48.47-.76.47-.76s-.22.24-.6.67Z"/><path class="cls-8" d="M187.33,55.1c-.54-.17-1.17-.32-1.83-.55l-2.12-.77c-.74-.32-1.52-.63-2.32-1s-1.61-.75-2.43-1.16-1.66-.83-2.47-1.29-1.64-.89-2.43-1.36-1.58-.92-2.33-1.37c-1.5-.91-2.89-1.79-4.07-2.54l-1.61-1-1.23-.82-1.07-.72s.34.32,1,.85,1.54,1.28,2.67,2.13c.57.42,1.18.88,1.85,1.34s1.36,1,2.11,1.43c1.48,1,3.1,1.94,4.76,2.85.82.46,1.68.86,2.51,1.28s1.69.75,2.5,1.12,1.63.61,2.4.9,1.52.45,2.2.65,1.33.28,1.9.39a10.68,10.68,0,0,0,1.48.19l1.29.1-1.27-.26A10.5,10.5,0,0,1,187.33,55.1Z"/><path class="cls-8" d="M184.94,50.61a10.75,10.75,0,0,0-1.53-1.73,24.71,24.71,0,0,0-2.53-2c-.49-.34-1-.7-1.51-1s-1.06-.67-1.6-1l-1.63-.94c-.54-.31-1.08-.59-1.61-.86-1-.55-2-1-2.9-1.41s-1.59-.68-2.1-.9-.81-.31-.81-.31l.74.45,2,1.18,2.77,1.63c1,.6,2.1,1.22,3.16,1.87l1.6,1,1.53,1c1,.63,1.89,1.24,2.63,1.8a13.16,13.16,0,0,1,1.71,1.47,5.52,5.52,0,0,1,.4.49l.13.18-.09-.21A3.56,3.56,0,0,0,184.94,50.61Z"/><path class="cls-8" d="M181.63,51.08c-.18-.11-.41-.24-.67-.4l-.85-.54L178,48.77l-2.44-1.56c-.84-.52-1.67-1-2.47-1.52s-1.54-.91-2.19-1.27c-1.29-.73-2.19-1.17-2.19-1.17s.74.67,1.93,1.56c.59.45,1.29,1,2.05,1.49s1.59,1.07,2.42,1.61l1.26.77c.41.26.84.48,1.24.72.81.45,1.58.85,2.26,1.16.33.16.66.29.94.41s.54.19.74.27a3.07,3.07,0,0,0,.5.12l.17,0-.16-.08A4.48,4.48,0,0,1,181.63,51.08Z"/><path class="cls-8" d="M179.83,18.77c-.31.14-.62.33-1,.54s-.72.45-1.11.7-.79.55-1.2.85c-.82.6-1.66,1.29-2.49,2s-1.62,1.43-2.35,2.13-1.4,1.37-2,2c-1.12,1.17-1.79,2-1.79,2s.87-.65,2.12-1.68c.63-.51,1.35-1.11,2.12-1.77l2.4-2,2.4-2c.39-.31.75-.64,1.12-.92s.69-.57,1-.81.6-.48.87-.66.49-.36.69-.48l.63-.38-.71.24C180.39,18.5,180.14,18.63,179.83,18.77Z"/><path class="cls-4" d="M145.63,26.72c-2.43-.43-5.17-1-8.18-1.45s-6.27-1-9.72-1.51c-1.73-.25-3.49-.56-5.31-.78l-5.57-.69-5.76-.71c-1-.11-1.95-.26-2.94-.35l-3-.28-6-.56c-2-.19-4-.39-6.07-.5L87,19.51l-3-.19c-1-.05-2-.07-3-.11-4-.14-7.94-.28-11.75-.24-1.91,0-3.78,0-5.62,0l-5.38.19-2.58.1-2.5.18c-1.64.13-3.23.22-4.75.37l-4.35.47c-1.38.14-2.68.38-3.91.55l-1.78.27-1.65.32c-1.05.21-2,.37-2.89.6s-1.64.38-2.31.57l-1.69.49-1,.35-.35.13.36-.11,1.05-.27,1.71-.36c.67-.14,1.46-.25,2.33-.41s1.85-.27,2.9-.41l1.65-.22,1.78-.17c1.23-.1,2.53-.28,3.91-.34L48.5,21c1.51-.08,3.1-.11,4.73-.17l2.49-.09,2.57,0,5.35,0,5.58.1c3.79,0,7.71.28,11.68.42,1,0,2,.07,3,.13l3,.2L93,22c1,.07,2,.11,3,.2l3,.26,6,.52c4,.31,7.87.76,11.65,1.15l5.56.58c1.82.17,3.59.42,5.32.62,3.46.43,6.73.81,9.75,1.15l2.22.26,2.11.28,3.9.51,6.35.81,5.54.67-5.48-1.08Z"/><path class="cls-9" d="M142.3,45.79c-1.4.55-3.11,1.2-5.07,1.93l-3.13,1.16-1.7.63-.88.33-.91.27-8,2.36-9,2.19c-1.58.33-3.19.62-4.81.94l-2.45.47c-.82.16-1.65.33-2.48.44l-5.05.73-2.54.36-2.56.26-5.11.55-5.09.34L81,58.91c-.84,0-1.67.05-2.5.08l-4.9.13c-3.22-.05-6.33,0-9.28-.13s-5.74-.27-8.31-.44c-1.29-.1-2.51-.23-3.68-.33S50,58,49,57.89c-2.08-.22-3.89-.48-5.38-.69l-3.45-.54c-.8-.14-1.22-.19-1.22-.19s.43.07,1.22.24,1.95.4,3.43.67,3.29.57,5.37.85,4.43.58,7,.85,5.37.48,8.33.6,6.08.21,9.32.26l4.92-.1c.83,0,1.67,0,2.51-.06l2.53-.15,5.12-.31,5.14-.52,2.57-.27,2.55-.38,5.07-.77c.84-.11,1.67-.29,2.49-.46l2.46-.49c1.63-.33,3.25-.64,4.83-1,3.14-.79,6.17-1.56,9-2.33l8-2.52.92-.29.87-.34,1.68-.66,3.1-1.25c1.94-.79,3.63-1.5,5-2.09,2.77-1.18,4.32-1.94,4.32-1.94l-1.14.48Z"/></g></g></svg>