<svg xmlns="http://www.w3.org/2000/svg" viewBox="0 0 145.22 145.22"><defs><style>.cls-1{fill:#99d1ff;}.cls-2{fill:#c89e48;}.cls-3{fill:#e1e2b6;}.cls-4{fill:#e7b96b;}.cls-5{fill:#a5a685;}.cls-6{fill:#9d9e7f;}.cls-7{fill:#e7d4b4;}.cls-8{fill:#a1937d;}.cls-9{fill:#c9af96;}.cls-10{fill:#dbd1d0;}.cls-11{fill:#aea5aa;}.cls-12{fill:#bab2b1;}.cls-13{fill:#ceb694;}.cls-14{fill:#ccc3c2;}.cls-15{fill:#e8dedd;}.cls-16{fill:#615d5c;}</style></defs><title>Asset 17</title><g id="Layer_2" data-name="Layer 2"><g id="Layer_1-2" data-name="Layer 1"><circle class="cls-1" cx="72.61" cy="72.61" r="72.61"/><path class="cls-2" d="M94.91,40.62a.71.71,0,0,0-.32,0c-1.58.21-3.16.42-4.73.74a2.91,2.91,0,0,0-1.13.41,3,3,0,0,0-.75.91c-.27.43-1.29,1.56-1,2.07s1.62.18,2.09.17a19,19,0,0,1,4.89.62c.45.12,1.07.19,1.27-.24a1,1,0,0,0,.06-.43q0-1.75,0-3.5C95.23,41.07,95.18,40.71,94.91,40.62Z"/><path class="cls-2" d="M102.08,43.56a2.15,2.15,0,0,0-1.2-.08,13.85,13.85,0,0,0-3,.76q-.62.23-1.21.52c-.41.2-.58.36-.12.64A9.33,9.33,0,0,0,99,46.3a14,14,0,0,0,2.63.41q.67,0,1.33,0a12,12,0,0,1,1.26-.1q-.62-1.12-1.34-2.19A2.25,2.25,0,0,0,102.08,43.56Z"/><path class="cls-2" d="M113.63,45.15a1.69,1.69,0,0,0-1.88-.53c-.42.15-.86.28-1.29.42a4.52,4.52,0,0,0-2.15,1.27c-.19.23-.48.65-.4,1s.58.4.89.48a22.72,22.72,0,0,0,2.91.65,9.6,9.6,0,0,0,4-.19,3.74,3.74,0,0,0-.88-1.55Z"/><path class="cls-2" d="M125,44.69a8.36,8.36,0,0,0-2,.45,9.14,9.14,0,0,0-3.23,1.94,1.75,1.75,0,0,0-.72,1.37,4.43,4.43,0,0,0,.15,2.08,4.37,4.37,0,0,0,1,1.42,14.82,14.82,0,0,0,3.66,2.71h0a.54.54,0,0,0,.76-.35l.3-1.19a18.9,18.9,0,0,0,.54-2.72,18.92,18.92,0,0,0-.16-4A9.56,9.56,0,0,0,125,44.69Z"/><path class="cls-2" d="M103.82,51.77A12.85,12.85,0,0,0,98.07,54c-.1.07-.22.2-.15.3a.25.25,0,0,0,.13.08l3.11,1.17a5.08,5.08,0,0,0,2.51.4,2,2,0,0,0,2.05-1.21,1.86,1.86,0,0,0,.3-.54,1.74,1.74,0,0,0,.05-.44c0-.47.16-1.37-.23-1.74S104.38,51.7,103.82,51.77Z"/><path class="cls-2" d="M112,50.8a16,16,0,0,0-1.76.5c-.38.12-1.34.21-1.57.58-.39.62,1.79,1.6,2.24,1.79a13.19,13.19,0,0,0,1.88.6,1.67,1.67,0,0,0,1.94-.93h0a5.22,5.22,0,0,0,.24-.75l.49-1.89A14.42,14.42,0,0,0,112,50.8Z"/><path class="cls-3" d="M120.14,48c-1.84-.4-4.11,0-6-.16-4.54-.43-9-1.49-13.47-2.28a115.48,115.48,0,0,0-15.6-1.67,9.93,9.93,0,0,0-4,.41,10.34,10.34,0,0,0-2.14,1.26L73.4,49.45a1.78,1.78,0,0,0-.61.59,1.48,1.48,0,0,0,.35,1.53c.89,1.12,3.35,1.6,4.78,1.6,1.75,0,5.7,1.32,6.65,1.63,6.07,2,12.21.53,18.22-1.62,2.2-.79,4.61-.43,6.79-1.26,3.65-1.4,6.63-.25,9.84-1.38C120.57,50.13,122.05,48.44,120.14,48Z"/><path class="cls-4" d="M120.14,48c-1.84-.4-4.11,0-6-.16-4.54-.43-9-1.49-13.47-2.28a115.48,115.48,0,0,0-15.6-1.67,9.93,9.93,0,0,0-4,.41,10.34,10.34,0,0,0-2.14,1.26L73.4,49.45a1.78,1.78,0,0,0-.61.59,1.48,1.48,0,0,0,.35,1.53,3.1,3.1,0,0,0,1.06.79c1.92-.53,4.6-1.37,6.19-1.72,2.63-.59,6.81-1.54,7.88-1.4s11.2.69,12,.51,12.1,1.08,12.68,1.08a5.33,5.33,0,0,1,1.17.32,16.31,16.31,0,0,0,5.26-.6C120.57,50.13,122.05,48.44,120.14,48Z"/><path class="cls-2" d="M92.2,51.35a1.83,1.83,0,0,0-.5-.48,2.2,2.2,0,0,0-.94-.21,14.1,14.1,0,0,1-2.39-.39c-.53-.13-1.25-.55-1.68,0-.85,1,1.16,2.31,1.92,2.57a6.57,6.57,0,0,0,4.18,0,.23.23,0,0,0,.15-.4A8.8,8.8,0,0,0,92.2,51.35Z"/><path class="cls-5" d="M83.56,47a.19.19,0,0,0-.08.26s1.23,2.3.46,3.81a2.75,2.75,0,0,1-2.26,1.31.19.19,0,0,0,0,.39h0a3.1,3.1,0,0,0,2.56-1.52c.86-1.69-.41-4.07-.47-4.17A.19.19,0,0,0,83.56,47Z"/><path class="cls-6" d="M74.65,51.69c-.39-.19-1.4-.8-1.95-1.08h0a1.41,1.41,0,0,0,.05.26h0l0,.12h0a2,2,0,0,0,.11.24h0l.06.1,0,0,.05.08,0,0,.07.1.18.2.09.08.12.1.15.1.1.07.19.11.07,0,.24.12,0,0,.28.12h0l.31.12h0l.33.1h0c.25.07.51.14.76.19A5.59,5.59,0,0,0,74.65,51.69Z"/><circle class="cls-7" cx="77.23" cy="48.69" r="1"/><circle class="cls-8" cx="77.23" cy="48.69" r="0.55"/><path class="cls-9" d="M50.89,90.36c.09.91,1.48,1.26,1.78,1.28a6.52,6.52,0,0,1,1.22.23c.46.13.53,0,.73-.18a18.27,18.27,0,0,0,1.61-1.46c.46-.55.88-1.15,1.33-1.72a2.52,2.52,0,0,0,.29-1.61C56.74,86.52,50.8,89.45,50.89,90.36Z"/><path class="cls-9" d="M44.71,90.38a6,6,0,0,0-2.62,0,20.16,20.16,0,0,1,1,1.87c.23.58.66.41,1.62.7s1.81.51,1.69-.15A6.92,6.92,0,0,0,44.71,90.38Z"/><path class="cls-10" d="M59.83,84.62a4.25,4.25,0,0,1-2.59.09c-1.15-.44-5.43-2.69-7.48-3.28a25.56,25.56,0,0,0-7.1-.93,9.16,9.16,0,0,0-5.8,2.33,5.58,5.58,0,0,1-1.29,1.12,14.47,14.47,0,0,0-2.35,3.2.4.4,0,0,0,.4.4s-.11.94,1.48,1.41,2.83.75,3,.86a22.42,22.42,0,0,0,6.81,1,34.09,34.09,0,0,0,6.6-.43,49.6,49.6,0,0,0,6-2.82,4.27,4.27,0,0,1,2.88-.36c.53.2,4.81,2.35,6.5,2,0,0,0-1.9-4-3.5,0,0,4.42-2.3,4.29-3A31.7,31.7,0,0,0,59.83,84.62Z"/><path class="cls-11" d="M35.55,87.56a20.51,20.51,0,0,1-2.26-.18.42.42,0,0,0,.33.17.64.64,0,0,0,0,.14,18.5,18.5,0,0,0,1.93.14.13.13,0,1,0,0-.27Z"/><path class="cls-12" d="M60.37,84.39a23,23,0,0,1,.25,2.93c1,.46,4.74,2.23,6.28,1.86,0,0,0-1.9-4-3.5,0,0,4.42-2.3,4.29-3A33.49,33.49,0,0,0,60.37,84.39Z"/><path class="cls-13" d="M57.22,83.58a3.18,3.18,0,0,1-.25-.36c-.07-.11-.61-.17-.61-.31s-.14-.23-.15-.26-.36-.07-.37-.12-.2-.37-.33-.41-.7-.11-.7-.13-.17-.22-.2-.27-.46-.07-.5-.13-.11-.22-.21-.23-.49-.11-.49-.24-.6.07-.6.07-.13-.29-.18-.42-.41.31-.41.21a1,1,0,0,0-.32-.46c-.08,0-.47.47-.52.25a.38.38,0,0,0-.51-.29c-.22.1-.43-.14-.5-.36s-.75,0-.86,0-.51-.22-.54-.43-.36,0-.48,0-.11-.36-.08-.49-.58.17-.58.17-.41-.62-.55-.58-.51.28-.53-.1-.45,0-.82.11c-.21.07-.3-.18-.33-.4a.18.18,0,0,0-.28-.13c-.23.14-.54.28-.57,0,0-.42-.31-.34-.66,0s-.9.07-1.06,0-.42.86-.75.84-.51.94-.61,1.39a7,7,0,0,1,1-.07,25.56,25.56,0,0,1,7.1.93c2.06.6,6.33,2.84,7.48,3.28h0c0-.33,0-.84.06-.92A.17.17,0,0,0,57.22,83.58Z"/><path class="cls-13" d="M41.84,86.73s.15,2.6,1.92,2.35a32.72,32.72,0,0,0,7.24-3C51.09,85.89,43.08,85.94,41.84,86.73Z"/><path class="cls-14" d="M57.25,84.71c-1.15-.44-5.43-2.69-7.48-3.28a25.56,25.56,0,0,0-7.1-.93,9.16,9.16,0,0,0-5.8,2.33,5.58,5.58,0,0,1-1.29,1.12,14.47,14.47,0,0,0-2.35,3.2.5.5,0,0,0,0,.06,5.67,5.67,0,0,0,1.06,0c.14-.07,1.66-.61,1.89-.07s1.63,1,1.92,1,1.93-.37,2.36-1A9.33,9.33,0,0,1,45,84.91a29.74,29.74,0,0,1,5.87.93,10.51,10.51,0,0,0,4.25.5,17.16,17.16,0,0,0,4.73-1.73l0,0A4.25,4.25,0,0,1,57.25,84.71Z"/><path class="cls-11" d="M40.3,82.95a.13.13,0,0,0-.09.16s1.07,3.74-.28,5.25c-1.11,1.24-1.79,1.11-1.79,1.11a.13.13,0,0,0-.07.26h.13c.27,0,1-.13,1.93-1.2,1.45-1.62.38-5.34.34-5.5A.13.13,0,0,0,40.3,82.95Z"/><path class="cls-11" d="M38.78,84.59a.13.13,0,0,0-.07.17s.93,2.28,0,3.4a.13.13,0,0,0,.21.17c1-1.24.06-3.57,0-3.67A.13.13,0,0,0,38.78,84.59Z"/><circle class="cls-15" cx="36.74" cy="84.71" r="0.62"/><circle class="cls-16" cx="36.74" cy="84.71" r="0.37"/><path class="cls-2" d="M72.94,106.94a.71.71,0,0,0-.32,0c-1.58.21-3.16.42-4.73.74a2.91,2.91,0,0,0-1.13.41A3,3,0,0,0,66,109c-.27.43-1.29,1.56-1,2.07s1.62.18,2.09.17a19,19,0,0,1,4.89.62c.45.12,1.07.19,1.27-.24a1,1,0,0,0,.06-.43q0-1.75,0-3.5C73.27,107.39,73.22,107,72.94,106.94Z"/><path class="cls-2" d="M80.11,109.88a2.15,2.15,0,0,0-1.2-.08,13.85,13.85,0,0,0-3,.76q-.62.23-1.21.52c-.41.2-.58.36-.12.64a9.33,9.33,0,0,0,2.47.89,14,14,0,0,0,2.63.41q.67,0,1.33,0a12,12,0,0,1,1.26-.1q-.62-1.12-1.34-2.19A2.25,2.25,0,0,0,80.11,109.88Z"/><path class="cls-2" d="M91.67,111.47a1.69,1.69,0,0,0-1.88-.53c-.42.15-.86.28-1.29.42a4.52,4.52,0,0,0-2.15,1.27c-.19.23-.48.65-.4,1s.58.4.89.48a22.72,22.72,0,0,0,2.91.65,9.6,9.6,0,0,0,4-.19A3.74,3.74,0,0,0,92.9,113Z"/><path class="cls-2" d="M103,111a8.36,8.36,0,0,0-2,.45,9.14,9.14,0,0,0-3.23,1.94,1.75,1.75,0,0,0-.72,1.37,4.43,4.43,0,0,0,.15,2.08,4.37,4.37,0,0,0,1,1.42,14.82,14.82,0,0,0,3.66,2.71h0a.54.54,0,0,0,.76-.35l.3-1.19a14.18,14.18,0,0,0,.38-6.7A9.56,9.56,0,0,0,103,111Z"/><path class="cls-2" d="M81.85,118.09a12.85,12.85,0,0,0-5.74,2.19c-.1.07-.22.2-.15.3a.25.25,0,0,0,.13.08l3.11,1.17a5.08,5.08,0,0,0,2.51.4A2,2,0,0,0,83.77,121a1.86,1.86,0,0,0,.3-.54,1.74,1.74,0,0,0,.05-.44c0-.47.16-1.37-.23-1.74S82.41,118,81.85,118.09Z"/><path class="cls-2" d="M90,117.12a16,16,0,0,0-1.76.5c-.38.12-1.34.21-1.57.58-.39.62,1.79,1.6,2.24,1.79a13.19,13.19,0,0,0,1.88.6,1.67,1.67,0,0,0,1.94-.93h0a5.22,5.22,0,0,0,.24-.75l.49-1.89A14.42,14.42,0,0,0,90,117.12Z"/><path class="cls-3" d="M98.17,114.34c-1.84-.4-4.11,0-6-.16-4.54-.43-9-1.49-13.47-2.28a115.48,115.48,0,0,0-15.6-1.67,9.93,9.93,0,0,0-4,.41A10.34,10.34,0,0,0,57,111.9l-5.54,3.88a1.78,1.78,0,0,0-.61.59,1.48,1.48,0,0,0,.35,1.53c.89,1.12,3.35,1.6,4.78,1.6,1.75,0,5.7,1.32,6.65,1.63,6.07,2,12.21.53,18.22-1.62,2.2-.79,4.61-.43,6.79-1.26,3.65-1.4,6.63-.25,9.84-1.38C98.6,116.45,100.09,114.76,98.17,114.34Z"/><path class="cls-4" d="M98.17,114.34c-1.84-.4-4.11,0-6-.16-4.54-.43-9-1.49-13.47-2.28a115.48,115.48,0,0,0-15.6-1.67,9.93,9.93,0,0,0-4,.41A10.34,10.34,0,0,0,57,111.9l-5.54,3.88a1.78,1.78,0,0,0-.61.59,1.48,1.48,0,0,0,.35,1.53,3.1,3.1,0,0,0,1.06.79c1.92-.53,4.6-1.37,6.19-1.72,2.63-.59,6.81-1.54,7.88-1.4s11.2.69,12,.51,12.1,1.08,12.68,1.08a5.33,5.33,0,0,1,1.17.32,16.31,16.31,0,0,0,5.26-.6C98.6,116.45,100.09,114.76,98.17,114.34Z"/><path class="cls-2" d="M70.24,117.67a1.83,1.83,0,0,0-.5-.48,2.2,2.2,0,0,0-.94-.21,14.1,14.1,0,0,1-2.39-.39c-.53-.13-1.25-.55-1.68,0-.85,1,1.16,2.31,1.92,2.57a6.57,6.57,0,0,0,4.18,0,.23.23,0,0,0,.15-.4A8.8,8.8,0,0,0,70.24,117.67Z"/><path class="cls-5" d="M61.59,113.37a.19.19,0,0,0-.08.26s1.23,2.3.46,3.81a2.75,2.75,0,0,1-2.26,1.31.19.19,0,0,0,0,.39h0a3.1,3.1,0,0,0,2.56-1.52c.86-1.69-.41-4.07-.47-4.17A.19.19,0,0,0,61.59,113.37Z"/><path class="cls-6" d="M52.68,118c-.39-.19-1.4-.8-1.95-1.08h0a1.41,1.41,0,0,0,.05.26h0l0,.12h0a2,2,0,0,0,.11.24h0l.06.1,0,0,.05.08,0,0,.07.1.18.2.09.08.12.1.15.1.1.07.19.11.07,0,.24.12,0,0,.28.12h0L53,119h0l.33.1h0c.25.07.51.14.76.19A5.59,5.59,0,0,0,52.68,118Z"/><circle class="cls-7" cx="55.27" cy="115.01" r="1"/><circle class="cls-8" cx="55.27" cy="115.01" r="0.55"/><path class="cls-2" d="M34.86,46.35a.71.71,0,0,0-.32,0c-1.58.21-3.16.42-4.73.74a2.91,2.91,0,0,0-1.13.41,3,3,0,0,0-.75.91c-.27.43-1.29,1.56-1,2.07s1.62.18,2.09.17a19,19,0,0,1,4.89.62c.45.12,1.07.19,1.27-.24a1,1,0,0,0,.06-.43q0-1.75,0-3.5C35.19,46.8,35.14,46.44,34.86,46.35Z"/><path class="cls-2" d="M42,49.3a2.15,2.15,0,0,0-1.2-.08,13.85,13.85,0,0,0-3,.76q-.62.23-1.21.52c-.41.2-.58.36-.12.64A9.33,9.33,0,0,0,39,52a14,14,0,0,0,2.63.41q.67,0,1.33,0a12,12,0,0,1,1.26-.1q-.62-1.12-1.34-2.19A2.25,2.25,0,0,0,42,49.3Z"/><path class="cls-2" d="M53.59,50.88a1.69,1.69,0,0,0-1.88-.53c-.42.15-.86.28-1.29.42A4.52,4.52,0,0,0,48.27,52c-.19.23-.48.65-.4,1s.58.4.89.48a22.72,22.72,0,0,0,2.91.65,9.6,9.6,0,0,0,4-.19,3.74,3.74,0,0,0-.88-1.55Z"/><path class="cls-2" d="M64.94,50.43a8.36,8.36,0,0,0-2,.45,9.14,9.14,0,0,0-3.23,1.94A1.75,1.75,0,0,0,59,54.18a4.43,4.43,0,0,0,.15,2.08,4.37,4.37,0,0,0,1,1.42,14.82,14.82,0,0,0,3.66,2.71h0a.54.54,0,0,0,.76-.35l.3-1.19a18.9,18.9,0,0,0,.54-2.72,18.92,18.92,0,0,0-.16-4A9.56,9.56,0,0,0,64.94,50.43Z"/><path class="cls-2" d="M43.78,57.5A12.85,12.85,0,0,0,38,59.69c-.1.07-.22.2-.15.3a.25.25,0,0,0,.13.08l3.11,1.17a5.08,5.08,0,0,0,2.51.4,2,2,0,0,0,2.05-1.21,1.86,1.86,0,0,0,.3-.54,1.74,1.74,0,0,0,.05-.44c0-.47.16-1.37-.23-1.74S44.33,57.43,43.78,57.5Z"/><path class="cls-2" d="M51.92,56.54a16,16,0,0,0-1.76.5c-.38.12-1.34.21-1.57.58-.39.62,1.79,1.6,2.24,1.79a13.19,13.19,0,0,0,1.88.6,1.67,1.67,0,0,0,1.94-.93h0a5.22,5.22,0,0,0,.24-.75l.49-1.89A14.42,14.42,0,0,0,51.92,56.54Z"/><path class="cls-3" d="M60.09,53.75c-1.84-.4-4.11,0-6-.16-4.54-.43-9-1.49-13.47-2.28A115.48,115.48,0,0,0,25,49.64a9.93,9.93,0,0,0-4,.41,10.34,10.34,0,0,0-2.14,1.26l-5.54,3.88a1.78,1.78,0,0,0-.61.59,1.48,1.48,0,0,0,.35,1.53c.89,1.12,3.35,1.6,4.78,1.6,1.75,0,5.7,1.32,6.65,1.63,6.07,2,12.21.53,18.22-1.62,2.2-.79,4.61-.43,6.79-1.26,3.65-1.4,6.63-.25,9.84-1.38C60.53,55.87,62,54.17,60.09,53.75Z"/><path class="cls-4" d="M60.09,53.75c-1.84-.4-4.11,0-6-.16-4.54-.43-9-1.49-13.47-2.28A115.48,115.48,0,0,0,25,49.64a9.93,9.93,0,0,0-4,.41,10.34,10.34,0,0,0-2.14,1.26l-5.54,3.88a1.78,1.78,0,0,0-.61.59,1.48,1.48,0,0,0,.35,1.53,3.1,3.1,0,0,0,1.06.79c1.92-.53,4.6-1.37,6.19-1.72,2.63-.59,6.81-1.54,7.88-1.4s11.2.69,12,.51,12.1,1.08,12.68,1.08a5.33,5.33,0,0,1,1.17.32,16.31,16.31,0,0,0,5.26-.6C60.53,55.87,62,54.17,60.09,53.75Z"/><path class="cls-2" d="M32.16,57.08a1.83,1.83,0,0,0-.5-.48,2.2,2.2,0,0,0-.94-.21A14.1,14.1,0,0,1,28.34,56c-.53-.13-1.25-.55-1.68,0-.85,1,1.16,2.31,1.92,2.57a6.57,6.57,0,0,0,4.18,0,.23.23,0,0,0,.15-.4A8.8,8.8,0,0,0,32.16,57.08Z"/><path class="cls-5" d="M23.52,52.78a.19.19,0,0,0-.08.26s1.23,2.3.46,3.81a2.75,2.75,0,0,1-2.26,1.31.19.19,0,0,0,0,.39h0A3.1,3.1,0,0,0,24.25,57c.86-1.69-.41-4.07-.47-4.17A.19.19,0,0,0,23.52,52.78Z"/><path class="cls-6" d="M14.6,57.42c-.39-.19-1.4-.8-1.95-1.08h0a1.41,1.41,0,0,0,.05.26h0l0,.12h0a2,2,0,0,0,.11.24h0l.06.1,0,0,.05.08,0,0,.07.1.18.2.09.08.12.1.15.1.1.07.19.11L14,58l.24.12,0,0,.28.12h0l.31.12h0l.33.1h0c.25.07.51.14.76.19A5.59,5.59,0,0,0,14.6,57.42Z"/><circle class="cls-7" cx="17.19" cy="54.42" r="1"/><circle class="cls-8" cx="17.19" cy="54.42" r="0.55"/><path class="cls-9" d="M114.55,89c.09.91,1.48,1.26,1.78,1.28a6.52,6.52,0,0,1,1.22.23c.46.13.53,0,.73-.18a18.27,18.27,0,0,0,1.61-1.46c.46-.55.88-1.15,1.33-1.72a2.52,2.52,0,0,0,.29-1.61C120.39,85.19,114.46,88.12,114.55,89Z"/><path class="cls-9" d="M108.36,89a6,6,0,0,0-2.62,0,20.16,20.16,0,0,1,1,1.87c.23.58.66.41,1.62.7s1.81.51,1.69-.15A6.92,6.92,0,0,0,108.36,89Z"/><path class="cls-10" d="M123.49,83.29a4.25,4.25,0,0,1-2.59.09c-1.15-.44-5.43-2.69-7.48-3.28a25.56,25.56,0,0,0-7.1-.93,9.16,9.16,0,0,0-5.8,2.33,5.58,5.58,0,0,1-1.29,1.12,14.47,14.47,0,0,0-2.35,3.2.4.4,0,0,0,.4.4s-.11.94,1.48,1.41,2.83.75,3,.86a22.42,22.42,0,0,0,6.81,1,34.09,34.09,0,0,0,6.6-.43,49.6,49.6,0,0,0,6-2.82,4.27,4.27,0,0,1,2.88-.36c.53.2,4.81,2.35,6.5,2,0,0,0-1.9-4-3.5,0,0,4.42-2.3,4.29-3A31.7,31.7,0,0,0,123.49,83.29Z"/><path class="cls-11" d="M99.21,86.23A20.51,20.51,0,0,1,96.95,86a.42.42,0,0,0,.33.17.64.64,0,0,0,0,.14,18.5,18.5,0,0,0,1.93.14.13.13,0,1,0,0-.27Z"/><path class="cls-12" d="M124,83.06a23,23,0,0,1,.25,2.93c1,.46,4.74,2.23,6.28,1.86,0,0,0-1.9-4-3.5,0,0,4.42-2.3,4.29-3A33.49,33.49,0,0,0,124,83.06Z"/><path class="cls-13" d="M120.87,82.25a3.18,3.18,0,0,1-.25-.36c-.07-.11-.61-.17-.61-.31s-.14-.23-.15-.26-.36-.07-.37-.12-.2-.37-.33-.41-.7-.11-.7-.13-.17-.22-.2-.27-.46-.07-.5-.13-.11-.22-.21-.23-.49-.11-.49-.24-.6.07-.6.07-.13-.29-.18-.42-.41.31-.41.21a1,1,0,0,0-.32-.46c-.08,0-.47.47-.52.25a.38.38,0,0,0-.51-.29c-.22.1-.43-.14-.5-.36s-.75,0-.86,0-.51-.22-.54-.43-.36,0-.48,0-.11-.36-.08-.49-.58.17-.58.17-.41-.62-.55-.58-.51.28-.53-.1-.45,0-.82.11c-.21.07-.3-.18-.33-.4A.18.18,0,0,0,109,77c-.23.14-.54.28-.57,0,0-.42-.31-.34-.66,0s-.9.07-1.06,0-.42.86-.75.84-.51.94-.61,1.39a7,7,0,0,1,1-.07,25.56,25.56,0,0,1,7.1.93c2.06.6,6.33,2.84,7.48,3.28h0c0-.33,0-.84.06-.92A.17.17,0,0,0,120.87,82.25Z"/><path class="cls-13" d="M105.49,85.4s.15,2.6,1.92,2.35a32.72,32.72,0,0,0,7.24-3C114.75,84.55,106.74,84.6,105.49,85.4Z"/><path class="cls-14" d="M120.9,83.38c-1.15-.44-5.43-2.69-7.48-3.28a25.56,25.56,0,0,0-7.1-.93,9.16,9.16,0,0,0-5.8,2.33,5.58,5.58,0,0,1-1.29,1.12,14.47,14.47,0,0,0-2.35,3.2.5.5,0,0,0,0,.06,5.67,5.67,0,0,0,1.06,0c.14-.07,1.66-.61,1.89-.07s1.63,1,1.92,1,1.93-.37,2.36-1a9.33,9.33,0,0,1,4.56-2.19,29.74,29.74,0,0,1,5.87.93,10.51,10.51,0,0,0,4.25.5,17.16,17.16,0,0,0,4.73-1.73l0,0A4.25,4.25,0,0,1,120.9,83.38Z"/><path class="cls-11" d="M104,81.61a.13.13,0,0,0-.09.16s1.07,3.74-.28,5.25c-1.11,1.24-1.79,1.11-1.79,1.11a.13.13,0,0,0-.07.26h.13c.27,0,1-.13,1.93-1.2,1.45-1.62.38-5.34.34-5.5A.13.13,0,0,0,104,81.61Z"/><path class="cls-11" d="M102.44,83.25a.13.13,0,0,0-.07.17s.93,2.28,0,3.4a.13.13,0,0,0,.21.17c1-1.24.06-3.57,0-3.67A.13.13,0,0,0,102.44,83.25Z"/><circle class="cls-15" cx="100.4" cy="83.38" r="0.62"/><circle class="cls-16" cx="100.4" cy="83.38" r="0.37"/><path class="cls-9" d="M61.71,27.06c.09.91,1.48,1.26,1.78,1.28a6.52,6.52,0,0,1,1.22.23c.46.13.53,0,.73-.18A18.27,18.27,0,0,0,67,26.94c.46-.55.88-1.15,1.33-1.72a2.52,2.52,0,0,0,.29-1.61C67.56,23.22,61.62,26.15,61.71,27.06Z"/><path class="cls-9" d="M55.53,27.08a6,6,0,0,0-2.62,0,20.16,20.16,0,0,1,1,1.87c.23.58.66.41,1.62.7s1.81.51,1.69-.15A6.92,6.92,0,0,0,55.53,27.08Z"/><path class="cls-10" d="M70.65,21.32a4.25,4.25,0,0,1-2.59.09c-1.15-.44-5.43-2.69-7.48-3.28a25.56,25.56,0,0,0-7.1-.93,9.16,9.16,0,0,0-5.8,2.33,5.58,5.58,0,0,1-1.29,1.12A14.47,14.47,0,0,0,44,23.85a.4.4,0,0,0,.4.4s-.11.94,1.48,1.41,2.83.75,3,.86a22.42,22.42,0,0,0,6.81,1,34.09,34.09,0,0,0,6.6-.43,49.6,49.6,0,0,0,6-2.82,4.27,4.27,0,0,1,2.88-.36c.53.2,4.81,2.35,6.5,2,0,0,0-1.9-4-3.5,0,0,4.42-2.3,4.29-3A31.7,31.7,0,0,0,70.65,21.32Z"/><path class="cls-11" d="M46.37,24.26a20.51,20.51,0,0,1-2.26-.18.42.42,0,0,0,.33.17.64.64,0,0,0,0,.14,18.5,18.5,0,0,0,1.93.14.13.13,0,1,0,0-.27Z"/><path class="cls-12" d="M71.19,21.09A23,23,0,0,1,71.44,24c1,.46,4.74,2.23,6.28,1.86,0,0,0-1.9-4-3.5,0,0,4.42-2.3,4.29-3A33.49,33.49,0,0,0,71.19,21.09Z"/><path class="cls-13" d="M68,20.28a3.18,3.18,0,0,1-.25-.36c-.07-.11-.61-.17-.61-.31s-.14-.23-.15-.26-.36-.07-.37-.12-.2-.37-.33-.41-.7-.11-.7-.13-.17-.22-.2-.27-.46-.07-.5-.13-.11-.22-.21-.23-.49-.11-.49-.24-.6.07-.6.07-.13-.29-.18-.42-.41.31-.41.21a1,1,0,0,0-.32-.46c-.08,0-.47.47-.52.25a.38.38,0,0,0-.51-.29c-.22.1-.43-.14-.5-.36s-.75,0-.86,0-.51-.22-.54-.43-.36,0-.48,0-.11-.36-.08-.49-.58.17-.58.17-.41-.62-.55-.58-.51.28-.53-.1-.45,0-.82.11c-.21.07-.3-.18-.33-.4a.18.18,0,0,0-.28-.13c-.23.14-.54.28-.57,0,0-.42-.31-.34-.66,0s-.9.07-1.06,0-.42.86-.75.84-.51.94-.61,1.39a7,7,0,0,1,1-.07,25.56,25.56,0,0,1,7.1.93c2.06.6,6.33,2.84,7.48,3.28h0c0-.33,0-.84.06-.92A.17.17,0,0,0,68,20.28Z"/><path class="cls-13" d="M52.66,23.43s.15,2.6,1.92,2.35a32.72,32.72,0,0,0,7.24-3C61.91,22.59,53.9,22.64,52.66,23.43Z"/><path class="cls-14" d="M68.07,21.41c-1.15-.44-5.43-2.69-7.48-3.28a25.56,25.56,0,0,0-7.1-.93,9.16,9.16,0,0,0-5.8,2.33,5.58,5.58,0,0,1-1.29,1.12A14.47,14.47,0,0,0,44,23.85a.5.5,0,0,0,0,.06,5.67,5.67,0,0,0,1.06,0c.14-.07,1.66-.61,1.89-.07s1.63,1,1.92,1,1.93-.37,2.36-1a9.33,9.33,0,0,1,4.56-2.19,29.74,29.74,0,0,1,5.87.93A10.51,10.51,0,0,0,66,23a17.16,17.16,0,0,0,4.73-1.73l0,0A4.25,4.25,0,0,1,68.07,21.41Z"/><path class="cls-11" d="M51.12,19.65a.13.13,0,0,0-.09.16s1.07,3.74-.28,5.25C49.64,26.3,49,26.17,49,26.17a.13.13,0,0,0-.07.26H49c.27,0,1-.13,1.93-1.2,1.45-1.62.38-5.34.34-5.5A.13.13,0,0,0,51.12,19.65Z"/><path class="cls-11" d="M49.6,21.29a.13.13,0,0,0-.07.17s.93,2.28,0,3.4a.13.13,0,0,0,.21.17c1-1.24.06-3.57,0-3.67A.13.13,0,0,0,49.6,21.29Z"/><circle class="cls-15" cx="47.56" cy="21.41" r="0.62"/><circle class="cls-16" cx="47.56" cy="21.41" r="0.37"/></g></g></svg>