<svg xmlns="http://www.w3.org/2000/svg" viewBox="0 0 145.16 145.16"><defs><style>.cls-1{fill:#99d1ff;}.cls-2{fill:#c89e48;}.cls-3{fill:#e1e2b6;}.cls-4{fill:#e7b96b;}.cls-5{fill:#a5a685;}.cls-6{fill:#9d9e7f;}.cls-7{fill:#e7d4b4;}.cls-8{fill:#a1937d;}.cls-9{fill:#c9af96;}.cls-10{fill:#dbd1d0;}.cls-11{fill:#aea5aa;}.cls-12{fill:#bab2b1;}.cls-13{fill:#ceb694;}.cls-14{fill:#ccc3c2;}.cls-15{fill:#e8dedd;}.cls-16{fill:#615d5c;}.cls-17{fill:#326461;}.cls-18{fill:#04474f;}.cls-19{fill:#63c0b8;}.cls-20{fill:#4f9990;}.cls-21{opacity:0.2;}.cls-22{fill:#fed4bc;}.cls-23{fill:#1f1810;}.cls-24{fill:#fbf9ec;}.cls-25{fill:#73d8cc;}.cls-26{fill:#00797e;}.cls-27{fill:#6fbcce;}.cls-28{opacity:0.1;}.cls-29{fill:#565656;}.cls-30{fill:#ffd6b3;}.cls-31{fill:#2a1e1e;}.cls-32{fill:#fff;}.cls-33{fill:#005959;}.cls-34{fill:#7ccfdd;}.cls-35{fill:#c94924;}.cls-36{fill:#ab3e1f;}.cls-37{fill:#bb6846;}.cls-38{fill:#8f4f35;}.cls-39{fill:#bba8a1;}.cls-40{fill:#45261a;}.cls-41{fill:#854a32;}.cls-42{fill:#a36759;}.cls-43{fill:#bf7868;}.cls-44{fill:#968f93;}.cls-45{fill:#d68674;}.cls-46{fill:#a86a5c;}.cls-47{fill:#ccc1c7;}.cls-48{fill:#575255;}.cls-49{fill:#644437;}</style></defs><title>Asset 21</title><g id="Layer_2" data-name="Layer 2"><g id="Layer_1-2" data-name="Layer 1"><circle class="cls-1" cx="72.58" cy="72.58" r="72.58"/><path class="cls-2" d="M90.49,33.13a.71.71,0,0,0-.32,0c-1.58.21-3.16.42-4.72.74a2.91,2.91,0,0,0-1.13.41,3,3,0,0,0-.75.91c-.27.43-1.28,1.56-1,2.06s1.62.18,2.09.17a19,19,0,0,1,4.89.62c.45.12,1.07.19,1.26-.24a1,1,0,0,0,.06-.42q0-1.75,0-3.5C90.81,33.58,90.76,33.22,90.49,33.13Z"/><path class="cls-2" d="M97.66,36.07a2.15,2.15,0,0,0-1.2-.08,13.84,13.84,0,0,0-3,.76q-.62.23-1.21.52c-.41.2-.58.36-.12.64a9.33,9.33,0,0,0,2.47.89,14,14,0,0,0,2.63.41q.67,0,1.33,0a12,12,0,0,1,1.26-.1Q99.22,38,98.5,36.94A2.25,2.25,0,0,0,97.66,36.07Z"/><path class="cls-2" d="M109.21,37.66a1.69,1.69,0,0,0-1.88-.53c-.42.15-.86.28-1.29.42a4.51,4.51,0,0,0-2.14,1.27c-.19.23-.48.65-.4,1s.58.4.89.48a22.71,22.71,0,0,0,2.91.65,9.6,9.6,0,0,0,4-.19,3.74,3.74,0,0,0-.88-1.54Z"/><path class="cls-2" d="M120.55,37.2a8.35,8.35,0,0,0-2,.45,9.13,9.13,0,0,0-3.23,1.94,1.75,1.75,0,0,0-.72,1.37,4.43,4.43,0,0,0,.15,2.08,4.37,4.37,0,0,0,1,1.42,14.81,14.81,0,0,0,3.66,2.71h0a.53.53,0,0,0,.76-.35l.3-1.19a18.9,18.9,0,0,0,.54-2.71,18.91,18.91,0,0,0-.16-4A9.56,9.56,0,0,0,120.55,37.2Z"/><path class="cls-2" d="M99.4,44.28a12.84,12.84,0,0,0-5.74,2.19c-.1.07-.22.2-.15.3a.25.25,0,0,0,.13.08L96.75,48a5.07,5.07,0,0,0,2.51.4,2,2,0,0,0,2.05-1.21,1.86,1.86,0,0,0,.3-.54,1.74,1.74,0,0,0,.05-.44c0-.47.16-1.37-.23-1.74S100,44.21,99.4,44.28Z"/><path class="cls-2" d="M107.54,43.31a16,16,0,0,0-1.76.5c-.38.12-1.34.21-1.57.58-.39.62,1.79,1.6,2.24,1.79a13.18,13.18,0,0,0,1.88.6,1.67,1.67,0,0,0,1.94-.93h0a5.22,5.22,0,0,0,.24-.75l.49-1.89A14.41,14.41,0,0,0,107.54,43.31Z"/><path class="cls-3" d="M115.71,40.53c-1.84-.4-4.1,0-6-.16-4.54-.43-9-1.49-13.46-2.28a115.44,115.44,0,0,0-15.59-1.67,9.92,9.92,0,0,0-4,.41,10.34,10.34,0,0,0-2.14,1.26L69,42a1.78,1.78,0,0,0-.61.59,1.48,1.48,0,0,0,.35,1.53c.89,1.12,3.35,1.6,4.77,1.6,1.75,0,5.7,1.32,6.64,1.63,6.07,2,12.2.53,18.21-1.62,2.19-.79,4.61-.43,6.79-1.26,3.65-1.4,6.63-.24,9.83-1.38C116.14,42.64,117.62,40.95,115.71,40.53Z"/><path class="cls-4" d="M115.71,40.53c-1.84-.4-4.1,0-6-.16-4.54-.43-9-1.49-13.46-2.28a115.43,115.43,0,0,0-15.59-1.67,9.92,9.92,0,0,0-4,.41,10.34,10.34,0,0,0-2.14,1.26L69,42a1.78,1.78,0,0,0-.61.59,1.48,1.48,0,0,0,.35,1.53,3.1,3.1,0,0,0,1.06.79c1.92-.53,4.6-1.37,6.19-1.72,2.62-.59,6.8-1.54,7.87-1.4s11.19.69,12,.51,12.1,1.08,12.68,1.08a5.33,5.33,0,0,1,1.17.31,16.3,16.3,0,0,0,5.26-.6C116.14,42.64,117.62,40.95,115.71,40.53Z"/><path class="cls-2" d="M87.79,43.85a1.83,1.83,0,0,0-.5-.48,2.2,2.2,0,0,0-.94-.21A14.1,14.1,0,0,1,84,42.78c-.53-.13-1.25-.55-1.68,0-.85,1,1.16,2.31,1.92,2.57a6.57,6.57,0,0,0,4.17,0,.23.23,0,0,0,.15-.4A8.8,8.8,0,0,0,87.79,43.85Z"/><path class="cls-5" d="M79.15,39.55a.19.19,0,0,0-.08.26s1.23,2.3.46,3.81a2.75,2.75,0,0,1-2.26,1.31.19.19,0,0,0,0,.39h0a3.1,3.1,0,0,0,2.55-1.52c.86-1.69-.41-4.07-.47-4.17A.19.19,0,0,0,79.15,39.55Z"/><path class="cls-6" d="M70.24,44.2c-.39-.19-1.4-.8-1.95-1.08h0a1.41,1.41,0,0,0,.05.26h0l0,.12h0a2,2,0,0,0,.11.24h0l.06.1,0,0,.05.08,0,0,.07.1.18.2.09.08.12.1.15.1.1.07.19.11.07,0,.24.12,0,0,.28.12h0l.31.12h0l.33.1h0c.25.07.51.14.76.19A5.58,5.58,0,0,0,70.24,44.2Z"/><circle class="cls-7" cx="72.82" cy="41.2" r="1"/><circle class="cls-8" cx="72.82" cy="41.2" r="0.55"/><path class="cls-9" d="M50.87,90.32c.09.91,1.48,1.26,1.78,1.28a6.52,6.52,0,0,1,1.22.23c.46.13.53,0,.73-.18a18.27,18.27,0,0,0,1.61-1.46c.46-.55.88-1.15,1.33-1.72a2.52,2.52,0,0,0,.29-1.61C56.72,86.49,50.79,89.42,50.87,90.32Z"/><path class="cls-9" d="M44.69,90.34a6,6,0,0,0-2.62,0,20.16,20.16,0,0,1,1,1.87c.23.58.66.41,1.62.7s1.81.51,1.69-.15A6.92,6.92,0,0,0,44.69,90.34Z"/><path class="cls-10" d="M59.81,84.59a4.25,4.25,0,0,1-2.59.09c-1.15-.44-5.42-2.68-7.48-3.28a25.55,25.55,0,0,0-7.09-.93,9.15,9.15,0,0,0-5.8,2.33,5.57,5.57,0,0,1-1.29,1.12,14.47,14.47,0,0,0-2.35,3.2.4.4,0,0,0,.4.4s-.11.94,1.48,1.41,2.83.75,3,.86a22.41,22.41,0,0,0,6.81,1,34.08,34.08,0,0,0,6.6-.43,49.58,49.58,0,0,0,6-2.82,4.27,4.27,0,0,1,2.88-.36c.53.2,4.81,2.35,6.5,2,0,0,0-1.9-4-3.5,0,0,4.42-2.3,4.29-3A31.69,31.69,0,0,0,59.81,84.59Z"/><path class="cls-11" d="M35.54,87.53a20.5,20.5,0,0,1-2.26-.18.42.42,0,0,0,.33.17.64.64,0,0,0,0,.14,18.49,18.49,0,0,0,1.92.14.13.13,0,1,0,0-.27Z"/><path class="cls-12" d="M60.35,84.36a23,23,0,0,1,.25,2.93c1,.46,4.73,2.23,6.28,1.86,0,0,0-1.9-4-3.5,0,0,4.42-2.3,4.29-3A33.48,33.48,0,0,0,60.35,84.36Z"/><path class="cls-13" d="M57.2,83.55a3.18,3.18,0,0,1-.25-.36c-.07-.11-.6-.17-.6-.31s-.14-.23-.15-.26-.36-.07-.37-.12-.2-.37-.33-.41-.7-.11-.7-.13-.17-.22-.2-.27-.46-.07-.5-.13-.11-.22-.21-.23-.49-.1-.49-.24-.6.07-.6.07-.13-.29-.18-.42-.41.31-.41.21a1,1,0,0,0-.32-.46c-.08,0-.47.47-.52.25a.38.38,0,0,0-.51-.29c-.22.1-.43-.14-.5-.36s-.75,0-.86,0-.51-.22-.54-.43-.36,0-.48,0-.11-.36-.08-.49-.58.17-.58.17-.41-.62-.55-.58-.51.28-.53-.1-.45,0-.82.11c-.21.07-.3-.18-.33-.4a.18.18,0,0,0-.28-.13c-.23.14-.54.28-.57,0,0-.42-.31-.34-.66,0s-.9.07-1.06,0-.42.86-.75.84-.51.94-.61,1.39a7,7,0,0,1,1-.07,25.55,25.55,0,0,1,7.09.93c2.05.6,6.33,2.84,7.48,3.28h0c0-.33,0-.84.06-.92A.17.17,0,0,0,57.2,83.55Z"/><path class="cls-13" d="M41.83,86.7s.15,2.6,1.92,2.35a32.71,32.71,0,0,0,7.24-3C51.07,85.85,43.07,85.9,41.83,86.7Z"/><path class="cls-14" d="M57.23,84.68c-1.15-.44-5.42-2.68-7.48-3.28a25.55,25.55,0,0,0-7.09-.93,9.15,9.15,0,0,0-5.8,2.33,5.57,5.57,0,0,1-1.29,1.12,14.47,14.47,0,0,0-2.35,3.2.5.5,0,0,0,0,.06,5.66,5.66,0,0,0,1.06,0c.14-.07,1.66-.61,1.89-.07s1.63,1,1.92,1,1.93-.37,2.36-1A9.33,9.33,0,0,1,45,84.88a29.73,29.73,0,0,1,5.87.93,10.5,10.5,0,0,0,4.24.5,17.15,17.15,0,0,0,4.73-1.73l0,0A4.25,4.25,0,0,1,57.23,84.68Z"/><path class="cls-11" d="M40.29,82.91a.13.13,0,0,0-.09.16s1.07,3.74-.28,5.24c-1.11,1.24-1.79,1.11-1.79,1.11a.13.13,0,0,0-.07.26h.13c.27,0,1-.13,1.92-1.2,1.45-1.62.38-5.34.34-5.5A.13.13,0,0,0,40.29,82.91Z"/><path class="cls-11" d="M38.77,84.56a.13.13,0,0,0-.07.17s.93,2.28,0,3.4a.13.13,0,0,0,.21.17c1-1.24.06-3.57,0-3.67A.13.13,0,0,0,38.77,84.56Z"/><circle class="cls-15" cx="36.73" cy="84.68" r="0.62"/><circle class="cls-16" cx="36.73" cy="84.68" r="0.37"/><path class="cls-17" d="M35.6,53.25A1.1,1.1,0,0,0,37,53.4a9.92,9.92,0,0,0,3.57-3.46C39,49.93,34.65,52.89,35.6,53.25Z"/><path class="cls-17" d="M37.65,44.67c-1.15-.87-1.36-.55-2.94-1s-1.5-1.36-2.56-1.12-2-.39-2.74-.54c-.91-.15-2.52,2.13-2.52,2.13.16,3.05,13.19,3,13,2.68A11.51,11.51,0,0,0,37.65,44.67Z"/><path class="cls-18" d="M29.11,42.48l0,0-.12.06-.13.08-.14.1-.14.12-.13.13-.13.14-.12.14-.19.26a2.39,2.39,0,0,0-.16.27l.22-.22.22-.23.25-.26.25-.25.12-.11.11-.09.1-.07.08-.05.07,0-.08,0Z"/><path class="cls-18" d="M38.33,45.81l-.12-.15-.15-.17-.18-.17-.2-.18L37.48,45c-.15-.11-.3-.22-.44-.31l-.41-.24a3.89,3.89,0,0,0-.42-.19l.38.26.38.27.21.15.22.16.21.17.2.17.19.16.16.15.13.13.1.1.09.09-.07-.11Z"/><path class="cls-18" d="M35.93,44.86l0-.07,0-.08-.06-.08-.07-.08-.08-.08a1.56,1.56,0,0,0-.32-.24,1,1,0,0,0-.17-.08l.12.13.13.13.15.14.15.14.12.13,0,.06,0,0,0,0v-.05A.26.26,0,0,0,35.93,44.86Z"/><path class="cls-18" d="M34.38,44.14a.49.49,0,0,0-.12-.18.29.29,0,0,0-.08-.06.77.77,0,0,0,0,.1l0,.09,0,.1.08.18,0,.06v0a.28.28,0,0,0,0-.07.37.37,0,0,0,0-.1A.46.46,0,0,0,34.38,44.14Z"/><path class="cls-18" d="M31.61,43.28l-.09.08-.08.1a.66.66,0,0,0-.06.11l0,.06,0,.06a.43.43,0,0,0,0,.11v.1a.59.59,0,0,0,0,.08l0,.06,0,.05V44l0-.08v-.09l0-.09,0,0,0,0,.06-.09.07-.09.07-.08.07-.07.07-.06.15-.12a.67.67,0,0,0-.19.06A.88.88,0,0,0,31.61,43.28Z"/><path class="cls-18" d="M29.95,43.09l-.11.06-.11.07a1.06,1.06,0,0,0-.19.17l-.07.09a.52.52,0,0,0-.05.09.37.37,0,0,0,0,.09.2.2,0,0,0,0,.07s0,.06,0,.06l0-.05,0-.06,0-.07.06-.07.08-.07.09-.07.09-.07.1-.07.1-.07.18-.11.17-.12a1.07,1.07,0,0,0-.2,0Z"/><path class="cls-18" d="M32.87,43.68a.55.55,0,0,0-.09.22.5.5,0,0,0,0,.13.39.39,0,0,0,0,.11l0,.07,0,0v-.1l0-.21,0-.11v-.1c0-.06,0-.11,0-.11A.33.33,0,0,0,32.87,43.68Z"/><path class="cls-19" d="M42.55,47c-1.2.78-1.74.48-2.22.06A20.32,20.32,0,0,0,27.56,43.9a10.22,10.22,0,0,0-7.07,6.35s-.3.18,0,.42c1.8,1.5,4.2,2.82,10,3.3a12.86,12.86,0,0,0,10.25-4.2c.54-.66,1.14-.36,2.1-.12C46.44,48.46,43.75,46.24,42.55,47Z"/><path class="cls-20" d="M42.55,47c-1.2.78-1.74.48-2.22.06A20.32,20.32,0,0,0,27.56,43.9a10,10,0,0,0-3.85,1.89s1.76-.46,2.77,1.85,6.68,2.88,10.25,2.16,5.49-.71,7.91-1.67a10.74,10.74,0,0,0-.7-1.05A1.38,1.38,0,0,0,42.55,47Z"/><g class="cls-21"><path d="M42.55,47c-1.2.78-1.74.48-2.22.06A20.32,20.32,0,0,0,27.56,43.9a10,10,0,0,0-3.85,1.89,1.89,1.89,0,0,1,.68,0,10,10,0,0,1,3.16-1.39,20.32,20.32,0,0,1,12.77,3.18c.48.42,1,.72,2.22-.06a1.38,1.38,0,0,1,1.39.06,2,2,0,0,1,.46.66l.24-.09a10.74,10.74,0,0,0-.7-1.05A1.38,1.38,0,0,0,42.55,47Z"/></g><circle class="cls-22" cx="22.89" cy="48.47" r="0.82"/><circle class="cls-23" cx="22.86" cy="48.49" r="0.57"/><circle class="cls-24" cx="22.66" cy="48.49" r="0.37"/><path class="cls-18" d="M22.47,50.66H22l-.2,0-.21,0-.2,0-.19-.05L21,50.44l-.16-.06-.23-.11-.08-.05.07.07a1.51,1.51,0,0,0,.21.16l.15.09.18.08.2.07.21,0,.22,0h.41l.17,0a1.92,1.92,0,0,0,.26-.05l.1,0h-.21Z"/><path class="cls-17" d="M47.13,47.68c1-.93,2.16-1.68.93-1.92s-4.07-.1-5.15,1.12c0,0,1.53.32,1.5,1.28s-1.56,1.5-1.56,1.5a7.84,7.84,0,0,0,4.74,2c.72,0,.84-.24.36-.78s-1.47-2-1.47-2S46.12,48.61,47.13,47.68Z"/><path class="cls-17" d="M34.8,49.94a4,4,0,0,0-2.55-.63c-1.56,0-5.39-.2-4.81.4a1.24,1.24,0,0,1,.6,1.56c0,.27,3.12,1.68,4.08,1a8.12,8.12,0,0,1,3-1.53C35.48,50.84,35.37,50.26,34.8,49.94Z"/><path class="cls-18" d="M26.57,48.87a4.41,4.41,0,0,0-.12-.47A4.22,4.22,0,0,0,26.3,48c-.05-.13-.11-.25-.17-.36a4.22,4.22,0,0,0-.31-.51l-.14-.18.08.21c.05.13.12.32.2.55l.11.37c0,.13.07.27.11.42s.06.3.08.45,0,.31,0,.47a4.25,4.25,0,0,1,0,.46,3.75,3.75,0,0,1,0,.45,4.2,4.2,0,0,1-.09.41c0,.13-.08.25-.13.36l0,.08,0,.08-.07.14-.12.22-.12.19.17-.15.18-.19a2.55,2.55,0,0,0,.2-.28,2.49,2.49,0,0,0,.19-.36c0-.07.06-.14.08-.21s0-.15.06-.23,0-.16,0-.24a2.19,2.19,0,0,0,0-.25,3.52,3.52,0,0,0,0-.5A4,4,0,0,0,26.57,48.87Z"/><path class="cls-25" d="M37.57,51.8l-.15.08-.16.08-.35.16c-.25.1-.52.23-.81.33l-.45.16-.47.15c-.32.1-.66.19-1,.27l-.52.11-.27,0-.27,0c-.36.06-.71.1-1.07.13s-.7,0-1,0-.66,0-1,0-.6,0-.87-.08a12.31,12.31,0,0,1-1.29-.23l-.48-.13.12,0,.35.11a10.76,10.76,0,0,0,1.29.28c.27,0,.56.08.87.1s.64,0,1,0,.69,0,1.05,0,.72-.06,1.08-.12l.27,0,.27-.05.53-.11c.35-.08.69-.18,1-.28l.48-.16.45-.17c.29-.11.56-.24.81-.35s.47-.23.66-.34.36-.2.5-.28l.42-.26-.44.24Z"/><path class="cls-18" d="M31.9,52h-.46a7,7,0,0,1-1.19-.22l-.63-.17-.55-.16-.54-.16.14.07.37.16.54.2.31.1.32.09a6.43,6.43,0,0,0,.65.13l.3,0h.27l.23,0,.1,0,.08,0,.06,0,0,0,0,0H31.9Z"/><path class="cls-18" d="M32.17,51.13h-.5l-.3,0-.32,0-.33,0-.33,0-.32,0-.57-.09-.56-.1.15.05.39.12.27.07.3.07.32.06.33,0,.34,0,.33,0h.31l.27,0,.23,0,.17,0,.15,0-.15,0Z"/><path class="cls-18" d="M33.33,50.61l-.3-.09-.36-.09-.4-.08-.43-.07-.45-.06-.45,0-.44,0-.78,0h-.55l.55,0,.37,0,.41,0,.44,0,.45,0,.45.05.43.06.4.07.36.07.3.06.23.06.2,0-.2-.07Z"/><path class="cls-18" d="M34,50.21l-.4-.13L33.4,50,33.15,50c-.17,0-.35-.08-.54-.11L32,49.75l-.6-.06-.61,0H29.69l-.49,0c-.3,0-.55.05-.73.08l-.28,0,.28,0,.73,0h1l.58,0,.6,0,.6.06.58.08.54.09.25.05.23.05.4.1.3.1.27.08-.26-.11Z"/><path class="cls-18" d="M47.29,51.13,47,51.07,46.72,51l-.34-.11L46,50.75l-.36-.15-.36-.16L45,50.29,44.34,50l-.43-.21-.16-.08.15.1.41.26.28.16.32.17c.22.11.46.23.71.33l.37.14.37.12.35.09.32.06.27,0h.39l-.18,0Z"/><path class="cls-18" d="M46.41,50.29l-.34-.17-.39-.2-.38-.21L45,49.54l-.32-.18a2.75,2.75,0,0,0,.28.24l.31.22.18.11.2.11.2.1.2.09.19.07.17.06.26.07.1,0-.09,0Z"/><path class="cls-18" d="M47.09,47l-.17,0-.1,0-.1,0-.22.07-.24.09-.24.1-.23.12-.22.13a4,4,0,0,0-.36.25,2.57,2.57,0,0,0-.32.29l.36-.23.38-.22.44-.22.46-.2.21-.08.19-.07L47.1,47l.13,0,.11,0h-.25Z"/><path class="cls-18" d="M47.49,46l-.23,0-.28,0-.31.05-.32.07-.17,0-.17,0-.16.05-.16.06-.31.13-.28.14-.24.15-.19.14-.14.12-.08.09,0,0,.12-.1.15-.1.2-.12.24-.13.28-.12.31-.12.16-.06.16,0,.16-.05.16,0,.16,0,.16,0,.3-.07.27-.06.41-.08.15,0h-.34Z"/><path class="cls-18" d="M45.73,48.59l-.07,0-.08,0h-.37l-.16,0a.66.66,0,0,0-.15.06h1l0,0Z"/><path class="cls-18" d="M36.7,53.38h0l0,0,0,0-.11-.05-.11-.05-.1,0-.11,0a.43.43,0,0,0,.07.1l.09.08.11.07.13,0h.13l0,0,0,0,0,0H36.7Z"/><path class="cls-18" d="M37.11,53H37l-.14,0h-.08a.19.19,0,0,0,0,.07l.06.05.09,0H37l.08,0a.15.15,0,0,0,.05-.06h-.08Z"/><path class="cls-18" d="M37.75,52.52l-.05,0h-.17a.17.17,0,0,0,0,.06l0,0,.06,0a.2.2,0,0,0,.13,0,.12.12,0,0,0,.06,0l0,0Z"/><path class="cls-26" d="M96.89,124.82c-.75-.4-4.09-.3-3,.34,0,0,3.31,2,3.64,2.57.14.16.67-.57.48-1.29A2.1,2.1,0,0,0,96.89,124.82Z"/><path class="cls-26" d="M102.52,123.61s1.09,1.19,1.64.83,3.93-2.18,3.61-2.69S101.67,122.76,102.52,123.61Z"/><path class="cls-26" d="M94.24,112.19c-.65-.3-2.18,3-2.18,3-.38.76,1.15.61,2.14.85,4.81.91,4.28-.5,4.42-.85S94.89,112.48,94.24,112.19Z"/><path class="cls-27" d="M110.64,117.71a109.13,109.13,0,0,0-18.69-2.38C81.49,114.91,78.06,119,78.06,119c-.17.18.18.45.34.63l.48.58-.24-.06c-.5-.21-.82-.16-.58.16,1.27,1.37,6.34,3.59,10.3,4.33,10.14,1.69,20.38-3.43,22.28-4A1.65,1.65,0,0,0,110.64,117.71Z"/><path class="cls-26" d="M90.33,122c-.57-.48-3.5-.26-3.5-.26-.65.14-.81.57-.63.59s.89-.08,1.23.46.81.73.93.61a2.07,2.07,0,0,1,.91-.32C89.5,123,90.9,122.43,90.33,122Z"/><path class="cls-27" d="M91.94,115.34a27.3,27.3,0,0,0-8.73.89,1.45,1.45,0,0,0,.09.26s2.14,2,2.14,3.88c.67.24,18.53,2.24,25.74-1.49a8.49,8.49,0,0,0-.67-1.19A110.07,110.07,0,0,0,91.94,115.34Z"/><g class="cls-28"><path d="M110.64,117.71a111,111,0,0,0-18.69-2.38,27.3,27.3,0,0,0-8.73.89,1.45,1.45,0,0,0,.09.26s2.14,2,2.14,3.88c.67.24,18.53,2.24,25.74-1.49C111.41,118.21,111,117.92,110.64,117.71Z"/></g><path class="cls-29" d="M85.45,119.86a2.2,2.2,0,0,0-.18-.36l-.09-.12v.15c0,.09,0,.23,0,.38a5.27,5.27,0,0,1,0,1.09,2.48,2.48,0,0,1-.06.28,2.05,2.05,0,0,1-.09.26,2,2,0,0,1-.25.42l-.07.08-.06.08-.11.12-.11.11.15,0,.17-.06a1.38,1.38,0,0,0,.2-.11,1.43,1.43,0,0,0,.22-.18,1.51,1.51,0,0,0,.2-.25l.08-.15,0-.08,0-.08a1.89,1.89,0,0,0,.09-.34,2.16,2.16,0,0,0,0-.34,2.19,2.19,0,0,0,0-.33A2.44,2.44,0,0,0,85.45,119.86Z"/><path class="cls-26" d="M113.13,119.11c1-.71,3.46-3.94,3.83-4.22s.3-.8-.19-.69c-2.94.35-6.3,3.48-6.3,3.48a1.81,1.81,0,0,1,0,3.05,21.48,21.48,0,0,0,1.82,1.34c3.74,2,4.67,1.6,4.9,1.41S113.45,119.5,113.13,119.11Z"/><circle class="cls-30" cx="80.6" cy="119.01" r="0.95"/><circle class="cls-31" cx="80.51" cy="119.01" r="0.66"/><circle class="cls-32" cx="80.23" cy="119.01" r="0.38"/><path class="cls-29" d="M79,119.92a.67.67,0,0,0,0-.1.75.75,0,0,0-.05-.11l-.07-.1-.08-.1a1.47,1.47,0,0,0-.36-.29.94.94,0,0,0-.19-.09l.13.16.14.15.16.17.15.17.06.08.05.08,0,.07,0,.06,0,.05v-.06a.24.24,0,0,0,0-.07A.47.47,0,0,0,79,119.92Z"/><path class="cls-33" d="M87.94,122.7l-.05-.11a.63.63,0,0,0-.08-.12.72.72,0,0,0-.11-.12l-.14-.1-.16-.08-.17-.06-.17,0a1.51,1.51,0,0,0-.3,0,1.15,1.15,0,0,0-.28,0l.28.05.27.07.15,0,.15.05.14.07.13.08.11.09a1,1,0,0,1,.09.09l.07.08,0,.07,0,.06,0-.08Z"/><path class="cls-33" d="M88.77,122.34l-.11-.09-.14-.1-.16-.1-.18-.09-.2-.07-.2,0-.2,0h-.36a1.25,1.25,0,0,0-.34.08l.34,0,.34,0,.19,0,.19,0,.19.06.18.07.16.07.15.07.12.06.09.05.08,0-.06-.07Z"/><path class="cls-33" d="M97.06,126.65l-.14-.17-.18-.19a2.8,2.8,0,0,0-.22-.19l-.25-.19-.27-.18a5.64,5.64,0,0,0-.56-.29,5.09,5.09,0,0,0-.51-.2,3.59,3.59,0,0,0-.52-.14l.48.23.23.11.25.13.27.15.27.16.26.17.25.17.23.17.2.16.16.15.12.12.1.1-.08-.13Z"/><path class="cls-33" d="M97.46,126.41a1.42,1.42,0,0,0-.07-.15c0-.05-.06-.11-.11-.17a2.12,2.12,0,0,0-.14-.17,2,2,0,0,0-.17-.16l-.19-.15-.2-.13-.2-.11L96,125.2a2.41,2.41,0,0,0-.39-.11l.35.19.35.2c.12.08.26.16.38.25l.19.14L97,126l.15.14.12.14.09.13a.61.61,0,0,1,.06.11l0,.1,0-.11A.5.5,0,0,0,97.46,126.41Z"/><path class="cls-33" d="M97.67,126a.73.73,0,0,0,0-.14.8.8,0,0,0-.06-.15,1,1,0,0,0-.09-.15l-.11-.14-.13-.13-.14-.11a1.63,1.63,0,0,0-.26-.16,1.17,1.17,0,0,0-.28-.1l.23.18.11.09.11.1.12.11.11.12.11.13.09.13.08.13a1.28,1.28,0,0,1,.06.12l0,.11,0,.09,0,.08s0,0,0-.08,0-.06,0-.09Z"/><path class="cls-33" d="M103.83,124.07l-.06,0-.32-.23-.17-.12-.16-.1-.17-.09a.85.85,0,0,0,.1.16,1.42,1.42,0,0,0,.3.29l.19.11.1,0,.09,0h.19l0,0Z"/><path class="cls-33" d="M104.38,123.79l-.05,0-.12-.06-.14-.07-.15-.06-.14,0-.15,0a.59.59,0,0,0,.1.12l.12.1.15.09.17.06h.22l0,0,0,0h-.08Z"/><path class="cls-33" d="M105,123.46h0l-.25-.1-.14-.05-.13,0-.13,0a.48.48,0,0,0,.08.11.76.76,0,0,0,.25.17l.16,0H105l.06,0,0,0,0,0H105Z"/><path class="cls-33" d="M105.36,123l-.09,0-.09,0h-.1a.32.32,0,0,0,.05.09l.07.07.09.06.11,0h.1l.07,0,0,0-.08-.06Z"/><path class="cls-33" d="M106.23,122.77l0,0,0,0-.09,0-.1,0-.09,0-.1,0a.3.3,0,0,0,0,.1l.07.08.11.06.06,0h.06l.12,0,.07,0,0,0h0Z"/><path class="cls-33" d="M94.19,112.93l-.14.11-.16.14-.16.17c-.05.06-.11.13-.16.2l-.15.21-.14.22-.12.22c-.08.14-.14.28-.19.4a3.4,3.4,0,0,0-.14.41l.23-.37.23-.37.27-.42c.09-.14.19-.28.28-.41l.14-.18.13-.16.12-.13.1-.09.09-.08-.11.05Z"/><path class="cls-33" d="M95.14,113.59l-.11.07-.12.1-.12.13a1.8,1.8,0,0,0-.11.15l-.1.16-.09.17c0,.06-.05.11-.07.17a2.59,2.59,0,0,0-.1.31,1.81,1.81,0,0,0-.06.31l.15-.28.15-.28c.06-.1.11-.21.18-.31s.13-.21.19-.3l.1-.13.09-.11.09-.09.07-.07.07-.06-.08,0Z"/><path class="cls-33" d="M96.18,114.24l-.09,0-.09.06-.09.08-.08.09a1,1,0,0,0-.13.21.88.88,0,0,0,0,.11.77.77,0,0,0,0,.1.6.6,0,0,0,0,.21l.1-.17.11-.17.13-.18.07-.09.07-.08.14-.14.06-.06,0,0,0,0h-.06Z"/><path class="cls-33" d="M97,114.81a.54.54,0,0,0-.07.12.52.52,0,0,0,0,.14.43.43,0,0,0,0,.12.3.3,0,0,0,0,.12l.06-.1,0-.1.05-.11,0-.11,0-.1,0-.08v0a.33.33,0,0,0-.11.06Z"/><path class="cls-33" d="M98,115a.19.19,0,0,0-.08,0l-.06.06a.3.3,0,0,0,0,.09.32.32,0,0,0,0,.09.28.28,0,0,0,0,.08.22.22,0,0,0,0,.08l.06-.07,0-.07,0-.08a.63.63,0,0,0,0-.15s0,0,0-.06Z"/><path class="cls-33" d="M115.44,114.86l-.32.15-.37.2-.4.24-.42.27-.42.3c-.28.21-.56.41-.81.62s-.48.4-.68.58l-.46.43-.17.17.69-.52.71-.53.4-.3.42-.3.42-.3.41-.28.39-.26.35-.22.3-.18.24-.13.21-.11-.22.09Z"/><path class="cls-33" d="M115.13,116.16l-.18.2-.22.23-.25.25-.28.26-.29.26-.3.26-.29.24-.53.42-.38.29-.14.11.16-.08.41-.24c.17-.1.36-.23.56-.38s.41-.31.61-.49.39-.36.56-.54l.24-.27.2-.25.16-.22.11-.18.1-.15-.12.14Z"/><path class="cls-33" d="M116.05,123.37l-.37-.11-.43-.16-.47-.2-.49-.24-.5-.26-.49-.28-.47-.28-.83-.52-.33-.21-.25-.17-.22-.15.2.17.54.43.38.27.43.29c.3.2.63.4,1,.58l.51.26c.17.09.34.15.51.23l.49.18.45.13.39.08a2.17,2.17,0,0,0,.3,0l.26,0-.26-.05A2.13,2.13,0,0,1,116.05,123.37Z"/><path class="cls-33" d="M115.57,122.46a2.19,2.19,0,0,0-.31-.35,5,5,0,0,0-.51-.42l-.31-.21-.32-.2-.33-.19-.33-.18-.59-.29-.43-.18-.16-.06.15.09.4.24.56.33.64.38.32.2.31.19.54.37a2.68,2.68,0,0,1,.35.3l.08.1,0,0,0,0Z"/><path class="cls-33" d="M114.9,122.55l-.14-.08-.17-.11-.43-.28-.5-.32-.5-.31-.44-.26-.44-.24s.15.14.39.32l.42.3.49.33.26.16.25.15.46.24.19.08.15.05.1,0h0l0,0Z"/><path class="cls-33" d="M114.53,116l-.2.11-.23.14-.24.17c-.17.12-.34.26-.51.4l-.48.43-.4.4c-.23.24-.36.41-.36.41l.43-.34.43-.36.49-.42.49-.41.23-.19.21-.16.18-.13.14-.1.13-.08-.14,0Z"/><path class="cls-29" d="M107.58,117.6c-.49-.09-1.05-.21-1.66-.29l-2-.31-1.08-.16-1.13-.14-1.17-.14-.6-.07-.6-.06-1.22-.11c-.41,0-.82-.08-1.23-.1l-1.24-.08-.61,0-.61,0c-.81,0-1.61-.06-2.39,0H90.91l-1.09,0-.53,0-.51,0-1,.07-.89.1c-.28,0-.55.08-.8.11l-.36.05-.33.06-.59.12-.47.12-.34.1-.21.07-.07,0,.07,0,.21-.05.35-.07.47-.08.59-.08.34,0,.36,0c.25,0,.51-.06.79-.07l.88-.06,1,0,.51,0h1.61l1.14,0c.77,0,1.57.06,2.38.09l.61,0,.61,0,1.23.08.62,0,.61.05,1.22.11c.81.06,1.6.16,2.37.23l1.13.12,1.08.13,2,.23.45.05.43.06.79.1,1.29.17,1.13.14-1.11-.22Z"/><path class="cls-34" d="M106.9,121.48l-1,.39-.64.23-.34.13-.18.07-.18.05-1.62.48-1.83.45-1,.19-.5.1-.51.09-1,.15-.52.07-.52.05L96,124l-1,.07-.51,0-.51,0-1,0c-.65,0-1.29,0-1.89,0s-1.17-.06-1.69-.09l-.75-.07-.67-.07-1.09-.14-.7-.11-.25,0,.25,0,.7.14,1.09.17c.42.07.9.12,1.42.17s1.09.1,1.69.12,1.24,0,1.89.05l1,0h.51l.51,0,1-.06,1-.11.52-.06.52-.08,1-.16.51-.09.5-.1,1-.2,1.83-.47,1.62-.51.19-.06.18-.07.34-.14.63-.25,1-.42c.56-.24.88-.4.88-.4l-.23.1Z"/><path class="cls-35" d="M93,76.17c-.32-.4-2.82.34-2.54.58,0,0,2.89,2.57,3.63,2.54s1-2.28.9-2.73S93.27,76.56,93,76.17Z"/><path class="cls-35" d="M85,77.67c-.25-.44-1.54-.39-1.59,0,0,0,1.78,4.19,2.7,4s.64-2,.44-2.43S85.27,78.11,85,77.67Z"/><path class="cls-36" d="M83.63,77.67c-.17-.07-.1-.07-.49,0a18.46,18.46,0,0,0,1.28,3.42,7.52,7.52,0,0,1,.09-1.42A4.79,4.79,0,0,0,83.63,77.67Z"/><path class="cls-35" d="M89.59,69.28c-.21-.13-.24-.66-.42-.6s-.34-.8-.85-.77S87.9,67,87,67.06s-.9-.66-1.14-.45-1-.16-1.38-.37-.74.4-1.22.45-1-.08-1,.58-1.48-.29-1.64.34a15.16,15.16,0,0,0,.74,3.55c.79-.69,8-.56,8.26-.77A1,1,0,0,0,89.59,69.28Z"/><path class="cls-35" d="M93.69,68.25c-1.11-.16-3,2.54-3,2.54.11.77,3.57,2.36,3.73,1.69s2.46-.93,2.46-.93C96.87,70.58,94.8,68.41,93.69,68.25Z"/><path class="cls-37" d="M103.42,71.75A6.21,6.21,0,0,0,99.22,73a10,10,0,0,0-2.89.39S91.57,70.1,88.66,70s-7-.24-8.34.82a29.22,29.22,0,0,0-3,2.82c-.53.56-1.88,1.23-1.87,1.51s.15.17.13.36-.11.56.07.71a7.29,7.29,0,0,0,4,1.46,50.31,50.31,0,0,0,8.95,0c3.12-.37,6.89-2.54,7.28-2.52,1.09.07,2.83,1.16,4.53,1.93s3.18,1.27,2.89.29-1-1-.93-2.06S104.3,72,103.42,71.75Z"/><path class="cls-35" d="M103.42,71.75A6.19,6.19,0,0,0,99.32,73a3.39,3.39,0,0,1,.18,2.2,10.52,10.52,0,0,1-.65,1.16c.54.27,1.09.56,1.65.81,1.61.73,3,1.22,2.91.42s-.46-.91-.75-1.26a1.3,1.3,0,0,1-.2-.94C102.56,74.23,104.3,72,103.42,71.75Z"/><path class="cls-35" d="M85.11,74.1a19.65,19.65,0,0,1-2.32,1.09c-.15,0,.12.12.11.3s-.61.79.26.79,2.76-.37,2.85-1.23-.11-1.05-.26-1.21C85.74,73.85,85.76,73.74,85.11,74.1Z"/><path class="cls-38" d="M76.19,75.52a2.07,2.07,0,0,0-.56,0,.25.25,0,0,1,0,.06v0a6,6,0,0,1,1.68.58c.55.29.63.15.63.15a2.48,2.48,0,0,0-.45-.3A6.39,6.39,0,0,0,76.19,75.52Z"/><path class="cls-38" d="M80.86,73a.11.11,0,1,0-.11.18,2.19,2.19,0,0,1,1,1.51,2.59,2.59,0,0,1-1.26,2,.11.11,0,0,0,.07.19l.07,0A2.77,2.77,0,0,0,82,74.71,2.37,2.37,0,0,0,80.86,73Z"/><circle class="cls-39" cx="78.71" cy="73.84" r="0.75"/><circle class="cls-40" cx="78.71" cy="73.84" r="0.39"/><path class="cls-41" d="M96.32,73.42S91.57,70.1,88.66,70s-7-.24-8.34.82l-.54.45a4.14,4.14,0,0,0,.67,1.61c.35.21,1.15.62,1.2.21s-.78-2.26-.26-2.35.82-.21.94.44S83.16,74,83.5,74a1.06,1.06,0,0,0,.85-.51c.12-.26,0-3.09.18-3.15a6.46,6.46,0,0,1,1.43.09c.05,0-.07,3.17.41,3.4s1.15.61,1.5.39a1.66,1.66,0,0,0,.44-1.77c-.19-.92-.22-1.83.13-1.83s1-.29,1.15.48.36,4,.66,4,1.47,0,1.52-.47-.11-3.15.11-3.19a10.25,10.25,0,0,1,1.75.83s.08,2.21.12,2.33.21,0,.49-.19S95,74,95,73.63s0-.62.34-.44,1.16.24,1.28.41-.45.83,0,.83,1.6-.08,1.6-.4c0-.14,0-.54,0-1A5.54,5.54,0,0,0,96.32,73.42Z"/><path class="cls-11" d="M83.43,10.29c-.33-.22-4.55,1.78-5.24,2.09s-.95.37-2.37,0-5.46-2.09-7.32-2.63-6.44-1.09-8.08-.55A16.72,16.72,0,0,0,55.84,12a21.79,21.79,0,0,0-2.71,2.16c-.08.3.25.46.25.46s-.11.49.05.62a16,16,0,0,0,3.43,2,19,19,0,0,0,6.4,1.28c3,0,5.39.18,7-.55s4.51-2.62,5.3-2.62a9.17,9.17,0,0,1,2.84.38c.57.27,4,2.08,4.4,1.86s.35-.68-.05-1.2a20.63,20.63,0,0,1-1.17-1.91S83.76,10.5,83.43,10.29Z"/><path class="cls-42" d="M62.88,18.5h-.3c.16.61.65,2.21,1.41,2.6a.6.6,0,0,0,.45-.53C64.48,20.18,63.52,19,62.88,18.5Z"/><path class="cls-43" d="M65,19.16a6.44,6.44,0,0,1-1.31-.65h-.91a4.76,4.76,0,0,0,1.89,2.4.32.32,0,0,0,.46-.22c.06-.28.14-.67.19-1A.49.49,0,0,0,65,19.16Z"/><path class="cls-43" d="M74.75,16.38a5,5,0,0,1-.74-.45c-1.21.62-2.78,1.57-3.79,2a5,5,0,0,1-1,.34c1.22,1,3.23.13,4.29-.38S75.14,16.56,74.75,16.38Z"/><path class="cls-43" d="M74.89,11.16c0-.19-.09-.09-.19-.25s-.36,0-.43-.07-.08-.31-.15-.39-.25,0-.23-.12,0-.26-.27-.24-.27-.15-.29-.28-.65,0-.59-.14-.3-.25-.36-.18-.28-.15-.34-.31-.42.25-.41.12a1.63,1.63,0,0,0-.09-.43s-.54,0-.48-.08-.54-.08-.6-.11-.1-.36-.12-.46-.66.12-.66.12L69,8.3s.05-.28,0-.35-.69.07-.73,0-.43-.05-.47-.13.16-.45.05-.46-.76.19-.76.05-.72.12-.75.08-.44-.23-.49-.14-.55-.12-.68-.31-.49.38-.63.16-.72.45-.82.48-.18-.22-.51-.16-.52.51-.6.38-.6.46-.68.53-.12-.23-.33-.11a2.38,2.38,0,0,0-.49.71,23.72,23.72,0,0,1,7.38.7c1.63.48,4.94,1.86,6.69,2.44a1.7,1.7,0,0,0-.1-.79C74.94,11.17,74.92,11.35,74.89,11.16Z"/><path class="cls-44" d="M54.37,14.8a4.72,4.72,0,0,0-1-.24l0,0v.07c.37.18.81.43.9.49s.52.35.53.18S54.56,14.92,54.37,14.8Z"/><path class="cls-45" d="M78.19,12.38c-.69.31-.95.37-2.37,0s-5.46-2.09-7.32-2.63-6.44-1.09-8.08-.55A16.72,16.72,0,0,0,55.84,12a21.79,21.79,0,0,0-2.71,2.16.33.33,0,0,0,0,.15c.41,0,1,0,1.26,0s1.67,1,2.31.65A2.55,2.55,0,0,0,57.89,13c.24-1,2.47-2.33,3.89-2.41a34.79,34.79,0,0,1,7.78.66c1.91.55,4.91,2,6.44,2a8.82,8.82,0,0,0,3.58-.57,7.49,7.49,0,0,0,3.85-2.41C83.1,10.07,78.88,12.07,78.19,12.38Z"/><path class="cls-46" d="M62.57,8.09a2,2,0,0,0-.6.68.05.05,0,0,0,0,.07h0a.05.05,0,0,0,0,0,1.88,1.88,0,0,1,.57-.64.05.05,0,0,0-.06-.09Z"/><path class="cls-46" d="M63.71,7.83,63,8.37a1,1,0,0,0-.32.37.05.05,0,0,0,0,.07h0a.05.05,0,0,0,.05,0,.9.9,0,0,1,.29-.33l.67-.55a.05.05,0,0,0-.07-.09Z"/><path class="cls-46" d="M65.07,7.42a9.84,9.84,0,0,0-1.26,1.15.05.05,0,0,0,0,.08h0l0,0a9.72,9.72,0,0,1,1.24-1.14.05.05,0,1,0-.07-.09Z"/><path class="cls-46" d="M66,7.62A12.89,12.89,0,0,0,64.5,8.86a.05.05,0,0,0,0,.08h0a.05.05,0,0,0,0,0,13.59,13.59,0,0,1,1.49-1.21A.05.05,0,1,0,66,7.62Z"/><path class="cls-46" d="M67.05,7.72a8.86,8.86,0,0,0-1,.67,4.46,4.46,0,0,0-.58.58.05.05,0,0,0,0,.08h0l0,0a4.36,4.36,0,0,1,.57-.57,8.81,8.81,0,0,1,1-.66.05.05,0,0,0-.06-.09Z"/><path class="cls-46" d="M67.93,8.07A12.68,12.68,0,0,0,66.6,9.12a.05.05,0,0,0,0,.08h0l0,0a13.08,13.08,0,0,1,1.31-1,.05.05,0,1,0-.06-.09Z"/><path class="cls-46" d="M68.67,8.26c-.41.34-.81.69-1.2,1.06a.05.05,0,0,0,0,.08l0,0,0,0c.38-.37.78-.72,1.19-1.06a.05.05,0,1,0-.07-.08Z"/><path class="cls-46" d="M69.33,8.46a3.56,3.56,0,0,0-.85.8l-.16.18a.05.05,0,0,0,0,.08h0l0,0,.16-.18a3.48,3.48,0,0,1,.82-.77.05.05,0,1,0-.05-.1Z"/><path class="cls-46" d="M70.07,8.52a3.62,3.62,0,0,0-1.2,1.14.05.05,0,0,0,0,.07h0a.05.05,0,0,0,.05,0A3.75,3.75,0,0,1,70.1,8.63a.05.05,0,0,0,0-.11Z"/><path class="cls-46" d="M70.76,8.87a5.78,5.78,0,0,0-.95,1,.05.05,0,0,0,0,.07h0a.05.05,0,0,0,0,0,5.78,5.78,0,0,1,.92-1,.05.05,0,1,0-.07-.09Z"/><path class="cls-46" d="M71.26,9.15a6.57,6.57,0,0,0-.72,1.06.05.05,0,0,0,0,.07h0a.05.05,0,0,0,.05,0,6.79,6.79,0,0,1,.7-1,.05.05,0,0,0-.08-.07Z"/><path class="cls-46" d="M72,9.48a3.13,3.13,0,0,0-.86,1,.05.05,0,0,0,0,.07h0a.05.05,0,0,0,0,0,3,3,0,0,1,.83-1A.05.05,0,0,0,72,9.48Z"/><path class="cls-46" d="M72.47,9.72a2.83,2.83,0,0,0-.65.76l-.09.13a.05.05,0,0,0,0,.08h0l0,0,.1-.14a3.11,3.11,0,0,1,.61-.72.05.05,0,1,0,0-.1Z"/><path class="cls-46" d="M73.07,9.91a3.57,3.57,0,0,0-.75.95.05.05,0,0,0,0,.07h0a.05.05,0,0,0,0,0,3.48,3.48,0,0,1,.72-.92.05.05,0,0,0-.07-.09Z"/><path class="cls-46" d="M73.48,10.31a4.45,4.45,0,0,0-.57.63l0,0a.05.05,0,0,0,0,.08h0l0,0,0,0a4.4,4.4,0,0,1,.55-.61.05.05,0,0,0-.07-.09Z"/><path class="cls-46" d="M73.88,10.61a6.28,6.28,0,0,0-.49.67.05.05,0,0,0,0,.07h0a.05.05,0,0,0,0,0,6.22,6.22,0,0,1,.48-.65.05.05,0,1,0-.08-.07Z"/><path class="cls-46" d="M74.27,10.95a6.28,6.28,0,0,0-.43.51.05.05,0,0,0,0,.08h0l0,0a6.16,6.16,0,0,1,.42-.5.05.05,0,0,0-.08-.08Z"/><path class="cls-46" d="M74.73,11.22a1.38,1.38,0,0,0-.28.42l-.06.11a.05.05,0,0,0,0,.07h0a.05.05,0,0,0,0,0l.06-.11a1.32,1.32,0,0,1,.25-.38.05.05,0,0,0-.07-.09Z"/><circle class="cls-47" cx="56.26" cy="13.64" r="0.92"/><circle class="cls-48" cx="56.26" cy="13.64" r="0.48"/><path class="cls-44" d="M59.19,12.05a.16.16,0,0,0,0,.23A3.79,3.79,0,0,1,60,14.87a2.25,2.25,0,0,1-1.19,1.53.16.16,0,0,0,.08.3l.08,0a2.56,2.56,0,0,0,1.34-1.76,4.05,4.05,0,0,0-.92-2.85A.16.16,0,0,0,59.19,12.05Z"/><path class="cls-44" d="M58.19,13a.16.16,0,0,0-.12.2s.63,2.62-.94,3.06a.16.16,0,0,0,0,.32h0c1.87-.53,1.2-3.34,1.17-3.46A.16.16,0,0,0,58.19,13Z"/><path class="cls-45" d="M62.31,13.85c-1.3.35-1.67.78-1.43,1.27A1.58,1.58,0,0,1,61,16c2.69.4,5.9-2.6,5.54-2.86S63.61,13.51,62.31,13.85Z"/><path class="cls-49" d="M83.43,10.29c-.3-.2-3.93,1.49-5,2a5.22,5.22,0,0,1,.47,1.84,3.83,3.83,0,0,1-.48,1.62c.66.32,4,2.05,4.36,1.84s.35-.68-.05-1.2a20.63,20.63,0,0,1-1.17-1.91S83.76,10.5,83.43,10.29Z"/><path class="cls-17" d="M47.65,119.18a1.1,1.1,0,0,0,1.44.15,9.92,9.92,0,0,0,3.57-3.46C51,115.85,46.7,118.81,47.65,119.18Z"/><path class="cls-17" d="M49.7,110.59c-1.15-.87-1.36-.55-2.94-1s-1.5-1.36-2.56-1.12-2-.39-2.74-.54c-.91-.15-2.52,2.13-2.52,2.13.16,3.05,13.19,3,13,2.68A11.51,11.51,0,0,0,49.7,110.59Z"/><path class="cls-18" d="M41.16,108.4l0,0-.12.06-.13.08-.14.1-.14.12-.13.13-.13.14-.12.14-.19.26a2.39,2.39,0,0,0-.16.27l.22-.22.22-.23.25-.26.25-.25.12-.11.11-.09.1-.07.08-.05.07,0-.08,0Z"/><path class="cls-18" d="M50.38,111.73l-.12-.15-.15-.17-.18-.17-.2-.18-.21-.17c-.15-.11-.3-.22-.44-.31l-.41-.24a3.89,3.89,0,0,0-.42-.19l.38.26.38.27.21.15.22.16.21.17.2.17.19.16.16.15.13.13.1.1.09.09-.07-.11Z"/><path class="cls-18" d="M48,110.78l0-.07,0-.08-.06-.08-.07-.08-.08-.08a1.56,1.56,0,0,0-.32-.24,1,1,0,0,0-.17-.08l.12.13.13.13.15.14.15.14.12.13,0,.06,0,0,0,0v-.05A.26.26,0,0,0,48,110.78Z"/><path class="cls-18" d="M46.43,110.06a.49.49,0,0,0-.12-.18.29.29,0,0,0-.08-.06.77.77,0,0,0,0,.1l0,.09,0,.1.08.18,0,.06v0a.28.28,0,0,0,0-.07.37.37,0,0,0,0-.1A.46.46,0,0,0,46.43,110.06Z"/><path class="cls-18" d="M43.66,109.2l-.09.08-.08.1a.66.66,0,0,0-.06.11l0,.06,0,.06a.43.43,0,0,0,0,.11v.1a.59.59,0,0,0,0,.08l0,.06,0,.05v-.12l0-.08v-.09l0-.09,0,0,0,0,.06-.09.07-.09.07-.08.07-.07.07-.06L44,109a.67.67,0,0,0-.19.06A.88.88,0,0,0,43.66,109.2Z"/><path class="cls-18" d="M42,109l-.11.06-.11.07a1.06,1.06,0,0,0-.19.17l-.07.09a.52.52,0,0,0-.05.09.37.37,0,0,0,0,.09.2.2,0,0,0,0,.07s0,.06,0,.06l0-.05,0-.06,0-.07.06-.07.08-.07.09-.07.09-.07.1-.07.1-.07.18-.11.17-.12a1.07,1.07,0,0,0-.2,0Z"/><path class="cls-18" d="M44.92,109.6a.55.55,0,0,0-.09.22.5.5,0,0,0,0,.13.39.39,0,0,0,0,.11l0,.07,0,0v-.1l0-.21,0-.11v-.1c0-.06,0-.11,0-.11A.33.33,0,0,0,44.92,109.6Z"/><path class="cls-19" d="M54.6,112.94c-1.2.78-1.74.48-2.22.06a20.32,20.32,0,0,0-12.77-3.18,10.22,10.22,0,0,0-7.07,6.35s-.3.18,0,.42c1.8,1.5,4.2,2.82,10,3.3a12.86,12.86,0,0,0,10.25-4.2c.54-.66,1.14-.36,2.1-.12C58.49,114.38,55.8,112.16,54.6,112.94Z"/><path class="cls-20" d="M54.6,112.94c-1.2.78-1.74.48-2.22.06a20.32,20.32,0,0,0-12.77-3.18,10,10,0,0,0-3.85,1.89s1.76-.46,2.77,1.85,6.68,2.88,10.25,2.16,5.49-.71,7.91-1.67A10.74,10.74,0,0,0,56,113,1.38,1.38,0,0,0,54.6,112.94Z"/><g class="cls-21"><path d="M54.6,112.94c-1.2.78-1.74.48-2.22.06a20.32,20.32,0,0,0-12.77-3.18,10,10,0,0,0-3.85,1.89,1.89,1.89,0,0,1,.68,0,10,10,0,0,1,3.16-1.39,20.32,20.32,0,0,1,12.77,3.18c.48.42,1,.72,2.22-.06a1.38,1.38,0,0,1,1.39.06,2,2,0,0,1,.46.66l.24-.09A10.74,10.74,0,0,0,56,113,1.38,1.38,0,0,0,54.6,112.94Z"/></g><circle class="cls-22" cx="34.94" cy="114.39" r="0.82"/><circle class="cls-23" cx="34.91" cy="114.42" r="0.57"/><circle class="cls-24" cx="34.71" cy="114.42" r="0.37"/><path class="cls-18" d="M34.52,116.58H34l-.2,0-.21,0-.2,0-.19-.05-.18-.06-.16-.06-.23-.11-.08-.05.07.07a1.51,1.51,0,0,0,.21.16l.15.09.18.08.2.07.21,0,.22,0h.41l.17,0a1.92,1.92,0,0,0,.26-.05l.1,0h-.21Z"/><path class="cls-17" d="M59.18,113.6c1-.93,2.16-1.68.93-1.92S56,111.58,55,112.8c0,0,1.53.32,1.5,1.28s-1.56,1.5-1.56,1.5a7.84,7.84,0,0,0,4.74,2c.72,0,.84-.24.36-.78s-1.47-2-1.47-2S58.17,114.53,59.18,113.6Z"/><path class="cls-17" d="M46.85,115.86a4,4,0,0,0-2.55-.63c-1.56,0-5.39-.2-4.81.4a1.24,1.24,0,0,1,.6,1.56c0,.27,3.12,1.68,4.08,1a8.12,8.12,0,0,1,3-1.53C47.53,116.76,47.42,116.18,46.85,115.86Z"/><path class="cls-18" d="M38.62,114.79a4.41,4.41,0,0,0-.12-.47,4.22,4.22,0,0,0-.15-.42c-.05-.13-.11-.25-.17-.36a4.22,4.22,0,0,0-.31-.51l-.14-.18.08.21c.05.13.12.32.2.55l.11.37c0,.13.07.27.11.42s.06.3.08.45,0,.31,0,.47a4.25,4.25,0,0,1,0,.46,3.75,3.75,0,0,1,0,.45,4.2,4.2,0,0,1-.09.41c0,.13-.08.25-.13.36l0,.08,0,.08-.07.14-.12.22-.12.19.17-.15.18-.19a2.55,2.55,0,0,0,.2-.28,2.49,2.49,0,0,0,.19-.36c0-.07.06-.14.08-.21s0-.15.06-.23,0-.16,0-.24a2.19,2.19,0,0,0,0-.25,3.52,3.52,0,0,0,0-.5A4,4,0,0,0,38.62,114.79Z"/><path class="cls-25" d="M49.62,117.72l-.15.08-.16.08L49,118c-.25.1-.52.23-.81.33l-.45.16-.47.15c-.32.1-.66.19-1,.27l-.52.11-.27,0-.27,0c-.36.06-.71.1-1.07.13s-.7,0-1,0-.66,0-1,0-.6,0-.87-.08a12.31,12.31,0,0,1-1.29-.23l-.48-.13.12,0,.35.11a10.76,10.76,0,0,0,1.29.28c.27,0,.56.08.87.1s.64,0,1,0,.69,0,1.05,0,.72-.06,1.08-.12l.27,0,.27-.05.53-.11c.35-.08.69-.18,1-.28l.48-.16.45-.17c.29-.11.56-.24.81-.35s.47-.23.66-.34.36-.2.5-.28l.42-.26-.44.24Z"/><path class="cls-18" d="M43.95,117.91h-.46a7,7,0,0,1-1.19-.22l-.63-.17-.55-.16-.54-.16.14.07.37.16.54.2.31.1.32.09a6.43,6.43,0,0,0,.65.13l.3,0h.27l.23,0,.1,0,.08,0,.06,0,0,0,0,0h-.08Z"/><path class="cls-18" d="M44.22,117.05h-.5l-.3,0-.32,0-.33,0-.33,0-.32,0-.57-.09-.56-.1.15.05.39.12.27.07.3.07.32.06.33,0,.34,0,.33,0h.31l.27,0,.23,0,.17,0,.15,0-.15,0Z"/><path class="cls-18" d="M45.38,116.53l-.3-.09-.36-.09-.4-.08-.43-.07-.45-.06-.45,0-.44,0-.78,0h-.55l.55,0,.37,0,.41,0,.44,0,.45,0,.45.05.43.06.4.07.36.07.3.06.23.06.2,0-.2-.07Z"/><path class="cls-18" d="M46.07,116.13l-.4-.13-.23-.06-.25-.06c-.17,0-.35-.08-.54-.11l-.58-.09-.6-.06-.61,0H41.74l-.49,0c-.3,0-.55.05-.73.08l-.28,0,.28,0,.73,0h1l.58,0,.6,0,.6.06.58.08.54.09.25.05.23.05.4.1.3.1.27.08-.26-.11Z"/><path class="cls-18" d="M59.34,117.05l-.26-.06-.31-.08-.34-.11-.36-.13-.36-.15-.36-.16-.35-.16-.61-.29-.43-.21-.16-.08.15.1.41.26.28.16.32.17c.22.11.46.23.71.33l.37.14.37.12.35.09.32.06.27,0h.39l-.18,0Z"/><path class="cls-18" d="M58.46,116.22l-.34-.17-.39-.2-.38-.21-.33-.19-.32-.18a2.75,2.75,0,0,0,.28.24l.31.22.18.11.2.11.2.1.2.09.19.07.17.06.26.07.1,0-.09,0Z"/><path class="cls-18" d="M59.14,112.87l-.17,0-.1,0-.1,0-.22.07-.24.09-.24.1-.23.12-.22.13a4,4,0,0,0-.36.25,2.57,2.57,0,0,0-.32.29l.36-.23.38-.22.44-.22.46-.2.21-.08L59,113l.17-.05.13,0,.11,0h-.25Z"/><path class="cls-18" d="M59.54,112l-.23,0L59,112l-.31.05-.32.07-.17,0-.17,0-.16.05-.16.06-.31.13-.28.14-.24.15-.19.14-.14.12-.08.09,0,0,.12-.1.15-.1.2-.12.24-.13.28-.12.31-.12.16-.06.16,0,.16-.05.16,0,.16,0,.16,0,.3-.07.27-.06.41-.08.15,0h-.34Z"/><path class="cls-18" d="M57.78,114.51l-.07,0-.08,0h-.37l-.16,0a.66.66,0,0,0-.15.06h1l0,0Z"/><path class="cls-18" d="M48.75,119.3h0l0,0,0,0-.11-.05-.11-.05-.1,0-.11,0a.43.43,0,0,0,.07.1l.09.08.11.07.13,0h.13l0,0,0,0,0,0h-.06Z"/><path class="cls-18" d="M49.16,118.88H49l-.14,0h-.08a.19.19,0,0,0,0,.07l.06.05.09,0h.1l.08,0a.15.15,0,0,0,.05-.06h-.08Z"/><path class="cls-18" d="M49.8,118.44l-.05,0h-.17a.17.17,0,0,0,0,.06l0,0,.06,0a.2.2,0,0,0,.13,0,.12.12,0,0,0,.06,0l0,0Z"/></g></g></svg>