<svg xmlns="http://www.w3.org/2000/svg" viewBox="0 0 145.22 145.22"><defs><style>.cls-1{fill:#99d1ff;}.cls-2{fill:#c89e48;}.cls-3{fill:#e1e2b6;}.cls-4{fill:#e7b96b;}.cls-5{fill:#a5a685;}.cls-6{fill:#9d9e7f;}.cls-7{fill:#e7d4b4;}.cls-8{fill:#a1937d;}.cls-9{fill:#c9af96;}.cls-10{fill:#dbd1d0;}.cls-11{fill:#aea5aa;}.cls-12{fill:#bab2b1;}.cls-13{fill:#ceb694;}.cls-14{fill:#ccc3c2;}.cls-15{fill:#e8dedd;}.cls-16{fill:#615d5c;}.cls-17{fill:#c94924;}.cls-18{fill:#ab3e1f;}.cls-19{fill:#bb6846;}.cls-20{fill:#8f4f35;}.cls-21{fill:#bba8a1;}.cls-22{fill:#45261a;}.cls-23{fill:#854a32;}.cls-24{fill:#326461;}.cls-25{fill:#04474f;}.cls-26{fill:#63c0b8;}.cls-27{fill:#4f9990;}.cls-28{opacity:0.2;}.cls-29{fill:#fed4bc;}.cls-30{fill:#1f1810;}.cls-31{fill:#fbf9ec;}.cls-32{fill:#73d8cc;}</style></defs><title>Asset 18</title><g id="Layer_2" data-name="Layer 2"><g id="Layer_1-2" data-name="Layer 1"><circle class="cls-1" cx="72.61" cy="72.61" r="72.61"/><path class="cls-2" d="M94.91,40.62a.71.71,0,0,0-.32,0c-1.58.21-3.16.42-4.73.74a2.91,2.91,0,0,0-1.13.41,3,3,0,0,0-.75.91c-.27.43-1.29,1.56-1,2.07s1.62.18,2.09.17a19,19,0,0,1,4.89.62c.45.12,1.07.19,1.27-.24a1,1,0,0,0,.06-.43q0-1.75,0-3.5C95.23,41.07,95.18,40.71,94.91,40.62Z"/><path class="cls-2" d="M102.08,43.56a2.15,2.15,0,0,0-1.2-.08,13.85,13.85,0,0,0-3,.76q-.62.23-1.21.52c-.41.2-.58.36-.12.64A9.33,9.33,0,0,0,99,46.3a14,14,0,0,0,2.63.41q.67,0,1.33,0a12,12,0,0,1,1.26-.1q-.62-1.12-1.34-2.19A2.25,2.25,0,0,0,102.08,43.56Z"/><path class="cls-2" d="M113.63,45.15a1.69,1.69,0,0,0-1.88-.53c-.42.15-.86.28-1.29.42a4.52,4.52,0,0,0-2.15,1.27c-.19.23-.48.65-.4,1s.58.4.89.48a22.72,22.72,0,0,0,2.91.65,9.6,9.6,0,0,0,4-.19,3.74,3.74,0,0,0-.88-1.55Z"/><path class="cls-2" d="M125,44.69a8.36,8.36,0,0,0-2,.45,9.14,9.14,0,0,0-3.23,1.94,1.75,1.75,0,0,0-.72,1.37,4.43,4.43,0,0,0,.15,2.08,4.37,4.37,0,0,0,1,1.42,14.82,14.82,0,0,0,3.66,2.71h0a.54.54,0,0,0,.76-.35l.3-1.19a18.9,18.9,0,0,0,.54-2.72,18.92,18.92,0,0,0-.16-4A9.56,9.56,0,0,0,125,44.69Z"/><path class="cls-2" d="M103.82,51.77A12.85,12.85,0,0,0,98.07,54c-.1.07-.22.2-.15.3a.25.25,0,0,0,.13.08l3.11,1.17a5.08,5.08,0,0,0,2.51.4,2,2,0,0,0,2.05-1.21,1.86,1.86,0,0,0,.3-.54,1.74,1.74,0,0,0,.05-.44c0-.47.16-1.37-.23-1.74S104.38,51.7,103.82,51.77Z"/><path class="cls-2" d="M112,50.8a16,16,0,0,0-1.76.5c-.38.12-1.34.21-1.57.58-.39.62,1.79,1.6,2.24,1.79a13.19,13.19,0,0,0,1.88.6,1.67,1.67,0,0,0,1.94-.93h0a5.22,5.22,0,0,0,.24-.75l.49-1.89A14.42,14.42,0,0,0,112,50.8Z"/><path class="cls-3" d="M120.14,48c-1.84-.4-4.11,0-6-.16-4.54-.43-9-1.49-13.47-2.28a115.48,115.48,0,0,0-15.6-1.67,9.93,9.93,0,0,0-4,.41,10.34,10.34,0,0,0-2.14,1.26L73.4,49.45a1.78,1.78,0,0,0-.61.59,1.48,1.48,0,0,0,.35,1.53c.89,1.12,3.35,1.6,4.78,1.6,1.75,0,5.7,1.32,6.65,1.63,6.07,2,12.21.53,18.22-1.62,2.2-.79,4.61-.43,6.79-1.26,3.65-1.4,6.63-.25,9.84-1.38C120.57,50.13,122.05,48.44,120.14,48Z"/><path class="cls-4" d="M120.14,48c-1.84-.4-4.11,0-6-.16-4.54-.43-9-1.49-13.47-2.28a115.48,115.48,0,0,0-15.6-1.67,9.93,9.93,0,0,0-4,.41,10.34,10.34,0,0,0-2.14,1.26L73.4,49.45a1.78,1.78,0,0,0-.61.59,1.48,1.48,0,0,0,.35,1.53,3.1,3.1,0,0,0,1.06.79c1.92-.53,4.6-1.37,6.19-1.72,2.63-.59,6.81-1.54,7.88-1.4s11.2.69,12,.51,12.1,1.08,12.68,1.08a5.33,5.33,0,0,1,1.17.32,16.31,16.31,0,0,0,5.26-.6C120.57,50.13,122.05,48.44,120.14,48Z"/><path class="cls-2" d="M92.2,51.35a1.83,1.83,0,0,0-.5-.48,2.2,2.2,0,0,0-.94-.21,14.1,14.1,0,0,1-2.39-.39c-.53-.13-1.25-.55-1.68,0-.85,1,1.16,2.31,1.92,2.57a6.57,6.57,0,0,0,4.18,0,.23.23,0,0,0,.15-.4A8.8,8.8,0,0,0,92.2,51.35Z"/><path class="cls-5" d="M83.56,47a.19.19,0,0,0-.08.26s1.23,2.3.46,3.81a2.75,2.75,0,0,1-2.26,1.31.19.19,0,0,0,0,.39h0a3.1,3.1,0,0,0,2.56-1.52c.86-1.69-.41-4.07-.47-4.17A.19.19,0,0,0,83.56,47Z"/><path class="cls-6" d="M74.65,51.69c-.39-.19-1.4-.8-1.95-1.08h0a1.41,1.41,0,0,0,.05.26h0l0,.12h0a2,2,0,0,0,.11.24h0l.06.1,0,0,.05.08,0,0,.07.1.18.2.09.08.12.1.15.1.1.07.19.11.07,0,.24.12,0,0,.28.12h0l.31.12h0l.33.1h0c.25.07.51.14.76.19A5.59,5.59,0,0,0,74.65,51.69Z"/><circle class="cls-7" cx="77.23" cy="48.69" r="1"/><circle class="cls-8" cx="77.23" cy="48.69" r="0.55"/><path class="cls-9" d="M50.89,90.36c.09.91,1.48,1.26,1.78,1.28a6.52,6.52,0,0,1,1.22.23c.46.13.53,0,.73-.18a18.27,18.27,0,0,0,1.61-1.46c.46-.55.88-1.15,1.33-1.72a2.52,2.52,0,0,0,.29-1.61C56.74,86.52,50.8,89.45,50.89,90.36Z"/><path class="cls-9" d="M44.71,90.38a6,6,0,0,0-2.62,0,20.16,20.16,0,0,1,1,1.87c.23.58.66.41,1.62.7s1.81.51,1.69-.15A6.92,6.92,0,0,0,44.71,90.38Z"/><path class="cls-10" d="M59.83,84.62a4.25,4.25,0,0,1-2.59.09c-1.15-.44-5.43-2.69-7.48-3.28a25.56,25.56,0,0,0-7.1-.93,9.16,9.16,0,0,0-5.8,2.33,5.58,5.58,0,0,1-1.29,1.12,14.47,14.47,0,0,0-2.35,3.2.4.4,0,0,0,.4.4s-.11.94,1.48,1.41,2.83.75,3,.86a22.42,22.42,0,0,0,6.81,1,34.09,34.09,0,0,0,6.6-.43,49.6,49.6,0,0,0,6-2.82,4.27,4.27,0,0,1,2.88-.36c.53.2,4.81,2.35,6.5,2,0,0,0-1.9-4-3.5,0,0,4.42-2.3,4.29-3A31.7,31.7,0,0,0,59.83,84.62Z"/><path class="cls-11" d="M35.55,87.56a20.51,20.51,0,0,1-2.26-.18.42.42,0,0,0,.33.17.64.64,0,0,0,0,.14,18.5,18.5,0,0,0,1.93.14.13.13,0,1,0,0-.27Z"/><path class="cls-12" d="M60.37,84.39a23,23,0,0,1,.25,2.93c1,.46,4.74,2.23,6.28,1.86,0,0,0-1.9-4-3.5,0,0,4.42-2.3,4.29-3A33.49,33.49,0,0,0,60.37,84.39Z"/><path class="cls-13" d="M57.22,83.58a3.18,3.18,0,0,1-.25-.36c-.07-.11-.61-.17-.61-.31s-.14-.23-.15-.26-.36-.07-.37-.12-.2-.37-.33-.41-.7-.11-.7-.13-.17-.22-.2-.27-.46-.07-.5-.13-.11-.22-.21-.23-.49-.11-.49-.24-.6.07-.6.07-.13-.29-.18-.42-.41.31-.41.21a1,1,0,0,0-.32-.46c-.08,0-.47.47-.52.25a.38.38,0,0,0-.51-.29c-.22.1-.43-.14-.5-.36s-.75,0-.86,0-.51-.22-.54-.43-.36,0-.48,0-.11-.36-.08-.49-.58.17-.58.17-.41-.62-.55-.58-.51.28-.53-.1-.45,0-.82.11c-.21.07-.3-.18-.33-.4a.18.18,0,0,0-.28-.13c-.23.14-.54.28-.57,0,0-.42-.31-.34-.66,0s-.9.07-1.06,0-.42.86-.75.84-.51.94-.61,1.39a7,7,0,0,1,1-.07,25.56,25.56,0,0,1,7.1.93c2.06.6,6.33,2.84,7.48,3.28h0c0-.33,0-.84.06-.92A.17.17,0,0,0,57.22,83.58Z"/><path class="cls-13" d="M41.84,86.73s.15,2.6,1.92,2.35a32.72,32.72,0,0,0,7.24-3C51.09,85.89,43.08,85.94,41.84,86.73Z"/><path class="cls-14" d="M57.25,84.71c-1.15-.44-5.43-2.69-7.48-3.28a25.56,25.56,0,0,0-7.1-.93,9.16,9.16,0,0,0-5.8,2.33,5.58,5.58,0,0,1-1.29,1.12,14.47,14.47,0,0,0-2.35,3.2.5.5,0,0,0,0,.06,5.67,5.67,0,0,0,1.06,0c.14-.07,1.66-.61,1.89-.07s1.63,1,1.92,1,1.93-.37,2.36-1A9.33,9.33,0,0,1,45,84.91a29.74,29.74,0,0,1,5.87.93,10.51,10.51,0,0,0,4.25.5,17.16,17.16,0,0,0,4.73-1.73l0,0A4.25,4.25,0,0,1,57.25,84.71Z"/><path class="cls-11" d="M40.3,82.95a.13.13,0,0,0-.09.16s1.07,3.74-.28,5.25c-1.11,1.24-1.79,1.11-1.79,1.11a.13.13,0,0,0-.07.26h.13c.27,0,1-.13,1.93-1.2,1.45-1.62.38-5.34.34-5.5A.13.13,0,0,0,40.3,82.95Z"/><path class="cls-11" d="M38.78,84.59a.13.13,0,0,0-.07.17s.93,2.28,0,3.4a.13.13,0,0,0,.21.17c1-1.24.06-3.57,0-3.67A.13.13,0,0,0,38.78,84.59Z"/><circle class="cls-15" cx="36.74" cy="84.71" r="0.62"/><circle class="cls-16" cx="36.74" cy="84.71" r="0.37"/><path class="cls-2" d="M72.94,106.94a.71.71,0,0,0-.32,0c-1.58.21-3.16.42-4.73.74a2.91,2.91,0,0,0-1.13.41A3,3,0,0,0,66,109c-.27.43-1.29,1.56-1,2.07s1.62.18,2.09.17a19,19,0,0,1,4.89.62c.45.12,1.07.19,1.27-.24a1,1,0,0,0,.06-.43q0-1.75,0-3.5C73.27,107.39,73.22,107,72.94,106.94Z"/><path class="cls-2" d="M80.11,109.88a2.15,2.15,0,0,0-1.2-.08,13.85,13.85,0,0,0-3,.76q-.62.23-1.21.52c-.41.2-.58.36-.12.64a9.33,9.33,0,0,0,2.47.89,14,14,0,0,0,2.63.41q.67,0,1.33,0a12,12,0,0,1,1.26-.1q-.62-1.12-1.34-2.19A2.25,2.25,0,0,0,80.11,109.88Z"/><path class="cls-2" d="M91.67,111.47a1.69,1.69,0,0,0-1.88-.53c-.42.15-.86.28-1.29.42a4.52,4.52,0,0,0-2.15,1.27c-.19.23-.48.65-.4,1s.58.4.89.48a22.72,22.72,0,0,0,2.91.65,9.6,9.6,0,0,0,4-.19A3.74,3.74,0,0,0,92.9,113Z"/><path class="cls-2" d="M103,111a8.36,8.36,0,0,0-2,.45,9.14,9.14,0,0,0-3.23,1.94,1.75,1.75,0,0,0-.72,1.37,4.43,4.43,0,0,0,.15,2.08,4.37,4.37,0,0,0,1,1.42,14.82,14.82,0,0,0,3.66,2.71h0a.54.54,0,0,0,.76-.35l.3-1.19a14.18,14.18,0,0,0,.38-6.7A9.56,9.56,0,0,0,103,111Z"/><path class="cls-2" d="M81.85,118.09a12.85,12.85,0,0,0-5.74,2.19c-.1.07-.22.2-.15.3a.25.25,0,0,0,.13.08l3.11,1.17a5.08,5.08,0,0,0,2.51.4A2,2,0,0,0,83.77,121a1.86,1.86,0,0,0,.3-.54,1.74,1.74,0,0,0,.05-.44c0-.47.16-1.37-.23-1.74S82.41,118,81.85,118.09Z"/><path class="cls-2" d="M90,117.12a16,16,0,0,0-1.76.5c-.38.12-1.34.21-1.57.58-.39.62,1.79,1.6,2.24,1.79a13.19,13.19,0,0,0,1.88.6,1.67,1.67,0,0,0,1.94-.93h0a5.22,5.22,0,0,0,.24-.75l.49-1.89A14.42,14.42,0,0,0,90,117.12Z"/><path class="cls-3" d="M98.17,114.34c-1.84-.4-4.11,0-6-.16-4.54-.43-9-1.49-13.47-2.28a115.48,115.48,0,0,0-15.6-1.67,9.93,9.93,0,0,0-4,.41A10.34,10.34,0,0,0,57,111.9l-5.54,3.88a1.78,1.78,0,0,0-.61.59,1.48,1.48,0,0,0,.35,1.53c.89,1.12,3.35,1.6,4.78,1.6,1.75,0,5.7,1.32,6.65,1.63,6.07,2,12.21.53,18.22-1.62,2.2-.79,4.61-.43,6.79-1.26,3.65-1.4,6.63-.25,9.84-1.38C98.6,116.45,100.09,114.76,98.17,114.34Z"/><path class="cls-4" d="M98.17,114.34c-1.84-.4-4.11,0-6-.16-4.54-.43-9-1.49-13.47-2.28a115.48,115.48,0,0,0-15.6-1.67,9.93,9.93,0,0,0-4,.41A10.34,10.34,0,0,0,57,111.9l-5.54,3.88a1.78,1.78,0,0,0-.61.59,1.48,1.48,0,0,0,.35,1.53,3.1,3.1,0,0,0,1.06.79c1.92-.53,4.6-1.37,6.19-1.72,2.63-.59,6.81-1.54,7.88-1.4s11.2.69,12,.51,12.1,1.08,12.68,1.08a5.33,5.33,0,0,1,1.17.32,16.31,16.31,0,0,0,5.26-.6C98.6,116.45,100.09,114.76,98.17,114.34Z"/><path class="cls-2" d="M70.24,117.67a1.83,1.83,0,0,0-.5-.48,2.2,2.2,0,0,0-.94-.21,14.1,14.1,0,0,1-2.39-.39c-.53-.13-1.25-.55-1.68,0-.85,1,1.16,2.31,1.92,2.57a6.57,6.57,0,0,0,4.18,0,.23.23,0,0,0,.15-.4A8.8,8.8,0,0,0,70.24,117.67Z"/><path class="cls-5" d="M61.59,113.37a.19.19,0,0,0-.08.26s1.23,2.3.46,3.81a2.75,2.75,0,0,1-2.26,1.31.19.19,0,0,0,0,.39h0a3.1,3.1,0,0,0,2.56-1.52c.86-1.69-.41-4.07-.47-4.17A.19.19,0,0,0,61.59,113.37Z"/><path class="cls-6" d="M52.68,118c-.39-.19-1.4-.8-1.95-1.08h0a1.41,1.41,0,0,0,.05.26h0l0,.12h0a2,2,0,0,0,.11.24h0l.06.1,0,0,.05.08,0,0,.07.1.18.2.09.08.12.1.15.1.1.07.19.11.07,0,.24.12,0,0,.28.12h0L53,119h0l.33.1h0c.25.07.51.14.76.19A5.59,5.59,0,0,0,52.68,118Z"/><circle class="cls-7" cx="55.27" cy="115.01" r="1"/><circle class="cls-8" cx="55.27" cy="115.01" r="0.55"/><path class="cls-9" d="M61.71,27.06c.09.91,1.48,1.26,1.78,1.28a6.52,6.52,0,0,1,1.22.23c.46.13.53,0,.73-.18A18.27,18.27,0,0,0,67,26.94c.46-.55.88-1.15,1.33-1.72a2.52,2.52,0,0,0,.29-1.61C67.56,23.22,61.62,26.15,61.71,27.06Z"/><path class="cls-9" d="M55.53,27.08a6,6,0,0,0-2.62,0,20.16,20.16,0,0,1,1,1.87c.23.58.66.41,1.62.7s1.81.51,1.69-.15A6.92,6.92,0,0,0,55.53,27.08Z"/><path class="cls-10" d="M70.65,21.32a4.25,4.25,0,0,1-2.59.09c-1.15-.44-5.43-2.69-7.48-3.28a25.56,25.56,0,0,0-7.1-.93,9.16,9.16,0,0,0-5.8,2.33,5.58,5.58,0,0,1-1.29,1.12A14.47,14.47,0,0,0,44,23.85a.4.4,0,0,0,.4.4s-.11.94,1.48,1.41,2.83.75,3,.86a22.42,22.42,0,0,0,6.81,1,34.09,34.09,0,0,0,6.6-.43,49.6,49.6,0,0,0,6-2.82,4.27,4.27,0,0,1,2.88-.36c.53.2,4.81,2.35,6.5,2,0,0,0-1.9-4-3.5,0,0,4.42-2.3,4.29-3A31.7,31.7,0,0,0,70.65,21.32Z"/><path class="cls-11" d="M46.37,24.26a20.51,20.51,0,0,1-2.26-.18.42.42,0,0,0,.33.17.64.64,0,0,0,0,.14,18.5,18.5,0,0,0,1.93.14.13.13,0,1,0,0-.27Z"/><path class="cls-12" d="M71.19,21.09A23,23,0,0,1,71.44,24c1,.46,4.74,2.23,6.28,1.86,0,0,0-1.9-4-3.5,0,0,4.42-2.3,4.29-3A33.49,33.49,0,0,0,71.19,21.09Z"/><path class="cls-13" d="M68,20.28a3.18,3.18,0,0,1-.25-.36c-.07-.11-.61-.17-.61-.31s-.14-.23-.15-.26-.36-.07-.37-.12-.2-.37-.33-.41-.7-.11-.7-.13-.17-.22-.2-.27-.46-.07-.5-.13-.11-.22-.21-.23-.49-.11-.49-.24-.6.07-.6.07-.13-.29-.18-.42-.41.31-.41.21a1,1,0,0,0-.32-.46c-.08,0-.47.47-.52.25a.38.38,0,0,0-.51-.29c-.22.1-.43-.14-.5-.36s-.75,0-.86,0-.51-.22-.54-.43-.36,0-.48,0-.11-.36-.08-.49-.58.17-.58.17-.41-.62-.55-.58-.51.28-.53-.1-.45,0-.82.11c-.21.07-.3-.18-.33-.4a.18.18,0,0,0-.28-.13c-.23.14-.54.28-.57,0,0-.42-.31-.34-.66,0s-.9.07-1.06,0-.42.86-.75.84-.51.94-.61,1.39a7,7,0,0,1,1-.07,25.56,25.56,0,0,1,7.1.93c2.06.6,6.33,2.84,7.48,3.28h0c0-.33,0-.84.06-.92A.17.17,0,0,0,68,20.28Z"/><path class="cls-13" d="M52.66,23.43s.15,2.6,1.92,2.35a32.72,32.72,0,0,0,7.24-3C61.91,22.59,53.9,22.64,52.66,23.43Z"/><path class="cls-14" d="M68.07,21.41c-1.15-.44-5.43-2.69-7.48-3.28a25.56,25.56,0,0,0-7.1-.93,9.16,9.16,0,0,0-5.8,2.33,5.58,5.58,0,0,1-1.29,1.12A14.47,14.47,0,0,0,44,23.85a.5.5,0,0,0,0,.06,5.67,5.67,0,0,0,1.06,0c.14-.07,1.66-.61,1.89-.07s1.63,1,1.92,1,1.93-.37,2.36-1a9.33,9.33,0,0,1,4.56-2.19,29.74,29.74,0,0,1,5.87.93A10.51,10.51,0,0,0,66,23a17.16,17.16,0,0,0,4.73-1.73l0,0A4.25,4.25,0,0,1,68.07,21.41Z"/><path class="cls-11" d="M51.12,19.65a.13.13,0,0,0-.09.16s1.07,3.74-.28,5.25C49.64,26.3,49,26.17,49,26.17a.13.13,0,0,0-.07.26H49c.27,0,1-.13,1.93-1.2,1.45-1.62.38-5.34.34-5.5A.13.13,0,0,0,51.12,19.65Z"/><path class="cls-11" d="M49.6,21.29a.13.13,0,0,0-.07.17s.93,2.28,0,3.4a.13.13,0,0,0,.21.17c1-1.24.06-3.57,0-3.67A.13.13,0,0,0,49.6,21.29Z"/><circle class="cls-15" cx="47.56" cy="21.41" r="0.62"/><circle class="cls-16" cx="47.56" cy="21.41" r="0.37"/><path class="cls-17" d="M112,85.61c-.32-.4-2.82.34-2.54.58,0,0,2.89,2.57,3.63,2.54s1-2.28.9-2.73S112.27,86,112,85.61Z"/><path class="cls-17" d="M104,87.11c-.25-.44-1.54-.39-1.59,0,0,0,1.78,4.19,2.7,4s.64-2,.44-2.43S104.27,87.55,104,87.11Z"/><path class="cls-18" d="M102.63,87.11c-.17-.07-.1-.07-.49,0a18.46,18.46,0,0,0,1.28,3.42,7.52,7.52,0,0,1,.09-1.42A4.79,4.79,0,0,0,102.63,87.11Z"/><path class="cls-17" d="M108.59,78.72c-.21-.13-.24-.66-.42-.6s-.34-.8-.85-.77-.42-.87-1.35-.85-.9-.66-1.14-.45-1-.16-1.38-.37-.74.4-1.22.45-1-.08-1,.58-1.48-.29-1.64.34a15.16,15.16,0,0,0,.74,3.55c.79-.69,8-.56,8.26-.77A1,1,0,0,0,108.59,78.72Z"/><path class="cls-17" d="M112.69,77.69c-1.11-.16-3,2.54-3,2.54.11.77,3.57,2.36,3.73,1.69s2.46-.93,2.46-.93C115.87,80,113.81,77.85,112.69,77.69Z"/><path class="cls-19" d="M122.42,81.18a6.21,6.21,0,0,0-4.2,1.29,10,10,0,0,0-2.89.39s-4.75-3.32-7.66-3.4-7-.24-8.34.82a29.22,29.22,0,0,0-3,2.82c-.53.56-1.88,1.23-1.87,1.51s.15.17.13.36-.11.56.07.71a7.29,7.29,0,0,0,4,1.46,50.31,50.31,0,0,0,8.95,0c3.12-.37,6.89-2.54,7.28-2.52,1.09.07,2.83,1.16,4.53,1.93s3.18,1.27,2.89.29-1-1-.93-2.06S123.3,81.4,122.42,81.18Z"/><path class="cls-17" d="M122.42,81.18a6.19,6.19,0,0,0-4.1,1.21,3.39,3.39,0,0,1,.18,2.2,10.52,10.52,0,0,1-.65,1.16c.54.27,1.09.56,1.65.81,1.61.73,3,1.22,2.91.42s-.46-.91-.75-1.26a1.3,1.3,0,0,1-.2-.94C121.56,83.67,123.3,81.4,122.42,81.18Z"/><path class="cls-17" d="M104.11,83.54a19.65,19.65,0,0,1-2.32,1.09c-.15,0,.12.12.11.3s-.61.79.26.79,2.76-.37,2.85-1.23-.11-1.05-.26-1.21C104.74,83.29,104.76,83.18,104.11,83.54Z"/><path class="cls-20" d="M95.19,85a2.07,2.07,0,0,0-.56,0,.25.25,0,0,1,0,.06v0a6,6,0,0,1,1.68.58c.55.29.63.15.63.15a2.48,2.48,0,0,0-.45-.3A6.39,6.39,0,0,0,95.19,85Z"/><path class="cls-20" d="M99.86,82.47a.11.11,0,1,0-.11.18,2.19,2.19,0,0,1,1,1.51,2.59,2.59,0,0,1-1.26,2,.11.11,0,0,0,.07.19l.07,0A2.77,2.77,0,0,0,101,84.15,2.37,2.37,0,0,0,99.86,82.47Z"/><circle class="cls-21" cx="97.71" cy="83.27" r="0.75"/><circle class="cls-22" cx="97.71" cy="83.27" r="0.39"/><path class="cls-23" d="M115.32,82.86s-4.75-3.32-7.66-3.4-7-.24-8.34.82l-.54.45a4.14,4.14,0,0,0,.67,1.61c.35.21,1.15.62,1.2.21s-.78-2.26-.26-2.35.82-.21.94.44.81,2.81,1.16,2.8a1.06,1.06,0,0,0,.85-.51c.12-.26,0-3.09.18-3.15a6.46,6.46,0,0,1,1.43.09c.05,0-.07,3.17.41,3.4s1.15.61,1.5.39a1.66,1.66,0,0,0,.44-1.77c-.19-.92-.22-1.83.13-1.83s1-.29,1.15.48.36,4,.66,4,1.47,0,1.52-.47-.11-3.15.11-3.19a10.25,10.25,0,0,1,1.75.83s.08,2.21.12,2.33.21,0,.49-.19.81-.41.81-.75,0-.62.34-.44,1.16.24,1.28.41-.45.83,0,.83,1.6-.08,1.6-.4c0-.14,0-.54,0-1A5.54,5.54,0,0,0,115.32,82.86Z"/><path class="cls-24" d="M38.63,59.26a1.1,1.1,0,0,0,1.44.15,9.92,9.92,0,0,0,3.57-3.46C42,55.93,37.68,58.9,38.63,59.26Z"/><path class="cls-24" d="M40.68,50.67c-1.15-.87-1.36-.55-2.94-1s-1.5-1.36-2.56-1.12-2-.39-2.74-.54c-.91-.15-2.52,2.13-2.52,2.13.16,3.05,13.19,3,13,2.68A11.51,11.51,0,0,0,40.68,50.67Z"/><path class="cls-25" d="M32.15,48.49l0,0-.12.06-.13.08-.14.1-.14.12-.13.13-.13.14-.12.14-.19.26a2.39,2.39,0,0,0-.16.27l.22-.22.22-.23.25-.26.25-.25.12-.11.11-.09.1-.07.08-.05.07,0-.08,0Z"/><path class="cls-25" d="M41.37,51.81l-.12-.15-.15-.17-.18-.17-.2-.18L40.51,51c-.15-.11-.3-.22-.44-.31l-.41-.24a3.89,3.89,0,0,0-.42-.19l.38.26.38.27.21.15.22.16.21.17.2.17.19.16.16.15.13.13.1.1.09.09-.07-.11Z"/><path class="cls-25" d="M39,50.86l0-.07,0-.08-.06-.08-.07-.08-.08-.08a1.56,1.56,0,0,0-.32-.24,1,1,0,0,0-.17-.08l.12.13.13.13.15.14.15.14.12.13,0,.06,0,0,0,0v-.05A.26.26,0,0,0,39,50.86Z"/><path class="cls-25" d="M37.41,50.14A.49.49,0,0,0,37.3,50a.29.29,0,0,0-.08-.06.77.77,0,0,0,0,.1l0,.09,0,.1.08.18,0,.06v0a.28.28,0,0,0,0-.07.37.37,0,0,0,0-.1A.46.46,0,0,0,37.41,50.14Z"/><path class="cls-25" d="M34.65,49.29l-.09.08-.08.1a.66.66,0,0,0-.06.11l0,.06,0,.06a.43.43,0,0,0,0,.11v.1a.59.59,0,0,0,0,.08l0,.06,0,.05V50l0-.08v-.09l0-.09,0,0,0,0,.06-.09.07-.09.07-.08.07-.07.07-.06.15-.12a.67.67,0,0,0-.19.06A.88.88,0,0,0,34.65,49.29Z"/><path class="cls-25" d="M33,49.09l-.11.06-.11.07a1.06,1.06,0,0,0-.19.17l-.07.09a.52.52,0,0,0-.05.09.37.37,0,0,0,0,.09.2.2,0,0,0,0,.07s0,.06,0,.06l0-.05,0-.06,0-.07.06-.07.08-.07.09-.07.09-.07.1-.07.1-.07.18-.11.17-.12a1.07,1.07,0,0,0-.2,0Z"/><path class="cls-25" d="M35.91,49.68a.55.55,0,0,0-.09.22.5.5,0,0,0,0,.13.39.39,0,0,0,0,.11l0,.07,0,0v-.1l0-.21,0-.11v-.1c0-.06,0-.11,0-.11A.33.33,0,0,0,35.91,49.68Z"/><path class="cls-26" d="M45.58,53c-1.2.78-1.74.48-2.22.06A20.32,20.32,0,0,0,30.6,49.91a10.22,10.22,0,0,0-7.07,6.35s-.3.18,0,.42c1.8,1.5,4.2,2.82,10,3.3a12.86,12.86,0,0,0,10.25-4.2c.54-.66,1.14-.36,2.1-.12C49.48,54.46,46.78,52.25,45.58,53Z"/><path class="cls-27" d="M45.58,53c-1.2.78-1.74.48-2.22.06A20.32,20.32,0,0,0,30.6,49.91a10,10,0,0,0-3.85,1.89s1.76-.46,2.77,1.85,6.68,2.88,10.25,2.16,5.49-.71,7.91-1.67a10.74,10.74,0,0,0-.7-1.05A1.38,1.38,0,0,0,45.58,53Z"/><g class="cls-28"><path d="M45.58,53c-1.2.78-1.74.48-2.22.06A20.32,20.32,0,0,0,30.6,49.91a10,10,0,0,0-3.85,1.89,1.89,1.89,0,0,1,.68,0,10,10,0,0,1,3.16-1.39,20.32,20.32,0,0,1,12.77,3.18c.48.42,1,.72,2.22-.06a1.38,1.38,0,0,1,1.39.06,2,2,0,0,1,.46.66l.24-.09a10.74,10.74,0,0,0-.7-1.05A1.38,1.38,0,0,0,45.58,53Z"/></g><circle class="cls-29" cx="25.93" cy="54.47" r="0.82"/><circle class="cls-30" cx="25.9" cy="54.5" r="0.57"/><circle class="cls-31" cx="25.69" cy="54.5" r="0.37"/><path class="cls-25" d="M25.5,56.66H25l-.2,0-.21,0-.2,0-.19-.05L24,56.45l-.16-.06-.23-.11-.08-.05.07.07a1.51,1.51,0,0,0,.21.16l.15.09.18.08.2.07.21,0,.22,0h.41l.17,0a1.92,1.92,0,0,0,.26-.05l.1,0H25.5Z"/><path class="cls-24" d="M50.17,53.68c1-.93,2.16-1.68.93-1.92s-4.07-.1-5.15,1.12c0,0,1.53.32,1.5,1.28s-1.56,1.5-1.56,1.5a7.84,7.84,0,0,0,4.74,2c.72,0,.84-.24.36-.78s-1.47-2-1.47-2S49.15,54.61,50.17,53.68Z"/><path class="cls-24" d="M37.83,55.95a4,4,0,0,0-2.55-.63c-1.56,0-5.39-.2-4.81.4a1.24,1.24,0,0,1,.6,1.56c0,.27,3.12,1.68,4.08,1a8.12,8.12,0,0,1,3-1.53C38.51,56.85,38.4,56.26,37.83,55.95Z"/><path class="cls-25" d="M29.61,54.88a4.41,4.41,0,0,0-.12-.47,4.22,4.22,0,0,0-.15-.42c-.05-.13-.11-.25-.17-.36a4.22,4.22,0,0,0-.31-.51l-.14-.18.08.21c.05.13.12.32.2.55l.11.37c0,.13.07.27.11.42s.06.3.08.45,0,.31,0,.47a4.25,4.25,0,0,1,0,.46,3.75,3.75,0,0,1,0,.45,4.2,4.2,0,0,1-.09.41c0,.13-.08.25-.13.36l0,.08,0,.08-.07.14-.12.22-.12.19.17-.15.18-.19a2.55,2.55,0,0,0,.2-.28,2.49,2.49,0,0,0,.19-.36c0-.07.06-.14.08-.21s0-.15.06-.23,0-.16,0-.24a2.19,2.19,0,0,0,0-.25,3.52,3.52,0,0,0,0-.5A4,4,0,0,0,29.61,54.88Z"/><path class="cls-32" d="M40.6,57.81l-.15.08-.16.08-.35.16c-.25.1-.52.23-.81.33l-.45.16-.47.15c-.32.1-.66.19-1,.27l-.52.11-.27,0-.27,0c-.36.06-.71.1-1.07.13s-.7,0-1,0-.66,0-1,0-.6,0-.87-.08a12.31,12.31,0,0,1-1.29-.23l-.48-.13.12,0,.35.11a10.76,10.76,0,0,0,1.29.28c.27,0,.56.08.87.1s.64,0,1,0,.69,0,1.05,0,.72-.06,1.08-.12l.27,0,.27-.05.53-.11c.35-.08.69-.18,1-.28l.48-.16.45-.17c.29-.11.56-.24.81-.35s.47-.23.66-.34.36-.2.5-.28l.42-.26-.44.24Z"/><path class="cls-25" d="M34.93,58h-.46a7,7,0,0,1-1.19-.22l-.63-.17-.55-.16-.54-.16.14.07.37.16.54.2.31.1.32.09a6.43,6.43,0,0,0,.65.13l.3,0h.27l.23,0,.1,0,.08,0,.06,0,0,0,0,0h-.08Z"/><path class="cls-25" d="M35.21,57.14h-.5l-.3,0-.32,0-.33,0-.33,0-.32,0-.57-.09-.56-.1.15.05.39.12.27.07.3.07.32.06.33,0,.34,0,.33,0h.31l.27,0,.23,0,.17,0,.15,0-.15,0Z"/><path class="cls-25" d="M36.36,56.61l-.3-.09-.36-.09-.4-.08-.43-.07-.45-.06-.45,0-.44,0-.78,0H32.2l.55,0,.37,0,.41,0,.44,0,.45,0,.45.05.43.06.4.07.36.07.3.06.23.06.2,0-.2-.07Z"/><path class="cls-25" d="M37.05,56.21l-.4-.13L36.43,56,36.18,56c-.17,0-.35-.08-.54-.11l-.58-.09-.6-.06-.61,0H32.72l-.49,0c-.3,0-.55.05-.73.08l-.28,0,.28,0,.73,0h1l.58,0,.6,0,.6.06.58.08.54.09.25.05.23.05.4.1.3.1.27.08-.26-.11Z"/><path class="cls-25" d="M50.32,57.13l-.26-.06L49.75,57l-.34-.11-.36-.13-.36-.15-.36-.16L48,56.29,47.37,56l-.43-.21-.16-.08.15.1.41.26.28.16.32.17c.22.11.46.23.71.33l.37.14.37.12.35.09.32.06.27,0h.39l-.18,0Z"/><path class="cls-25" d="M49.44,56.3l-.34-.17-.39-.2-.38-.21L48,55.54l-.32-.18a2.75,2.75,0,0,0,.28.24l.31.22.18.11.2.11.2.1.2.09.19.07.17.06.26.07.1,0-.09,0Z"/><path class="cls-25" d="M50.12,53l-.17,0-.1,0-.1,0-.22.07-.24.09-.24.1-.23.12-.22.13a4,4,0,0,0-.36.25,2.57,2.57,0,0,0-.32.29l.36-.23.38-.22.44-.22.46-.2.21-.08.19-.07.17-.05.13,0,.11,0h-.25Z"/><path class="cls-25" d="M50.52,52.05l-.23,0-.28,0-.31.05-.32.07-.17,0-.17,0-.16.05-.16.06-.31.13-.28.14-.24.15-.19.14-.14.12-.08.09,0,0,.12-.1.15-.1.2-.12.24-.13.28-.12.31-.12.16-.06.16,0,.16-.05.16,0,.16,0,.16,0,.3-.07.27-.06.41-.08.15,0h-.34Z"/><path class="cls-25" d="M48.76,54.59l-.07,0-.08,0h-.37l-.16,0a.66.66,0,0,0-.15.06h1l0,0Z"/><path class="cls-25" d="M39.73,59.39h0l0,0,0,0-.11-.05-.11-.05-.1,0-.11,0a.43.43,0,0,0,.07.1l.09.08.11.07.13,0h.13l0,0,0,0,0,0h-.06Z"/><path class="cls-25" d="M40.14,59H40l-.14,0H39.8a.19.19,0,0,0,0,.07l.06.05.09,0h.1l.08,0a.15.15,0,0,0,.05-.06h-.08Z"/><path class="cls-25" d="M40.78,58.52l-.05,0h-.17a.17.17,0,0,0,0,.06l0,0,.06,0a.2.2,0,0,0,.13,0,.12.12,0,0,0,.06,0l0,0Z"/></g></g></svg>